<svg width="31" height="42" viewBox="0 0 31 42" fill="none" xmlns="http://www.w3.org/2000/svg">
<path d="M10.2966 29.2771V32.2656H20.5583V29.0472" fill="white"/>
<path d="M10.2966 29.2771V32.2656H20.5583V29.0472" stroke="#1E1E1E" stroke-miterlimit="10" stroke-linecap="round" stroke-linejoin="round"/>
<ellipse cx="15.4723" cy="15.3972" rx="13.4684" ry="14.2243" fill="url(#paint0_linear_1484_410)"/>
<path d="M20.781 35.4824H10.0732C9.08764 35.4824 8.28857 34.659 8.28857 33.6433V33.1835C8.28857 32.6757 8.68811 32.264 9.18089 32.264H21.6733C22.1661 32.264 22.5656 32.6757 22.5656 33.1835V33.6433C22.5656 34.659 21.7666 35.4824 20.781 35.4824Z" fill="#B8CBFF"/>
<path d="M20.781 35.4824H10.0732C9.08764 35.4824 8.28857 34.659 8.28857 33.6433V33.1835C8.28857 32.6757 8.68811 32.264 9.18089 32.264H21.6733C22.1661 32.264 22.5656 32.6757 22.5656 33.1835V33.6433C22.5656 34.659 21.7666 35.4824 20.781 35.4824Z" stroke="#1E1E1E" stroke-miterlimit="10" stroke-linecap="round" stroke-linejoin="round"/>
<path d="M18.7736 38.2412H12.0813C11.0957 38.2412 10.2966 37.4178 10.2966 36.4021V35.4826H20.5583V36.4021C20.5583 37.4178 19.7592 38.2412 18.7736 38.2412Z" fill="#B8CBFF"/>
<path d="M18.7736 38.2412H12.0813C11.0957 38.2412 10.2966 37.4178 10.2966 36.4021V35.4826H20.5583V36.4021C20.5583 37.4178 19.7592 38.2412 18.7736 38.2412Z" stroke="#1E1E1E" stroke-miterlimit="10" stroke-linecap="round" stroke-linejoin="round"/>
<path d="M16.3195 41H14.5349C13.5493 41 12.7502 40.1765 12.7502 39.1609V38.2413H18.1041V39.1609C18.1041 40.1765 17.3051 41 16.3195 41Z" fill="#B8CBFF"/>
<path d="M16.3195 41H14.5349C13.5493 41 12.7502 40.1765 12.7502 39.1609V38.2413H18.1041V39.1609C18.1041 40.1765 17.3051 41 16.3195 41Z" stroke="#1E1E1E" stroke-miterlimit="10" stroke-linecap="round" stroke-linejoin="round"/>
<path d="M18.7737 23.9883C18.7737 22.0839 17.2755 20.54 15.4275 20.54C13.5795 20.54 12.0813 22.0839 12.0813 23.9883H18.7737Z" stroke="#1E1E1E" stroke-miterlimit="10" stroke-linecap="round" stroke-linejoin="round"/>
<path d="M28.02 9.04601C28.9551 10.9851 29.4812 13.1709 29.4812 15.4833C29.4812 22.3758 24.8088 28.144 18.55 29.6074" stroke="#1E1E1E" stroke-miterlimit="10" stroke-linecap="round" stroke-linejoin="round"/>
<path d="M12.3044 29.6074C6.04568 28.144 1.37329 22.3758 1.37329 15.4833C1.37329 7.48462 7.66546 1.00039 15.4273 1.00039C17.671 1.00039 19.7918 1.54224 21.6735 2.5057" stroke="#1E1E1E" stroke-miterlimit="10" stroke-linecap="round" stroke-linejoin="round"/>
<path d="M15.4272 32.2656V30.4265" stroke="#1E1E1E" stroke-miterlimit="10" stroke-linecap="round" stroke-linejoin="round"/>
<path d="M7.61963 7.18457C9.40337 5.44938 11.7316 4.30224 14.3122 4.04338" stroke="#1E1E1E" stroke-miterlimit="10" stroke-linecap="round" stroke-linejoin="round"/>
<path d="M4.71973 11.7432C4.93544 11.1255 5.20024 10.5317 5.50898 9.96705" stroke="#1E1E1E" stroke-miterlimit="10" stroke-linecap="round" stroke-linejoin="round"/>
<ellipse cx="25.0088" cy="5.56946" rx="4.26639" ry="4.39661" fill="white"/>
<path d="M29.4813 5.59853C29.4813 8.13787 27.4838 10.1963 25.0197 10.1963C22.5556 10.1963 20.5581 8.13787 20.5581 5.59853C20.5581 3.05919 22.5556 1.00077 25.0197 1.00077C27.4838 1.00077 29.4813 3.05919 29.4813 5.59853Z" stroke="#1E1E1E" stroke-miterlimit="10" stroke-linecap="round" stroke-linejoin="round"/>
<path d="M27.2506 5.5976C27.2506 6.86728 26.2519 7.89648 25.0199 7.89648C23.7878 7.89648 22.7891 6.86728 22.7891 5.5976C22.7891 4.32793 23.7878 3.29873 25.0199 3.29873C26.2519 3.29873 27.2506 4.32793 27.2506 5.5976Z" fill="#87B5DF"/>
<path d="M24.423 15.1295C24.423 17.8558 22.7309 20.0508 20.6813 19.9213C18.7614 19.7999 17.2844 17.577 17.2844 14.994V14.8297C17.2844 14.3329 17.584 13.9302 17.9537 13.9302H23.7537C24.1234 13.9302 24.423 14.3329 24.423 14.8297V15.1295Z" stroke="#1E1E1E" stroke-miterlimit="10" stroke-linecap="round" stroke-linejoin="round"/>
<path d="M13.7154 15.1295C13.7154 17.8558 12.0234 20.0508 9.97373 19.9213C8.05391 19.7999 6.5769 17.577 6.5769 14.994V14.8297C6.5769 14.3329 6.8765 13.9302 7.24614 13.9302H13.0462C13.4158 13.9302 13.7154 14.3329 13.7154 14.8297V15.1295Z" stroke="#1E1E1E" stroke-miterlimit="10" stroke-linecap="round" stroke-linejoin="round"/>
<path d="M13.7156 16.0312H17.2848" stroke="#1E1E1E" stroke-miterlimit="10" stroke-linecap="round" stroke-linejoin="round"/>
<path d="M24.4229 16.0311H29.3306C29.7002 16.0311 29.9998 16.4338 29.9998 16.9306V18.4297" stroke="#1E1E1E" stroke-miterlimit="10" stroke-linecap="round" stroke-linejoin="round"/>
<path d="M9.25395 14.2323L8.58472 15.4316" stroke="#1E1E1E" stroke-miterlimit="10" stroke-linecap="round" stroke-linejoin="round"/>
<path d="M6.57698 16.0311H1.66924C1.2996 16.0311 1 16.4338 1 16.9306V18.4297" stroke="#1E1E1E" stroke-miterlimit="10" stroke-linecap="round" stroke-linejoin="round"/>
<path d="M11.9308 14.2323L10.8154 16.6309" stroke="#1E1E1E" stroke-miterlimit="10" stroke-linecap="round" stroke-linejoin="round"/>
<path d="M19.9615 14.2323L19.2922 15.4316" stroke="#1E1E1E" stroke-miterlimit="10" stroke-linecap="round" stroke-linejoin="round"/>
<path d="M22.6386 14.2323L21.5232 16.6309" stroke="#1E1E1E" stroke-miterlimit="10" stroke-linecap="round" stroke-linejoin="round"/>
<defs>
<linearGradient id="paint0_linear_1484_410" x1="15.4723" y1="1.17285" x2="15.4723" y2="29.6215" gradientUnits="userSpaceOnUse">
<stop stop-color="#FAFF00"/>
<stop offset="1" stop-color="white"/>
</linearGradient>
</defs>
</svg>
