<svg width="31" height="42" viewBox="0 0 31 42" fill="none" xmlns="http://www.w3.org/2000/svg">
<path d="M10.2065 29.2766V32.2651H20.7938V29.0467" fill="white"/>
<path d="M10.2065 29.2766V32.2651H20.7938V29.0467" stroke="#1E1E1E" stroke-miterlimit="10" stroke-linecap="round" stroke-linejoin="round"/>
<ellipse cx="15.5465" cy="15.397" rx="13.8958" ry="14.2241" fill="url(#paint0_linear_1484_411)"/>
<path d="M21.0239 35.4824H9.97628C8.95944 35.4824 8.13501 34.659 8.13501 33.6433V33.1836C8.13501 32.6758 8.54722 32.264 9.05564 32.264H21.9445C22.4529 32.264 22.8651 32.6758 22.8651 33.1836V33.6433C22.8651 34.659 22.0407 35.4824 21.0239 35.4824Z" fill="#B8CBFF"/>
<path d="M21.0239 35.4824H9.97628C8.95944 35.4824 8.13501 34.659 8.13501 33.6433V33.1836C8.13501 32.6758 8.54722 32.264 9.05564 32.264H21.9445C22.4529 32.264 22.8651 32.6758 22.8651 33.1836V33.6433C22.8651 34.659 22.0407 35.4824 21.0239 35.4824Z" stroke="#1E1E1E" stroke-miterlimit="10" stroke-linecap="round" stroke-linejoin="round"/>
<path d="M18.9526 38.2412H12.0478C11.031 38.2412 10.2065 37.4178 10.2065 36.4021V35.4826H20.7938V36.4021C20.7938 37.4178 19.9694 38.2412 18.9526 38.2412Z" fill="#B8CBFF"/>
<path d="M18.9526 38.2412H12.0478C11.031 38.2412 10.2065 37.4178 10.2065 36.4021V35.4826H20.7938V36.4021C20.7938 37.4178 19.9694 38.2412 18.9526 38.2412Z" stroke="#1E1E1E" stroke-miterlimit="10" stroke-linecap="round" stroke-linejoin="round"/>
<path d="M16.4203 41.0005H14.5791C13.5622 41.0005 12.7378 40.177 12.7378 39.1614V38.2419H18.2616V39.1614C18.2616 40.177 17.4372 41.0005 16.4203 41.0005Z" fill="#B8CBFF"/>
<path d="M16.4203 41.0005H14.5791C13.5622 41.0005 12.7378 40.177 12.7378 39.1614V38.2419H18.2616V39.1614C18.2616 40.177 17.4372 41.0005 16.4203 41.0005Z" stroke="#1E1E1E" stroke-miterlimit="10" stroke-linecap="round" stroke-linejoin="round"/>
<path d="M18.9526 23.9888C18.9526 22.0844 17.4069 20.5405 15.5002 20.5405C13.5936 20.5405 12.0479 22.0844 12.0479 23.9888H18.9526Z" stroke="#1E1E1E" stroke-miterlimit="10" stroke-linecap="round" stroke-linejoin="round"/>
<path d="M28.4924 9.04579C29.4572 10.9849 29.9999 13.1706 29.9999 15.483C29.9999 22.3754 25.1792 28.1435 18.7219 29.6069" stroke="#1E1E1E" stroke-miterlimit="10" stroke-linecap="round" stroke-linejoin="round"/>
<path d="M12.278 29.6069C5.82067 28.1435 1 22.3754 1 15.483C1 7.48441 7.49185 1.00027 15.5 1.00027C17.8149 1.00027 20.003 1.54211 21.9444 2.50556" stroke="#1E1E1E" stroke-miterlimit="10" stroke-linecap="round" stroke-linejoin="round"/>
<path d="M15.5 32.2651V30.4261" stroke="#1E1E1E" stroke-miterlimit="10" stroke-linecap="round" stroke-linejoin="round"/>
<path d="M7.44434 7.18506C9.28468 5.44989 11.6868 4.30276 14.3493 4.04391" stroke="#1E1E1E" stroke-miterlimit="10" stroke-linecap="round" stroke-linejoin="round"/>
<path d="M4.45264 11.7417C4.6752 11.124 4.9484 10.5302 5.26694 9.96561" stroke="#1E1E1E" stroke-miterlimit="10" stroke-linecap="round" stroke-linejoin="round"/>
<ellipse cx="25.3857" cy="5.5694" rx="4.40178" ry="4.39655" fill="#4C6984"/>
<path d="M29.9998 5.59761C29.9998 8.13692 27.939 10.1953 25.3966 10.1953C22.8543 10.1953 20.7935 8.13692 20.7935 5.59761C20.7935 3.0583 22.8543 0.999913 25.3966 0.999913C27.939 0.999913 29.9998 3.0583 29.9998 5.59761Z" stroke="#1E1E1E" stroke-miterlimit="10" stroke-linecap="round" stroke-linejoin="round"/>
<path d="M27.6986 5.59861C27.6986 6.86827 26.6682 7.89746 25.397 7.89746C24.1259 7.89746 23.0955 6.86827 23.0955 5.59861C23.0955 4.32896 24.1259 3.29976 25.397 3.29976C26.6682 3.29976 27.6986 4.32896 27.6986 5.59861Z" fill="#15FF00"/>
<path d="M17.6465 14.4755C17.6465 16.4788 19.3922 18.0917 21.5069 17.9965C23.4877 17.9073 25.0116 16.2739 25.0116 14.3759V14.0349C25.0116 13.7914 24.8056 13.5942 24.5512 13.5942H18.1068C17.8525 13.5942 17.6465 13.7914 17.6465 14.0349V14.4755Z" stroke="#1E1E1E" stroke-miterlimit="10" stroke-linecap="round" stroke-linejoin="round"/>
<path d="M6.13867 14.4755C6.13867 16.4788 7.88442 18.0917 9.99912 17.9965C11.9799 17.9073 13.5037 16.2739 13.5037 14.3759V14.0349C13.5037 13.7914 13.2977 13.5942 13.0434 13.5942H6.59899C6.34466 13.5942 6.13867 13.7914 6.13867 14.0349V14.4755Z" stroke="#1E1E1E" stroke-miterlimit="10" stroke-linecap="round" stroke-linejoin="round"/>
<defs>
<linearGradient id="paint0_linear_1484_411" x1="15.5465" y1="1.17285" x2="15.5465" y2="29.6211" gradientUnits="userSpaceOnUse">
<stop stop-color="#4C6984"/>
<stop offset="1" stop-color="white"/>
</linearGradient>
</defs>
</svg>
