<svg width="21" height="22" viewBox="0 0 21 22" fill="none" xmlns="http://www.w3.org/2000/svg">
  <path d="M17.875 17.875V6.875H6.875V6.1875C6.875 5.0501 7.8001 4.125 8.9375 4.125H11V0H8.9375C7.2971 0.00203759 5.72447 0.654587 4.56453 1.81453C3.40459 2.97447 2.75204 4.5471 2.75 6.1875V6.875H0V11H2.75V17.875H0V22H9.625V17.875H6.875V11H13.7885V17.875H11V22H20.625V17.875H17.875Z" fill="#87B5DF"/>
  <path d="M15.8125 4.125C16.9516 4.125 17.875 3.20159 17.875 2.0625C17.875 0.923413 16.9516 0 15.8125 0C14.6734 0 13.75 0.923413 13.75 2.0625C13.75 3.20159 14.6734 4.125 15.8125 4.125Z" fill="#87B5DF"/>
</svg>
