<svg width="36" height="40" viewBox="0 0 36 40" fill="none" xmlns="http://www.w3.org/2000/svg">
<path d="M12.5883 34.7369L17.5924 40L22.7528 34.7369C22.7528 34.7369 35.2239 30.6043 35.2239 17.6998C35.2239 4.79536 23.6911 -1.51237e-05 17.5924 0C11.4937 1.51239e-05 -1.7957e-05 4.09361 0 17.6998C1.79571e-05 31.3061 12.5883 34.7369 12.5883 34.7369Z" fill="#8B5131"/>
<path d="M4.41766 17.7388C4.48262 25.0382 10.43 30.9292 17.7488 30.7992C24.9376 30.6716 30.7033 24.9086 30.7672 17.7388C30.8315 10.5037 25.025 4.53055 17.7488 4.44443C10.3867 4.35729 4.35213 10.3752 4.41766 17.7388Z" fill="#87B5DF"/>
<path d="M16.0733 35.5556V16.5586H18.984V35.5556H16.0733ZM17.5533 13.3924C16.986 13.3924 16.4967 13.1986 16.0856 12.8111C15.6827 12.4236 15.4813 11.9577 15.4813 11.4136C15.4813 10.8694 15.6827 10.4035 16.0856 10.016C16.4967 9.62846 16.986 9.4347 17.5533 9.4347C18.1206 9.4347 18.6057 9.62846 19.0086 10.016C19.4197 10.4035 19.6253 10.8694 19.6253 11.4136C19.6253 11.9577 19.4197 12.4236 19.0086 12.8111C18.6057 13.1986 18.1206 13.3924 17.5533 13.3924Z" fill="#8B5131"/>
<path d="M15.4813 17.076C15.4813 16.6454 15.8314 16.2963 16.2632 16.2963H18.8434C19.2752 16.2963 19.6253 16.6454 19.6253 17.076V30.7213C19.6253 31.1519 19.2752 31.501 18.8434 31.501H16.2632C15.8314 31.501 15.4813 31.1519 15.4813 30.7213V17.076Z" fill="#8B5131"/>
</svg>
