<svg width="44" height="42" viewBox="0 0 44 42" fill="none" xmlns="http://www.w3.org/2000/svg">
<path d="M33.9827 25.9125C36.6957 25.9125 38.895 23.7132 38.895 21.0002C38.895 18.2872 36.6957 16.0879 33.9827 16.0879V25.9125ZM33.9827 11.8774C39.0209 11.8774 43.1055 15.962 43.1055 21.0002C43.1055 26.0385 39.0209 30.123 33.9827 30.123" fill="#E2E2E2"/>
<path d="M33.9827 11.8774C39.0209 11.8774 43.1055 15.962 43.1055 21.0002C43.1055 26.0385 39.0209 30.123 33.9827 30.123M33.9827 25.9125C36.6957 25.9125 38.895 23.7132 38.895 21.0002C38.895 18.2872 36.6957 16.0879 33.9827 16.0879V25.9125Z" stroke="#1E1E1E" stroke-miterlimit="10" stroke-linecap="round" stroke-linejoin="round"/>
<path d="M33.9825 4.85961V37.1403C33.9825 38.8846 26.599 41 17.4912 41C8.38352 41 1 38.8846 1 37.1403V4.85961" fill="white"/>
<path d="M33.9825 4.85961V37.1403C33.9825 38.8846 26.599 41 17.4912 41C8.38352 41 1 38.8846 1 37.1403V4.85961" stroke="#1E1E1E" stroke-miterlimit="10" stroke-linecap="round" stroke-linejoin="round"/>
<g opacity="0.149994">
<g opacity="0.149994">
<path opacity="0.149994" d="M30.1229 8.01813V37.141C30.1229 37.141 28.0176 38.5445 24.158 39.5971C20.2983 40.6497 32.2282 39.2462 33.2808 37.141L33.6317 6.26374L30.1229 8.01813Z" fill="#141414"/>
</g>
</g>
<path d="M5.56152 8.36858V12.85C5.56152 13.9265 6.33451 14.8893 7.40328 15.0191C8.68363 15.1746 9.77206 14.1795 9.77206 12.93V12.2805C9.77206 11.6037 10.2271 10.9826 10.8914 10.8524C11.7987 10.6749 12.5917 11.371 12.5791 12.2493C12.5707 12.8212 12.8019 13.3858 13.2928 13.6791C14.6689 14.5016 16.0879 13.5307 16.0879 12.2282V8.71946L5.56152 8.36858Z" fill="#87B5DF"/>
<path d="M33.9825 4.8591C33.9825 6.60331 26.599 8.71875 17.4912 8.71875C8.38352 8.71875 1 6.60331 1 4.8591C1 3.11488 8.38352 0.999443 17.4912 0.999443C26.599 0.999443 33.9825 3.11488 33.9825 4.8591Z" fill="white"/>
<path d="M33.9825 4.8591C33.9825 6.60331 26.599 8.71875 17.4912 8.71875C8.38352 8.71875 1 6.60331 1 4.8591C1 3.11488 8.38352 0.999443 17.4912 0.999443C26.599 0.999443 33.9825 3.11488 33.9825 4.8591Z" stroke="#1E1E1E" stroke-miterlimit="10" stroke-linecap="round" stroke-linejoin="round"/>
<path d="M14.3334 20.2982C14.3334 22.0424 12.9197 23.4561 11.1755 23.4561C9.43126 23.4561 8.01758 22.0424 8.01758 20.2982C8.01758 18.5539 9.43126 17.1403 11.1755 17.1403C12.9197 17.1403 14.3334 18.5539 14.3334 20.2982Z" stroke="#1E1E1E" stroke-miterlimit="10" stroke-linecap="round" stroke-linejoin="round"/>
<path d="M26.9655 20.2982C26.9655 22.0424 25.5518 23.4561 23.8076 23.4561C22.0633 23.4561 20.6497 22.0424 20.6497 20.2982C20.6497 18.5539 22.0633 17.1403 23.8076 17.1403C25.5518 17.1403 26.9655 18.5539 26.9655 20.2982Z" stroke="#1E1E1E" stroke-miterlimit="10" stroke-linecap="round" stroke-linejoin="round"/>
<path d="M23.1053 28.3684C23.1053 31.4691 20.5919 33.9824 17.4912 33.9824C14.3905 33.9824 11.8772 31.4691 11.8772 28.3684V27.6666H23.1053V28.3684Z" stroke="#1E1E1E" stroke-miterlimit="10" stroke-linecap="round" stroke-linejoin="round"/>
<path d="M27.1988 4.51665C27.5728 4.59385 27.5728 5.12683 27.1988 5.20402C25.1862 5.61946 21.4304 6.26367 17.4914 6.26367C13.5521 6.26367 9.79633 5.61946 7.7837 5.20402C7.40966 5.12683 7.40966 4.59385 7.7837 4.51665C9.79633 4.10121 13.5521 3.45665 17.4914 3.45665C21.4304 3.45665 25.1862 4.10121 27.1988 4.51665Z" fill="#1E1E1E"/>
<path d="M13.9824 31.8779C17.4912 29.7727 21 31.8779 21 31.8779Z" fill="#333333"/>
<path d="M13.9824 31.8779C17.4912 29.7727 21 31.8779 21 31.8779" stroke="#333333" stroke-miterlimit="10" stroke-linecap="round" stroke-linejoin="round"/>
<path d="M25.5615 8.36915V11.8779" stroke="#1E1E1E" stroke-miterlimit="10" stroke-linecap="round" stroke-linejoin="round"/>
</svg>
