<svg width="28" height="22" viewBox="0 0 28 22" fill="currentColor" xmlns="http://www.w3.org/2000/svg">
  <path d="M21.6556 12.4948C20.3702 12.4948 19.1628 11.8936 18.0691 10.9093L18.3333 9.5207L18.3421 9.46542C18.5835 7.99048 19.3308 5.51091 21.6547 5.51091C23.3959 5.51091 24.8081 7.07701 24.8081 9.00577C24.8081 10.9297 23.395 12.4958 21.6547 12.4958L21.6556 12.4948ZM21.6556 1.97435C18.6938 1.97435 16.3917 4.10579 15.4581 7.61617C14.0363 5.24715 12.9513 2.39908 12.3231 0H9.13296V9.19681C9.12859 11.015 7.80213 12.4851 6.16156 12.49C4.52098 12.4851 3.19453 11.0102 3.19015 9.19681V0H0V9.19681C0 12.9642 2.76579 16.0508 6.16156 16.0508C9.56083 16.0508 12.3231 12.9651 12.3231 9.19681V7.65593C12.9426 9.08529 13.7038 10.5399 14.6287 11.8228L12.674 22H15.9368L17.3542 14.6156C18.594 15.4942 20.0202 16.0498 21.6564 16.0498C25.1563 16.0498 28 12.8779 28 9.00383C28 5.12496 25.1563 1.97338 21.6564 1.97338L21.6556 1.97435Z" fill="#87B5DF"/>
</svg>
