<svg width="177" height="273" viewBox="0 0 177 273" fill="none" xmlns="http://www.w3.org/2000/svg">
<path d="M32.0782 197.341H0.52949C-1.44366 179.791 2.90976 166.71 0.52949 159.483H32.0782C30.8659 172.073 30.8659 184.751 32.0782 197.341Z" fill="#FF6584"/>
<path d="M100.471 93.7453C119.193 93.7453 134.371 78.5679 134.371 59.8457C134.371 41.1235 119.193 25.9462 100.471 25.9462C81.7489 25.9462 66.5715 41.1235 66.5715 59.8457C66.5715 78.5679 81.7489 93.7453 100.471 93.7453Z" fill="#6C63FF"/>
<path d="M95.1296 272.257H85.781C84.6894 272.256 83.6429 271.821 82.8711 271.05C82.0993 270.278 81.6651 269.231 81.6638 268.14V190.222C81.6651 189.13 82.0993 188.084 82.8711 187.312C83.6429 186.54 84.6894 186.106 85.781 186.104H95.1296C96.2212 186.106 97.2677 186.54 98.0395 187.312C98.8114 188.084 99.2455 189.13 99.2468 190.222V268.14C99.2455 269.231 98.8114 270.278 98.0395 271.05C97.2677 271.821 96.2212 272.256 95.1296 272.257Z" fill="#6C63FF"/>
<path d="M113.62 272.257H104.271C103.18 272.256 102.133 271.821 101.362 271.05C100.59 270.278 100.155 269.231 100.154 268.14V190.222C100.155 189.13 100.59 188.084 101.362 187.312C102.133 186.54 103.18 186.106 104.271 186.104H113.62C114.712 186.106 115.758 186.54 116.53 187.312C117.302 188.084 117.736 189.13 117.738 190.222V268.14C117.736 269.231 117.302 270.278 116.53 271.05C115.758 271.821 114.712 272.256 113.62 272.257Z" fill="#6C63FF"/>
<path d="M26.0982 174.981C25.6672 174.981 25.239 174.913 24.8289 174.78C24.3137 174.616 23.8362 174.35 23.4243 174C23.0123 173.649 22.674 173.22 22.4289 172.738L18.1695 164.416C17.9231 163.935 17.774 163.409 17.7306 162.871C17.6872 162.332 17.7504 161.789 17.9166 161.275C18.0828 160.76 18.3487 160.284 18.6991 159.872C19.0495 159.46 19.4776 159.122 19.959 158.875L89.3195 123.374C89.8008 123.128 90.326 122.979 90.8649 122.935C91.4039 122.892 91.9461 122.955 92.4607 123.121C92.9752 123.287 93.452 123.553 93.8638 123.904C94.2756 124.254 94.6143 124.682 94.8606 125.164L99.12 133.486C99.6174 134.458 99.7084 135.587 99.3729 136.626C99.0374 137.665 98.303 138.529 97.3311 139.026L27.97 174.527C27.3909 174.825 26.7493 174.981 26.0982 174.981Z" fill="#6C63FF"/>
<path d="M121.339 138.843C120.36 138.844 119.412 138.494 118.669 137.855L111.565 131.779C110.736 131.069 110.223 130.058 110.138 128.97C110.053 127.882 110.403 126.804 111.111 125.974L161.752 66.755C162.462 65.9262 163.472 65.4131 164.56 65.3282C165.648 65.2433 166.726 65.5936 167.556 66.3022H167.556L174.662 72.3783C175.073 72.7297 175.41 73.1586 175.655 73.6404C175.901 74.1223 176.048 74.6478 176.09 75.1868C176.133 75.7258 176.068 76.2679 175.901 76.7819C175.733 77.296 175.466 77.7721 175.115 78.183L124.475 137.402C124.124 137.814 123.696 138.152 123.213 138.397C122.731 138.643 122.205 138.79 121.666 138.831C121.557 138.839 121.447 138.843 121.339 138.843Z" fill="#6C63FF"/>
<path d="M94.5436 25.683C93.7157 25.682 92.9152 25.3863 92.2856 24.8488C91.6559 24.3113 91.2381 23.5673 91.1072 22.7498C90.9762 21.9324 91.1406 21.095 91.5708 20.3877C92.0011 19.6804 92.6691 19.1495 93.4552 18.8899L102.477 15.9109C103.355 15.6212 104.311 15.6919 105.136 16.1074C105.961 16.5229 106.588 17.2492 106.877 18.1264C107.167 19.0037 107.096 19.9601 106.681 20.7853C106.265 21.6105 105.539 22.2368 104.662 22.5264L95.6397 25.5054C95.2861 25.6228 94.9161 25.6827 94.5436 25.683Z" fill="#2F2E41"/>
<path d="M155.454 200.049H50.0039C49.2801 200.052 48.5685 199.864 47.941 199.503C47.3136 199.142 46.7925 198.622 46.4307 197.995C46.0688 197.368 45.8789 196.657 45.8802 195.933C45.8815 195.21 46.074 194.499 46.4381 193.874L99.1636 102.551C99.3457 102.235 99.5683 101.943 99.8258 101.685L99.836 101.675L99.8403 101.671C100.418 101.097 101.155 100.711 101.955 100.563C102.009 100.553 102.062 100.544 102.116 100.537C102.319 100.507 102.524 100.492 102.729 100.492C103.453 100.488 104.165 100.676 104.791 101.038C105.418 101.4 105.937 101.922 106.295 102.551L159.02 193.874C159.382 194.5 159.572 195.21 159.572 195.932C159.572 196.655 159.382 197.365 159.02 197.991C158.659 198.617 158.139 199.137 157.513 199.498C156.887 199.859 156.177 200.049 155.454 200.049Z" fill="#2F2E41"/>
<path d="M125.697 65.4149L125.662 64.148C128.019 64.0825 130.096 63.9346 131.658 62.794C132.1 62.4522 132.464 62.0192 132.724 61.5242C132.985 61.0293 133.135 60.4841 133.166 59.9257C133.193 59.5846 133.142 59.2416 133.015 58.9237C132.888 58.6057 132.69 58.3212 132.436 58.0923C131.4 57.2164 129.732 57.4997 128.516 58.0577L127.468 58.5383L129.478 43.8492L130.733 44.0212L129.023 56.5162C130.675 56.0306 132.205 56.2391 133.253 57.1249C133.656 57.4762 133.972 57.9159 134.176 58.4095C134.381 58.9031 134.468 59.4373 134.432 59.9703C134.395 60.7205 134.194 61.4536 133.844 62.1181C133.494 62.7826 133.003 63.3625 132.405 63.8171C130.399 65.2831 127.792 65.3561 125.697 65.4149Z" fill="#2F2E41"/>
<path d="M122.227 45.0986H115.404V46.3655H122.227V45.0986Z" fill="#2F2E41"/>
<path d="M101.686 25.9416C100.583 14.9463 93.3566 4.43165 82.3247 1.57008C76.9416 0.140741 71.2266 0.659127 66.1885 3.03372C61.6278 5.33431 58.0423 9.19283 56.082 13.9098C54.1478 18.5761 53.4072 23.651 53.9272 28.6755C54.5162 34.1666 56.269 39.4692 59.0689 44.2295C62.0612 49.5049 65.9522 54.2211 70.0364 58.6807C74.1976 63.2244 78.9056 67.4047 82.4072 72.5059C85.5126 77.03 88.0099 83.1742 84.9494 88.3813C83.7501 90.2905 82.0258 91.8134 79.9831 92.7676C77.9403 93.7218 75.6658 94.0668 73.432 93.7613C72.3361 93.595 71.2766 93.2433 70.2987 92.7212C69.2203 92.1454 68.2593 93.7852 69.3397 94.362C73.4379 96.55 78.5335 96.0542 82.4052 93.5937C86.8678 90.7577 88.8598 85.7525 88.0234 80.5785C87.0698 74.6794 82.9563 69.6144 79.0067 65.3682C74.8811 60.9327 70.5601 56.6974 66.7387 51.9853C62.964 47.3308 59.5938 42.1934 57.5734 36.519C55.8765 31.7772 55.3104 26.7045 55.9202 21.7052C56.5222 16.931 58.3786 12.2004 61.7092 8.6681C63.5505 6.7708 65.7546 5.26336 68.1905 4.23551C70.6264 3.20766 73.2442 2.68041 75.888 2.68516C81.3752 2.61505 86.6955 4.57111 90.8304 8.1789C94.9076 11.8257 97.7846 16.622 99.0825 21.936C99.4141 23.2523 99.6491 24.5911 99.7857 25.9416C99.9066 27.1469 101.808 27.1594 101.686 25.9416V25.9416Z" fill="#2F2E41"/>
</svg>
