<svg width="128" height="253" viewBox="0 0 128 253" fill="none" xmlns="http://www.w3.org/2000/svg">
<path d="M91.2483 124.455L25.8367 82.1166C25.3828 81.8229 24.9911 81.4427 24.6841 80.9976C24.3771 80.5525 24.1608 80.0513 24.0476 79.5226C23.9343 78.9939 23.9264 78.4481 24.0241 77.9163C24.1219 77.3845 24.3234 76.8772 24.6173 76.4234L29.6972 68.575C30.2913 67.6593 31.2243 67.0167 32.2916 66.788C33.3589 66.5594 34.4734 66.7633 35.3905 67.3552L100.802 109.694C101.718 110.288 102.361 111.222 102.589 112.289C102.818 113.356 102.614 114.471 102.022 115.388L96.9419 123.236C96.3479 124.152 95.4148 124.795 94.3473 125.024C93.2799 125.252 92.1653 125.048 91.2483 124.455V124.455Z" fill="#6C63FF"/>
<path d="M91.4402 123.932L64.0963 108.663C63.2435 108.187 62.6068 107.401 62.3183 106.468C62.0298 105.534 62.1116 104.526 62.5468 103.652L68.8814 90.9246C69.1316 90.4219 69.4902 89.9809 69.9312 89.6332C70.3723 89.2856 70.8849 89.0401 71.4322 88.9143C71.9795 88.7884 72.5479 88.7854 73.0964 88.9055C73.645 89.0256 74.1602 89.2658 74.6048 89.6088L100.654 109.701C101.499 110.25 102.092 111.111 102.303 112.095C102.514 113.08 102.327 114.108 101.781 114.955L96.7005 122.805C96.1518 123.651 95.2896 124.245 94.3034 124.456C93.3171 124.668 92.2874 124.479 91.4402 123.932Z" fill="#CCCCCC"/>
<path d="M94.1004 74.8755C112.823 74.8755 128 59.6982 128 40.976C128 22.2538 112.823 7.07642 94.1004 7.07642C75.3782 7.07642 60.2008 22.2538 60.2008 40.976C60.2008 59.6982 75.3782 74.8755 94.1004 74.8755Z" fill="#6C63FF"/>
<path d="M95.3246 248.003V170.085C95.3258 168.993 95.76 167.947 96.5319 167.175C97.3037 166.403 98.3502 165.969 99.4417 165.968H108.791C109.882 165.969 110.929 166.403 111.701 167.175C112.472 167.947 112.907 168.993 112.908 170.085V248.003C112.907 249.095 112.472 250.141 111.701 250.913C110.929 251.685 109.882 252.119 108.791 252.121H99.4417C98.3502 252.119 97.3037 251.685 96.5319 250.913C95.76 250.141 95.3258 249.095 95.3246 248.003Z" fill="#2F2E41"/>
<path d="M76.834 248.003V170.085C76.8352 168.993 77.2694 167.947 78.0413 167.175C78.8131 166.403 79.8596 165.969 80.9511 165.968H90.3001C91.3916 165.969 92.4381 166.403 93.21 167.175C93.9818 167.947 94.416 168.993 94.4172 170.085V248.003C94.416 249.095 93.9818 250.141 93.21 250.913C92.4381 251.685 91.3916 252.119 90.3001 252.121H80.9511C79.8596 252.119 78.8131 251.685 78.0413 250.913C77.2694 250.141 76.8352 249.095 76.834 248.003Z" fill="#2F2E41"/>
<path d="M69.1294 174.811V84.5656C69.1307 83.4741 69.5648 82.4276 70.3367 81.6558C71.1085 80.8839 72.155 80.4497 73.2466 80.4485H97.1169C103.142 80.4553 108.918 82.8517 113.178 87.112C117.439 91.3722 119.835 97.1484 119.842 103.173V174.811C119.841 175.903 119.406 176.949 118.635 177.721C117.863 178.493 116.816 178.927 115.725 178.928H73.2466C72.155 178.927 71.1085 178.493 70.3367 177.721C69.5648 176.949 69.1307 175.903 69.1294 174.811Z" fill="#CCCCCC"/>
<path d="M64.5107 50.3942L64.5459 49.1274C62.1892 49.0618 60.1114 48.914 58.5502 47.7734C58.1076 47.4316 57.7437 46.9985 57.4834 46.5036C57.2231 46.0087 57.0725 45.4635 57.0418 44.9051C57.0144 44.5639 57.066 44.221 57.1926 43.903C57.3193 43.5851 57.5175 43.3006 57.772 43.0717C58.8081 42.1958 60.4758 42.4791 61.6916 43.037L62.7397 43.5177L60.7297 28.8286L59.4746 29.0006L61.1843 41.4956C59.5325 41.01 58.0024 41.2185 56.9543 42.1042C56.5518 42.4556 56.236 42.8952 56.0316 43.3888C55.8272 43.8824 55.7397 44.4166 55.7759 44.9496C55.8129 45.6998 56.0135 46.4329 56.3636 47.0974C56.7138 47.7619 57.205 48.3418 57.8029 48.7965C59.809 50.2625 62.4159 50.3355 64.5107 50.3942Z" fill="#2F2E41"/>
<path d="M74.8035 30.0781H67.9807V31.3449H74.8035V30.0781Z" fill="#2F2E41"/>
<path d="M52.9534 172.856L44.6953 168.474C43.7317 167.961 43.0109 167.087 42.6909 166.043C42.3709 164.999 42.4779 163.872 42.9883 162.907L79.5136 94.0796C80.0267 93.1162 80.9008 92.3955 81.9444 92.0756C82.988 91.7557 84.1158 91.8626 85.0807 92.373L93.3385 96.7555C94.3021 97.2683 95.023 98.1423 95.343 99.1858C95.6631 100.229 95.5561 101.357 95.0457 102.322L58.5202 171.149C58.2674 171.627 57.9227 172.051 57.5059 172.396C57.0891 172.74 56.6083 172.999 56.0911 173.158C55.574 173.317 55.0306 173.372 54.4922 173.32C53.9538 173.268 53.4308 173.111 52.9534 172.856Z" fill="#6C63FF"/>
<path d="M97.6739 102.176L81.6596 130.738C81.2589 131.629 80.5307 132.331 79.6259 132.699C78.7212 133.067 77.7094 133.073 76.8007 132.715L63.5738 127.504C63.0513 127.298 62.5809 126.979 62.1964 126.57C61.812 126.16 61.523 125.671 61.3504 125.137C61.1777 124.602 61.1256 124.036 61.1978 123.479C61.27 122.922 61.4648 122.388 61.768 121.916L79.5331 92.9601C80.0066 92.0712 80.8131 91.4062 81.7759 91.1106C82.7386 90.815 83.7793 90.9129 84.6701 91.3829L96.0968 97.033C96.9873 97.5065 97.6535 98.3141 97.9492 99.2784C98.2449 100.243 98.1459 101.285 97.6739 102.176Z" fill="#CCCCCC"/>
<path d="M4.97014 110.611H36.5188C38.4919 96.0519 34.1385 82.4594 36.5188 72.7531H4.97014C-0.9697 85.3725 -0.9697 97.992 4.97014 110.611Z" fill="#3F3D56"/>
<path d="M84.6325 18.7172C78.8202 19.6257 71.7855 20.5558 67.415 15.6633C66.5501 14.7622 65.946 13.6433 65.6672 12.4258C65.3885 11.2083 65.4455 9.93798 65.8322 8.75037C66.6751 6.34716 68.8483 4.51608 71.128 3.52162C74.5371 2.03451 78.4195 2.12598 82.0614 2.16714C82.3077 2.15861 82.5411 2.05477 82.7123 1.87752C82.8835 1.70027 82.9792 1.46347 82.9792 1.21703C82.9792 0.970591 82.8835 0.733786 82.7123 0.556537C82.5411 0.379289 82.3077 0.275447 82.0614 0.266914C78.3439 0.224894 74.454 0.18944 70.9346 1.56052C68.1646 2.63965 65.5993 4.64006 64.3452 7.39358C61.5959 13.4297 66.6732 19.3245 72.4105 20.7939C76.5966 21.866 80.9432 21.2052 85.1377 20.5496C86.3423 20.3613 85.8308 18.5299 84.6325 18.7172Z" fill="#2F2E41"/>
</svg>
