<svg width="31" height="31" viewBox="0 0 31 31" fill="none" xmlns="http://www.w3.org/2000/svg">
<path d="M11.8526 29.0034C18.2541 29.0034 23.4435 22.6234 23.4435 14.7534C23.4435 6.8833 18.2541 0.503357 11.8526 0.503357C5.45113 0.503357 0.261719 6.8833 0.261719 14.7534C0.261719 22.6234 5.45113 29.0034 11.8526 29.0034Z" fill="#FF6584"/>
<path d="M8.24476 24.6279C6.76909 22.2719 5.89803 19.4338 5.74177 16.4726C5.58551 13.5114 6.15107 10.56 7.36688 7.99167C8.5827 5.42337 10.3942 3.3535 12.5723 2.0438C14.7504 0.734096 17.1972 0.243399 19.6034 0.633748C22.0097 1.0241 24.2672 2.27797 26.0905 4.23679C27.9137 6.19562 29.221 8.77141 29.8468 11.6385C30.4726 14.5055 30.3889 17.5351 29.6063 20.344C28.8237 23.1529 27.3774 25.6151 25.4501 27.4191C22.8645 29.8338 19.6009 30.896 16.3753 30.3728C13.1498 29.8495 10.2258 27.7835 8.24476 24.6279V24.6279ZM26.8859 7.17866C25.5386 5.0275 23.6997 3.41306 21.6018 2.53953C19.5039 1.66599 17.2412 1.5726 15.0999 2.27114C12.9586 2.96967 11.0349 4.42878 9.57187 6.46393C8.10889 8.49909 7.17241 11.0189 6.88087 13.7047C6.58933 16.3905 6.95585 19.1217 7.93402 21.5529C8.91219 23.984 10.4581 26.006 12.3763 27.3631C14.2944 28.7202 16.4987 29.3514 18.7104 29.177C20.922 29.0026 23.0417 28.0303 24.8013 26.3832C27.158 24.172 28.7011 20.9082 29.0919 17.3079C29.4827 13.7076 28.6894 10.0648 26.8859 7.17866V7.17866Z" fill="#3F3D56"/>
</svg>
