<svg width="311" height="212" viewBox="0 0 311 212" fill="none" xmlns="http://www.w3.org/2000/svg">
<path d="M172.123 32.4509L210.963 75.6918L264.09 52.1148L234.967 102.416L273.808 145.657L216.969 133.504L187.847 183.805L181.841 125.993L125.002 113.84L178.129 90.2632L172.123 32.4509Z" fill="#FF6584" fill-opacity="0.5"/>
<path d="M6.23438 64.5547L8.57812 66.2422C7.34375 68.2734 6.70312 70.3984 6.65625 72.6172V75.8516H2.55469V73.1328C2.55469 71.5547 2.89844 69.9766 3.58594 68.3984C4.27344 66.8047 5.15625 65.5234 6.23438 64.5547ZM12.9141 64.5547L15.2578 66.2422C14.0234 68.2734 13.3828 70.3984 13.3359 72.6172V75.8516H9.23438V73.1328C9.23438 71.5547 9.57812 69.9766 10.2656 68.3984C10.9531 66.8047 11.8359 65.5234 12.9141 64.5547Z" fill="black"/>
<path d="M244.766 77.4453L242.422 75.7578C243.656 73.7266 244.297 71.6016 244.344 69.3828V66.1484H248.445V68.8672C248.445 70.4453 248.102 72.0234 247.414 73.6016C246.727 75.1953 245.844 76.4766 244.766 77.4453ZM238.086 77.4453L235.742 75.7578C236.977 73.7266 237.617 71.6016 237.664 69.3828V66.1484H241.766V68.8672C241.766 70.4453 241.422 72.0234 240.734 73.6016C240.047 75.1953 239.164 76.4766 238.086 77.4453Z" fill="black"/>
<path d="M35.9395 87.5312C35.9395 86.2539 35.5938 85.2754 34.9023 84.5957C34.2109 83.916 32.9629 83.2539 31.1582 82.6094C29.3535 81.9648 27.9707 81.291 27.0098 80.5879C26.0605 79.873 25.3457 79.0645 24.8652 78.1621C24.3965 77.248 24.1621 76.2051 24.1621 75.0332C24.1621 73.0059 24.8359 71.3359 26.1836 70.0234C27.543 68.7109 29.3184 68.0547 31.5098 68.0547C33.0098 68.0547 34.3457 68.3945 35.5176 69.0742C36.6895 69.7422 37.5918 70.6738 38.2246 71.8691C38.8574 73.0645 39.1738 74.377 39.1738 75.8066H35.9395C35.9395 74.2246 35.5586 73 34.7969 72.1328C34.0352 71.2656 32.9395 70.832 31.5098 70.832C30.209 70.832 29.2012 71.1953 28.4863 71.9219C27.7715 72.6484 27.4141 73.668 27.4141 74.9805C27.4141 76.0586 27.8008 76.9609 28.5742 77.6875C29.3477 78.4141 30.543 79.0645 32.1602 79.6387C34.6797 80.4707 36.4785 81.4961 37.5566 82.7148C38.6465 83.9336 39.1914 85.5273 39.1914 87.4961C39.1914 89.5703 38.5176 91.2344 37.1699 92.4883C35.8223 93.7305 33.9883 94.3516 31.668 94.3516C30.1797 94.3516 28.8027 94.0293 27.5371 93.3848C26.2832 92.7285 25.293 91.8145 24.5664 90.6426C23.8516 89.459 23.4941 88.1055 23.4941 86.582H26.7285C26.7285 88.1641 27.168 89.3945 28.0469 90.2734C28.9375 91.1523 30.1445 91.5918 31.668 91.5918C33.0859 91.5918 34.1523 91.2285 34.8672 90.502C35.582 89.7754 35.9395 88.7852 35.9395 87.5312ZM47.0664 70.375V74.9805H49.9316V77.4941H47.0664V89.2891C47.0664 90.0391 47.1895 90.6074 47.4355 90.9941C47.6816 91.3809 48.1035 91.5742 48.7012 91.5742C49.1113 91.5742 49.5273 91.5039 49.9492 91.3633L49.9141 94C49.2109 94.2344 48.4902 94.3516 47.752 94.3516C46.5215 94.3516 45.584 93.9121 44.9395 93.0332C44.2949 92.1543 43.9727 90.9121 43.9727 89.3066V77.4941H41.0723V74.9805H43.9727V70.375H47.0664ZM52.6387 83.6113C52.6387 80.8457 53.3066 78.6602 54.6426 77.0547C55.9902 75.4375 57.7656 74.6289 59.9688 74.6289C62.1719 74.6289 63.9414 75.4141 65.2773 76.9844C66.625 78.5547 67.3164 80.6934 67.3516 83.4004V85.4043C67.3516 88.1582 66.6836 90.3379 65.3477 91.9434C64.0117 93.5488 62.2305 94.3516 60.0039 94.3516C57.8008 94.3516 56.0312 93.5723 54.6953 92.0137C53.3711 90.4551 52.6855 88.3457 52.6387 85.6855V83.6113ZM55.75 85.4043C55.75 87.3613 56.1309 88.9023 56.8926 90.0273C57.666 91.1406 58.7031 91.6973 60.0039 91.6973C62.7461 91.6973 64.1582 89.7168 64.2402 85.7559V83.6113C64.2402 81.666 63.8535 80.1309 63.0801 79.0059C62.3066 77.8691 61.2695 77.3008 59.9688 77.3008C58.6914 77.3008 57.666 77.8691 56.8926 79.0059C56.1309 80.1309 55.75 81.6602 55.75 83.5938V85.4043ZM85.1055 85.4043C85.1055 88.416 84.5605 90.6602 83.4707 92.1367C82.3926 93.6133 80.8633 94.3516 78.8828 94.3516C76.9727 94.3516 75.502 93.6309 74.4707 92.1895V101.312H71.377V74.9805H74.1895L74.3477 77.0898C75.3906 75.4492 76.8848 74.6289 78.8301 74.6289C80.916 74.6289 82.4746 75.3555 83.5059 76.8086C84.5371 78.2617 85.0703 80.4355 85.1055 83.3301V85.4043ZM82.0117 83.6289C82.0117 81.4961 81.6836 79.9258 81.0273 78.918C80.3711 77.8984 79.3164 77.3887 77.8633 77.3887C76.375 77.3887 75.2441 78.1328 74.4707 79.6211V89.5176C75.2324 90.9707 76.375 91.6973 77.8984 91.6973C79.3047 91.6973 80.3359 91.1934 80.9922 90.1855C81.6602 89.166 82 87.6133 82.0117 85.5273V83.6289ZM101.453 70.375V74.9805H104.318V77.4941H101.453V89.2891C101.453 90.0391 101.576 90.6074 101.822 90.9941C102.068 91.3809 102.49 91.5742 103.088 91.5742C103.498 91.5742 103.914 91.5039 104.336 91.3633L104.301 94C103.598 94.2344 102.877 94.3516 102.139 94.3516C100.908 94.3516 99.9707 93.9121 99.3262 93.0332C98.6816 92.1543 98.3594 90.9121 98.3594 89.3066V77.4941H95.459V74.9805H98.3594V70.375H101.453ZM111.139 76.9316C112.322 75.3965 113.834 74.6289 115.674 74.6289C119.037 74.6289 120.742 76.873 120.789 81.3613V94H117.695V81.502C117.695 80.0137 117.443 78.959 116.939 78.3379C116.447 77.7051 115.703 77.3887 114.707 77.3887C113.934 77.3887 113.236 77.6465 112.615 78.1621C112.006 78.6777 111.514 79.3516 111.139 80.1836V94H108.027V67H111.139V76.9316ZM132.232 94.3516C129.865 94.3516 128.049 93.6484 126.783 92.2422C125.518 90.8242 124.873 88.75 124.85 86.0195V83.7168C124.85 80.8809 125.465 78.6602 126.695 77.0547C127.938 75.4375 129.666 74.6289 131.881 74.6289C134.107 74.6289 135.771 75.3379 136.873 76.7559C137.975 78.1738 138.537 80.3828 138.561 83.3828V85.4219H127.943V85.8613C127.943 87.9004 128.324 89.3828 129.086 90.3086C129.859 91.2344 130.967 91.6973 132.408 91.6973C133.322 91.6973 134.125 91.5273 134.816 91.1875C135.52 90.8359 136.176 90.2852 136.785 89.5352L138.402 91.5039C137.055 93.4023 134.998 94.3516 132.232 94.3516ZM131.881 77.3008C130.592 77.3008 129.637 77.7461 129.016 78.6367C128.395 79.5156 128.043 80.8867 127.961 82.75H135.449V82.3281C135.367 80.5234 135.039 79.2344 134.465 78.4609C133.902 77.6875 133.041 77.3008 131.881 77.3008ZM154.223 83.9805V94H151.006V68.4062H159.162C161.541 68.4062 163.41 69.1211 164.77 70.5508C166.129 71.9688 166.809 73.8613 166.809 76.2285C166.809 78.6895 166.158 80.5879 164.857 81.9238C163.568 83.248 161.746 83.9336 159.391 83.9805H154.223ZM154.223 81.2207H159.162C160.592 81.2207 161.688 80.793 162.449 79.9375C163.211 79.082 163.592 77.8574 163.592 76.2637C163.592 74.7285 163.199 73.498 162.414 72.5723C161.629 71.6465 160.551 71.1836 159.18 71.1836H154.223V81.2207ZM178.393 77.8984C177.959 77.8164 177.49 77.7754 176.986 77.7754C175.393 77.7754 174.279 78.6484 173.646 80.3945V94H170.535V74.9805H173.559L173.611 76.9141C174.443 75.3906 175.621 74.6289 177.145 74.6289C177.637 74.6289 178.047 74.7109 178.375 74.875L178.393 77.8984ZM187.955 94.3516C185.588 94.3516 183.771 93.6484 182.506 92.2422C181.24 90.8242 180.596 88.75 180.572 86.0195V83.7168C180.572 80.8809 181.188 78.6602 182.418 77.0547C183.66 75.4375 185.389 74.6289 187.604 74.6289C189.83 74.6289 191.494 75.3379 192.596 76.7559C193.697 78.1738 194.26 80.3828 194.283 83.3828V85.4219H183.666V85.8613C183.666 87.9004 184.047 89.3828 184.809 90.3086C185.582 91.2344 186.689 91.6973 188.131 91.6973C189.045 91.6973 189.848 91.5273 190.539 91.1875C191.242 90.8359 191.898 90.2852 192.508 89.5352L194.125 91.5039C192.777 93.4023 190.721 94.3516 187.955 94.3516ZM187.604 77.3008C186.314 77.3008 185.359 77.7461 184.738 78.6367C184.117 79.5156 183.766 80.8867 183.684 82.75H191.172V82.3281C191.09 80.5234 190.762 79.2344 190.188 78.4609C189.625 77.6875 188.764 77.3008 187.604 77.3008ZM207.273 89.1309C207.273 88.4629 207.021 87.8887 206.518 87.4082C206.014 86.9277 205.041 86.3652 203.6 85.7207C201.924 85.0293 200.74 84.4375 200.049 83.9453C199.369 83.4531 198.859 82.8965 198.52 82.2754C198.18 81.6426 198.01 80.8926 198.01 80.0254C198.01 78.4785 198.572 77.1953 199.697 76.1758C200.834 75.1445 202.281 74.6289 204.039 74.6289C205.891 74.6289 207.379 75.168 208.504 76.2461C209.629 77.3242 210.191 78.707 210.191 80.3945H207.098C207.098 79.5391 206.811 78.8125 206.236 78.2148C205.662 77.6055 204.93 77.3008 204.039 77.3008C203.125 77.3008 202.404 77.541 201.877 78.0215C201.361 78.4902 201.104 79.123 201.104 79.9199C201.104 80.5527 201.291 81.0625 201.666 81.4492C202.053 81.8359 202.973 82.3457 204.426 82.9785C206.734 83.8809 208.305 84.7656 209.137 85.6328C209.969 86.4883 210.385 87.5781 210.385 88.9023C210.385 90.5547 209.816 91.8789 208.68 92.875C207.543 93.8594 206.02 94.3516 204.109 94.3516C202.129 94.3516 200.523 93.7832 199.293 92.6465C198.062 91.5098 197.447 90.0684 197.447 88.3223H200.576C200.611 89.377 200.934 90.2031 201.543 90.8008C202.152 91.3984 203.008 91.6973 204.109 91.6973C205.141 91.6973 205.926 91.4688 206.465 91.0117C207.004 90.543 207.273 89.916 207.273 89.1309ZM223.691 89.1309C223.691 88.4629 223.439 87.8887 222.936 87.4082C222.432 86.9277 221.459 86.3652 220.018 85.7207C218.342 85.0293 217.158 84.4375 216.467 83.9453C215.787 83.4531 215.277 82.8965 214.938 82.2754C214.598 81.6426 214.428 80.8926 214.428 80.0254C214.428 78.4785 214.99 77.1953 216.115 76.1758C217.252 75.1445 218.699 74.6289 220.457 74.6289C222.309 74.6289 223.797 75.168 224.922 76.2461C226.047 77.3242 226.609 78.707 226.609 80.3945H223.516C223.516 79.5391 223.229 78.8125 222.654 78.2148C222.08 77.6055 221.348 77.3008 220.457 77.3008C219.543 77.3008 218.822 77.541 218.295 78.0215C217.779 78.4902 217.521 79.123 217.521 79.9199C217.521 80.5527 217.709 81.0625 218.084 81.4492C218.471 81.8359 219.391 82.3457 220.844 82.9785C223.152 83.8809 224.723 84.7656 225.555 85.6328C226.387 86.4883 226.803 87.5781 226.803 88.9023C226.803 90.5547 226.234 91.8789 225.098 92.875C223.961 93.8594 222.438 94.3516 220.527 94.3516C218.547 94.3516 216.941 93.7832 215.711 92.6465C214.48 91.5098 213.865 90.0684 213.865 88.3223H216.994C217.029 89.377 217.352 90.2031 217.961 90.8008C218.57 91.3984 219.426 91.6973 220.527 91.6973C221.559 91.6973 222.344 91.4688 222.883 91.0117C223.422 90.543 223.691 89.916 223.691 89.1309Z" fill="black"/>
</svg>
