<svg width="226" height="231" viewBox="0 0 226 231" fill="none" xmlns="http://www.w3.org/2000/svg">
<path d="M211.95 128.808L211.382 135.489C211.314 136.269 210.94 136.99 210.342 137.495C209.743 138 208.969 138.246 208.188 138.181L152.492 133.444C151.712 133.377 150.99 133.003 150.485 132.404C149.981 131.806 149.734 131.032 149.799 130.252L150.368 123.571C150.435 122.791 150.809 122.07 151.408 121.565C152.007 121.06 152.781 120.814 153.561 120.879L209.258 125.616C210.038 125.683 210.759 126.057 211.264 126.656C211.769 127.254 212.016 128.028 211.95 128.808Z" fill="#6C63FF"/>
<path d="M223.051 161.394L216.882 164.025C215.384 164.664 213.842 164.427 213.446 163.497L199.821 131.573C199.424 130.643 200.32 129.366 201.818 128.727L207.986 126.096C209.484 125.457 211.026 125.694 211.423 126.624L225.048 158.548C225.445 159.479 224.549 160.755 223.051 161.394Z" fill="#6C63FF"/>
<path d="M85.7069 151.02L85.6712 151.278H85.932H190.394C191.298 151.278 192.164 151.637 192.803 152.276C193.443 152.915 193.802 153.782 193.802 154.685V227.366C193.802 228.269 193.443 229.136 192.803 229.775C192.164 230.414 191.298 230.773 190.394 230.773H62.2528C61.3489 230.773 60.4821 230.414 59.843 229.775C59.2039 229.136 58.8448 228.269 58.8448 227.366V185.451V185.12L58.5364 185.239C53.6308 187.117 48.4215 188.078 43.1682 188.073H43.168C34.4237 188.073 25.8879 185.404 18.7018 180.423C11.5158 175.442 6.02203 168.387 2.95511 160.201C-0.111815 152.015 -0.605722 143.088 1.53942 134.614C3.68457 126.139 8.36653 118.522 14.9593 112.779C21.5521 107.037 29.7414 103.443 38.4323 102.479C47.1233 101.514 55.9015 103.226 63.5934 107.383C71.2853 111.541 77.5242 117.947 81.4759 125.745C85.4275 133.543 86.9037 142.361 85.7069 151.02Z" fill="#FAFF00" stroke="black" stroke-width="0.4544"/>
<path d="M198.118 221.461H69.9777C68.8934 221.459 67.8539 221.028 67.0872 220.262C66.3205 219.495 65.8893 218.456 65.8881 217.372V144.692C65.8893 143.608 66.3205 142.569 67.0872 141.802C67.8539 141.036 68.8934 140.605 69.9777 140.603H198.118C199.203 140.605 200.242 141.036 201.009 141.802C201.776 142.569 202.207 143.608 202.208 144.692V217.372C202.207 218.456 201.776 219.495 201.009 220.262C200.242 221.028 199.203 221.459 198.118 221.461ZM69.9777 141.512C69.1344 141.513 68.3259 141.848 67.7296 142.444C67.1333 143.04 66.7978 143.849 66.7969 144.692V217.372C66.7978 218.215 67.1333 219.024 67.7296 219.62C68.3259 220.216 69.1344 220.551 69.9777 220.552H198.118C198.962 220.551 199.77 220.216 200.367 219.62C200.963 219.024 201.298 218.215 201.299 217.372V144.692C201.298 143.849 200.963 143.04 200.367 142.444C199.77 141.848 198.962 141.513 198.118 141.512H69.9777Z" fill="#3F3D56"/>
<path d="M198.318 133.805L197.75 140.486C197.682 141.266 197.308 141.987 196.71 142.492C196.111 142.996 195.337 143.243 194.556 143.177L138.86 138.441C138.08 138.373 137.358 138 136.853 137.401C136.349 136.803 136.102 136.028 136.167 135.248L136.736 128.568C136.803 127.788 137.177 127.067 137.776 126.562C138.375 126.057 139.149 125.811 139.929 125.876L195.626 130.613C196.406 130.68 197.127 131.054 197.632 131.652C198.137 132.251 198.384 133.025 198.318 133.805Z" fill="#6C63FF"/>
<path d="M209.419 166.391L203.25 169.022C201.752 169.661 200.21 169.424 199.814 168.494L186.189 136.57C185.792 135.639 186.688 134.363 188.185 133.724L194.354 131.093C195.852 130.454 197.394 130.691 197.791 131.621L211.416 163.545C211.813 164.475 210.917 165.752 209.419 166.391Z" fill="#6C63FF"/>
<path d="M49.0752 176.944C40.4475 176.944 32.0136 174.386 24.8399 169.594C17.6663 164.803 12.0751 157.992 8.7734 150.024C5.47172 142.055 4.60785 133.287 6.29103 124.828C7.97421 116.368 12.1288 108.598 18.2296 102.499C24.3303 96.4007 32.103 92.2474 40.5649 90.5648C49.0269 88.8821 57.7979 89.7457 65.7688 93.0463C73.7398 96.3469 80.5527 101.936 85.3459 109.108C90.1392 116.279 92.6976 124.71 92.6976 133.335C92.6846 144.897 88.0844 155.981 79.9065 164.157C71.7285 172.332 60.6406 176.931 49.0752 176.944ZM49.0752 90.6353C40.6273 90.6353 32.369 93.1396 25.3448 97.8316C18.3206 102.524 12.8459 109.192 9.61302 116.995C6.38013 124.797 5.53426 133.383 7.18237 141.666C8.83049 149.949 12.8986 157.557 18.8722 163.529C24.8458 169.5 32.4566 173.567 40.7422 175.215C49.0279 176.862 57.6161 176.017 65.421 172.785C73.2259 169.553 79.8969 164.08 84.5903 157.058C89.2837 150.036 91.7888 141.781 91.7888 133.335C91.776 122.014 87.2718 111.161 79.2642 103.156C71.2566 95.151 60.3997 90.6481 49.0752 90.6353Z" fill="#3F3D56"/>
<path d="M143.782 68.6176C157.213 68.6176 168.101 57.733 168.101 44.3063C168.101 30.8795 157.213 19.9949 143.782 19.9949C130.351 19.9949 119.463 30.8795 119.463 44.3063C119.463 57.733 130.351 68.6176 143.782 68.6176Z" fill="#B5B0FF"/>
<path d="M147.361 53.3168L147.335 52.4083C149.026 52.3613 150.517 52.2553 151.637 51.4372C151.954 51.1922 152.215 50.8816 152.402 50.5266C152.589 50.1717 152.697 49.7807 152.719 49.3802C152.738 49.1356 152.701 48.8897 152.61 48.6616C152.52 48.4336 152.377 48.2295 152.195 48.0654C151.451 47.4377 150.255 47.6409 149.383 48.0405L148.631 48.3852L150.073 37.8509L150.973 37.9742L149.747 46.9351C150.932 46.5868 152.03 46.7368 152.781 47.3716C153.07 47.6236 153.297 47.9389 153.443 48.2928C153.59 48.6468 153.653 49.0299 153.627 49.4122C153.6 49.9502 153.456 50.4759 153.205 50.9525C152.954 51.429 152.602 51.8449 152.173 52.171C150.734 53.2223 148.863 53.2747 147.361 53.3168Z" fill="#2F2E41"/>
<path d="M160.321 38.747H155.426V39.6555H160.321V38.747Z" fill="#2F2E41"/>
<path d="M144.871 38.747H139.977V39.6555H144.871V38.747Z" fill="#2F2E41"/>
<path d="M178.579 141.739H121.325C120.783 141.739 120.263 141.523 119.88 141.14C119.496 140.757 119.281 140.237 119.28 139.695V93.715C119.286 88.1414 121.504 82.7978 125.446 78.8567C129.389 74.9156 134.734 72.6987 140.309 72.6924H159.04C159.576 72.693 160.091 72.9039 160.473 73.2797C160.855 73.6556 161.075 74.1664 161.085 74.7024L180.624 139.662V139.695C180.623 140.237 180.408 140.757 180.024 141.14C179.641 141.523 179.121 141.738 178.579 141.739Z" fill="#2F2E41"/>
<path d="M140.547 91.2962L147.254 91.3489C148.037 91.356 148.785 91.6732 149.334 92.2311C149.884 92.789 150.189 93.5419 150.184 94.3247L149.745 150.202C149.738 150.985 149.42 151.733 148.862 152.282C148.304 152.832 147.551 153.137 146.768 153.132L140.061 153.079C139.278 153.072 138.53 152.755 137.981 152.197C137.431 151.639 137.126 150.886 137.131 150.103L137.57 94.2256C137.577 93.4428 137.895 92.6948 138.453 92.1456C139.011 91.5964 139.764 91.291 140.547 91.2962Z" fill="#6C63FF"/>
<path d="M133.821 89.0455C133.821 86.395 134.874 83.8531 136.749 81.9789C138.624 80.1048 141.166 79.0519 143.818 79.0519C146.469 79.0519 149.012 80.1048 150.886 81.9789C152.761 83.8531 153.814 86.395 153.814 89.0455V111.304H133.821V89.0455Z" fill="#2F2E41"/>
<path d="M136.598 32.8558C138.901 30.4867 142.248 30.0793 145.396 30.3371C148.768 30.6132 151.963 31.7329 155.271 32.3558C158.533 32.9701 162.071 33.2453 165.189 31.8845C166.629 31.2382 167.876 30.2297 168.81 28.9576C169.744 27.6854 170.331 26.193 170.516 24.626C170.917 21.3353 170.065 18.0141 168.127 15.3235C165.991 12.3067 162.957 10.097 159.803 8.24216C153.005 4.24381 145.424 0.745198 137.47 0.0984213C130.288 -0.485496 122.673 1.49856 117.621 6.86023C112.885 11.8863 110.87 18.9007 110.45 25.6556C109.915 34.2769 111.928 42.791 112.656 51.3395C113.223 57.9913 113.011 65.9768 107.607 70.7537C102.827 74.979 95.5489 74.9286 89.9135 72.6205C83.2152 69.877 78.5151 63.7182 74.9602 57.6651C74.0552 56.1241 73.2045 54.5522 72.3795 52.9672C71.9744 52.1889 70.7976 52.8772 71.2024 53.655C74.5293 60.0465 78.3991 66.4306 84.2185 70.8595C89.3066 74.732 96.0957 76.5973 102.385 74.9607C105.434 74.1998 108.158 72.4791 110.154 70.0526C112.31 67.3679 113.441 64.0644 113.913 60.6849C114.418 57.0676 114.242 53.4224 113.876 49.8011C113.435 45.4415 112.733 41.1137 112.252 36.7589C111.433 29.3422 111.32 21.6448 114.252 14.6374C115.516 11.5122 117.479 8.71819 119.992 6.47001C122.741 4.15252 126.04 2.57987 129.573 1.90278C137.279 0.304097 145.113 2.46861 152.089 5.73034C155.61 7.30262 158.98 9.19298 162.157 11.3779C164.973 13.3928 167.596 16.0318 168.681 19.3968C169.616 22.2968 169.538 25.7298 167.674 28.2584C165.682 30.9609 162.23 31.6357 159.065 31.473C152.564 31.1388 146.012 27.362 139.471 29.5175C138.019 29.9868 136.702 30.8018 135.634 31.8922C135.022 32.5215 135.985 33.4861 136.598 32.8558Z" fill="#2F2E41"/>
</svg>
