<svg width="1024" height="508" viewBox="0 0 1024 508" fill="none" xmlns="http://www.w3.org/2000/svg">
<path d="M250 8L279.508 167.182L396.946 55.7458L327.254 201.872L487.764 180.746L345.492 258L487.764 335.254L327.254 314.129L396.946 460.254L279.508 348.818L250 508L220.492 348.818L103.054 460.254L172.746 314.129L12.2359 335.254L154.508 258L12.2359 180.746L172.746 201.872L103.054 55.7458L220.492 167.182L250 8Z" fill="#ABD6ED"/>
<circle cx="250" cy="258" r="99.5" fill="#ABD6ED" stroke="#91BCD3"/>
<path d="M190.138 291.297C188.919 291.016 187.56 290.688 186.06 290.312C184.607 289.938 183.294 289.562 182.122 289.188C182.029 289.188 181.794 289.047 181.419 288.766C181.091 288.484 180.927 288.297 180.927 288.203C179.802 287.641 178.747 287.195 177.763 286.867C176.826 286.539 175.982 286.164 175.232 285.742C174.529 285.273 173.966 284.641 173.544 283.844C173.169 283.047 172.982 281.875 172.982 280.328V279.977C172.982 279.883 173.122 279.578 173.404 279.062C173.685 278.547 173.826 278.242 173.826 278.148C174.06 277.164 174.154 276.109 174.107 274.984C174.107 273.812 174.177 272.664 174.318 271.539C174.318 271.492 174.388 271.305 174.529 270.977C174.716 270.602 174.81 270.367 174.81 270.273C174.81 270.227 174.81 270.086 174.81 269.852C174.857 269.617 174.904 269.359 174.951 269.078C174.997 268.797 175.044 268.539 175.091 268.305C175.138 268.023 175.185 267.812 175.232 267.672C175.232 267.578 175.232 267.367 175.232 267.039C175.279 266.664 175.326 266.289 175.372 265.914C175.419 265.539 175.466 265.188 175.513 264.859C175.56 264.484 175.583 264.25 175.583 264.156C175.583 264.109 175.607 263.945 175.654 263.664C175.701 263.383 175.747 263.102 175.794 262.82C175.888 262.539 175.958 262.281 176.005 262.047C176.052 261.766 176.076 261.602 176.076 261.555C176.076 261.461 176.099 261.25 176.146 260.922C176.193 260.594 176.24 260.242 176.286 259.867C176.333 259.445 176.38 259.07 176.427 258.742C176.474 258.367 176.521 258.109 176.568 257.969C176.568 257.828 176.591 257.617 176.638 257.336C176.732 257.008 176.826 256.703 176.919 256.422C177.06 256.141 177.201 255.883 177.341 255.648C177.529 255.414 177.74 255.297 177.974 255.297C178.349 255.297 178.677 255.648 178.958 256.352C179.24 257.055 179.474 257.898 179.661 258.883C179.896 259.82 180.083 260.758 180.224 261.695C180.365 262.633 180.482 263.312 180.576 263.734C180.622 264.016 180.669 264.531 180.716 265.281C180.81 266.031 180.88 266.828 180.927 267.672C181.021 268.516 181.091 269.312 181.138 270.062C181.232 270.766 181.279 271.258 181.279 271.539C181.372 271.633 181.466 271.773 181.56 271.961C181.701 272.148 181.771 272.289 181.771 272.383C182.146 273.18 182.427 273.93 182.615 274.633C182.802 275.336 183.107 276.086 183.529 276.883C183.576 277.023 183.669 277.258 183.81 277.586C183.997 277.867 184.185 278.172 184.372 278.5C184.56 278.781 184.724 279.062 184.865 279.344C185.052 279.625 185.193 279.836 185.286 279.977C185.38 280.023 185.544 280.164 185.779 280.398C186.013 280.633 186.13 280.797 186.13 280.891C186.177 280.938 186.247 281.102 186.341 281.383C186.482 281.617 186.622 281.898 186.763 282.227C186.904 282.508 187.044 282.789 187.185 283.07C187.326 283.305 187.396 283.445 187.396 283.492C187.818 284.102 188.38 284.641 189.083 285.109C189.786 285.578 190.536 286 191.333 286.375C192.13 286.703 192.927 287.031 193.724 287.359C194.521 287.641 195.247 287.922 195.904 288.203C195.997 288.297 196.185 288.484 196.466 288.766C196.794 289.047 197.005 289.188 197.099 289.188H197.802H199.701C199.888 289.188 200.333 289.258 201.036 289.398C201.786 289.492 202.255 289.539 202.443 289.539H204.411C206.146 289.539 207.669 289.328 208.982 288.906C210.341 288.484 211.771 287.969 213.271 287.359C213.599 287.266 214.044 287.172 214.607 287.078C215.216 286.938 215.685 286.727 216.013 286.445C216.107 286.398 216.318 286.234 216.646 285.953C216.974 285.625 217.326 285.273 217.701 284.898C218.076 284.523 218.427 284.148 218.755 283.773C219.13 283.398 219.388 283.141 219.529 283C219.716 282.812 219.974 282.531 220.302 282.156C220.63 281.781 220.958 281.406 221.286 281.031C221.615 280.656 221.896 280.328 222.13 280.047C222.411 279.719 222.576 279.531 222.622 279.484C222.669 279.438 222.716 279.297 222.763 279.062C222.857 278.781 222.951 278.5 223.044 278.219C223.138 277.891 223.208 277.609 223.255 277.375C223.349 277.094 223.419 276.93 223.466 276.883C223.701 276.273 223.911 275.805 224.099 275.477C224.333 275.102 224.521 274.75 224.661 274.422C224.849 274.047 224.99 273.648 225.083 273.227C225.177 272.805 225.224 272.242 225.224 271.539C225.224 270.039 225.177 268.586 225.083 267.18C225.036 265.773 224.966 264.32 224.872 262.82C224.685 261.883 224.31 261.086 223.747 260.43C223.185 259.773 222.646 259.117 222.13 258.461C222.083 258.367 221.896 258.133 221.568 257.758C221.286 257.383 220.958 256.961 220.583 256.492C220.255 256.023 219.927 255.602 219.599 255.227C219.318 254.805 219.154 254.547 219.107 254.453C218.779 254.031 218.474 253.75 218.193 253.609C217.958 253.422 217.701 253.281 217.419 253.188C217.185 253.094 216.904 253 216.576 252.906C216.294 252.812 215.943 252.625 215.521 252.344C215.052 251.969 214.583 251.5 214.115 250.938C213.693 250.375 213.177 249.977 212.568 249.742C212.474 249.695 212.286 249.648 212.005 249.602C211.771 249.555 211.49 249.508 211.161 249.461C210.88 249.414 210.599 249.367 210.318 249.32C210.083 249.273 209.943 249.25 209.896 249.25C209.661 249.156 209.263 249.016 208.701 248.828C208.185 248.641 207.857 248.5 207.716 248.406C207.622 248.312 207.341 248.125 206.872 247.844C206.451 247.562 205.982 247.281 205.466 247C204.997 246.672 204.529 246.391 204.06 246.156C203.638 245.875 203.357 245.711 203.216 245.664C201.997 245.148 200.615 244.773 199.068 244.539C197.568 244.305 196.208 243.953 194.99 243.484C193.771 243.109 192.599 242.594 191.474 241.938C190.396 241.281 189.365 240.602 188.38 239.898C187.255 239.242 186.154 238.539 185.076 237.789C184.044 237.039 182.943 236.336 181.771 235.68C181.771 235.586 181.701 235.492 181.56 235.398C181.466 235.258 181.372 235.188 181.279 235.188C179.122 231.906 177.341 228.555 175.935 225.133C174.529 221.664 173.826 217.891 173.826 213.812V212.477C173.826 212.008 173.849 211.562 173.896 211.141C173.943 210.672 174.083 210.18 174.318 209.664C174.365 209.617 174.435 209.477 174.529 209.242C174.669 208.961 174.81 208.68 174.951 208.398C175.091 208.07 175.232 207.789 175.372 207.555C175.513 207.273 175.583 207.109 175.583 207.062C175.583 207.016 175.607 206.875 175.654 206.641C175.701 206.359 175.747 206.078 175.794 205.797C175.841 205.469 175.888 205.188 175.935 204.953C175.982 204.672 176.029 204.508 176.076 204.461C176.169 204.227 176.286 203.922 176.427 203.547C176.568 203.172 176.732 202.773 176.919 202.352C177.107 201.93 177.318 201.531 177.552 201.156C177.786 200.734 178.044 200.383 178.326 200.102C178.372 200.008 178.536 199.82 178.818 199.539C179.146 199.211 179.474 198.883 179.802 198.555C180.177 198.18 180.505 197.852 180.786 197.57C181.068 197.289 181.232 197.102 181.279 197.008C181.372 197.008 181.466 196.914 181.56 196.727C181.701 196.492 181.771 196.281 181.771 196.094C182.333 194.781 183.083 193.773 184.021 193.07C184.958 192.32 186.083 191.547 187.396 190.75C187.49 190.844 187.607 190.891 187.747 190.891C187.841 190.891 187.888 190.844 187.888 190.75C187.935 190.75 188.029 190.703 188.169 190.609C188.357 190.469 188.544 190.328 188.732 190.188C188.966 190 189.177 189.859 189.365 189.766C189.552 189.625 189.646 189.555 189.646 189.555H189.997H190.982C191.076 189.555 191.38 189.484 191.896 189.344C192.411 189.203 192.951 189.062 193.513 188.922C194.122 188.734 194.685 188.594 195.201 188.5C195.763 188.359 196.115 188.289 196.255 188.289H197.24H199.701C199.841 188.242 200.169 188.195 200.685 188.148C201.201 188.102 201.74 188.055 202.302 188.008C202.911 187.961 203.474 187.914 203.99 187.867C204.552 187.82 204.904 187.797 205.044 187.797H205.396H205.466C205.56 187.797 205.701 187.891 205.888 188.078C206.076 188.219 206.216 188.289 206.31 188.289H208.208H209.052C209.661 188.336 210.388 188.57 211.232 188.992C212.122 189.367 213.013 189.812 213.904 190.328C214.794 190.797 215.661 191.289 216.505 191.805C217.349 192.32 218.052 192.719 218.615 193C218.708 193.094 218.919 193.211 219.247 193.352C219.622 193.445 219.833 193.492 219.88 193.492C220.302 193.727 220.701 194.055 221.076 194.477C221.451 194.852 221.826 195.227 222.201 195.602C222.622 195.977 223.044 196.305 223.466 196.586C223.935 196.867 224.451 197.008 225.013 197.008C225.669 197.008 226.138 196.797 226.419 196.375C226.747 195.953 226.982 195.461 227.122 194.898C227.31 194.336 227.451 193.773 227.544 193.211C227.638 192.602 227.779 192.109 227.966 191.734C227.966 191.594 228.06 191.406 228.247 191.172C228.435 190.938 228.646 190.68 228.88 190.398C229.115 190.117 229.326 189.859 229.513 189.625C229.747 189.391 229.888 189.227 229.935 189.133C230.029 189.039 230.146 188.992 230.286 188.992H230.427C231.083 188.992 231.529 189.32 231.763 189.977C232.044 190.633 232.185 191.219 232.185 191.734V192.508C232.185 192.648 232.138 192.906 232.044 193.281C231.997 193.609 231.927 193.984 231.833 194.406C231.74 194.781 231.646 195.156 231.552 195.531C231.458 195.859 231.388 196.047 231.341 196.094C230.638 201.391 230.286 206.781 230.286 212.266C230.286 213.109 230.31 213.953 230.357 214.797C230.404 215.594 230.427 216.414 230.427 217.258C230.333 217.539 230.216 217.891 230.076 218.312C229.982 218.688 229.818 219.062 229.583 219.438C229.396 219.812 229.161 220.141 228.88 220.422C228.599 220.656 228.294 220.773 227.966 220.773C227.404 220.773 226.958 220.656 226.63 220.422C226.349 220.188 226.115 219.906 225.927 219.578C225.786 219.203 225.669 218.828 225.576 218.453C225.482 218.031 225.365 217.633 225.224 217.258C224.708 215.758 224.193 214.094 223.677 212.266C223.161 210.438 222.646 208.82 222.13 207.414C221.896 206.852 221.497 206.195 220.935 205.445C220.419 204.695 219.81 203.945 219.107 203.195C218.451 202.398 217.794 201.672 217.138 201.016C216.482 200.312 215.943 199.703 215.521 199.188C215.052 198.578 214.607 197.875 214.185 197.078C213.763 196.234 213.224 195.625 212.568 195.25C212.052 194.969 211.443 194.688 210.74 194.406C210.036 194.078 209.31 193.773 208.56 193.492C207.81 193.211 207.06 192.977 206.31 192.789C205.607 192.602 204.974 192.508 204.411 192.508C203.24 192.508 202.091 192.742 200.966 193.211C199.841 193.633 198.669 194.008 197.451 194.336C197.404 194.336 197.263 194.359 197.029 194.406C196.841 194.453 196.607 194.5 196.326 194.547C196.044 194.594 195.786 194.641 195.552 194.688C195.318 194.734 195.13 194.758 194.99 194.758H193.232C193.185 194.805 193.068 194.898 192.88 195.039C192.693 195.18 192.458 195.344 192.177 195.531C191.943 195.719 191.708 195.906 191.474 196.094C191.24 196.281 191.076 196.445 190.982 196.586C189.716 197.711 188.685 198.766 187.888 199.75C187.091 200.734 186.458 201.766 185.99 202.844C185.568 203.875 185.263 205.023 185.076 206.289C184.888 207.555 184.794 209.031 184.794 210.719C184.794 211.094 184.818 211.609 184.865 212.266C184.911 212.922 184.982 213.625 185.076 214.375C185.169 215.078 185.286 215.734 185.427 216.344C185.615 216.953 185.849 217.398 186.13 217.68L191.896 223.234C192.036 223.328 192.224 223.445 192.458 223.586C192.693 223.727 192.951 223.867 193.232 224.008C193.513 224.148 193.771 224.266 194.005 224.359C194.24 224.453 194.404 224.523 194.497 224.57C194.544 224.617 194.685 224.734 194.919 224.922C195.201 225.109 195.482 225.297 195.763 225.484C196.091 225.672 196.372 225.859 196.607 226.047C196.888 226.188 197.052 226.281 197.099 226.328C198.036 226.938 199.044 227.43 200.122 227.805C201.201 228.133 202.232 228.555 203.216 229.07C203.357 229.117 203.615 229.234 203.99 229.422C204.411 229.562 204.833 229.727 205.255 229.914C205.677 230.102 206.076 230.289 206.451 230.477C206.872 230.617 207.154 230.734 207.294 230.828C207.341 230.828 207.529 230.922 207.857 231.109C208.185 231.297 208.536 231.508 208.911 231.742C209.333 231.93 209.708 232.117 210.036 232.305C210.411 232.445 210.669 232.539 210.81 232.586C210.857 232.586 211.021 232.609 211.302 232.656C211.583 232.656 211.888 232.68 212.216 232.727C212.544 232.773 212.849 232.844 213.13 232.938C213.458 232.984 213.669 233.031 213.763 233.078C213.857 233.078 214.068 233.195 214.396 233.43C214.771 233.664 214.982 233.805 215.029 233.852C215.216 233.945 215.521 234.109 215.943 234.344C216.411 234.531 216.88 234.742 217.349 234.977C217.818 235.211 218.263 235.445 218.685 235.68C219.107 235.867 219.388 236.008 219.529 236.102C221.919 237.227 224.122 238.75 226.138 240.672C228.201 242.594 229.958 244.773 231.411 247.211C232.911 249.648 234.083 252.227 234.927 254.945C235.771 257.617 236.193 260.289 236.193 262.961V263.734C236.146 264.203 236.076 264.859 235.982 265.703C235.935 266.5 235.865 267.32 235.771 268.164C235.677 269.008 235.583 269.758 235.49 270.414C235.396 271.07 235.326 271.445 235.279 271.539C235.091 272.57 234.81 273.531 234.435 274.422C234.06 275.266 233.591 276.086 233.029 276.883C232.513 277.68 231.951 278.477 231.341 279.273C230.779 280.07 230.193 280.891 229.583 281.734C229.583 281.781 229.536 281.898 229.443 282.086C229.349 282.227 229.255 282.391 229.161 282.578C229.068 282.766 228.951 282.953 228.81 283.141C228.716 283.328 228.669 283.445 228.669 283.492C228.341 284.102 227.802 284.57 227.052 284.898C226.349 285.227 225.74 285.578 225.224 285.953C225.177 286.047 225.036 286.211 224.802 286.445C224.615 286.68 224.404 286.938 224.169 287.219C223.935 287.453 223.701 287.688 223.466 287.922C223.279 288.109 223.161 288.203 223.115 288.203C222.271 288.766 221.451 289.211 220.654 289.539C219.857 289.867 219.036 290.148 218.193 290.383C217.349 290.617 216.482 290.852 215.591 291.086C214.747 291.273 213.833 291.508 212.849 291.789C211.911 292.07 211.068 292.352 210.318 292.633C209.615 292.914 208.747 293.055 207.716 293.055H206.31C205.701 293.008 204.622 292.891 203.076 292.703C201.529 292.562 199.888 292.398 198.154 292.211C196.466 292.023 194.849 291.859 193.302 291.719C191.802 291.531 190.747 291.391 190.138 291.297Z" fill="#91BCD3"/>
<path d="M236.818 291.641V292.812C236.849 292.906 236.896 293.094 236.958 293.375C237.052 293.656 237.146 293.953 237.24 294.266C237.365 294.547 237.458 294.828 237.521 295.109C237.615 295.391 237.677 295.578 237.708 295.672C237.771 295.734 237.927 295.875 238.177 296.094C238.427 296.312 238.552 296.453 238.552 296.516C238.583 296.547 238.63 296.625 238.693 296.75C238.755 296.875 238.818 297.016 238.88 297.172C238.974 297.297 239.052 297.422 239.115 297.547C239.177 297.641 239.208 297.688 239.208 297.688C239.833 298.5 240.552 299.25 241.365 299.938C242.208 300.625 243.036 301.25 243.849 301.812C244.099 302 244.286 302.109 244.411 302.141C244.536 302.172 244.724 302.188 244.974 302.188C245.38 302.188 245.865 302.016 246.427 301.672C246.99 301.297 247.521 300.859 248.021 300.359C248.552 299.859 249.021 299.344 249.427 298.812C249.865 298.25 250.161 297.781 250.318 297.406C250.349 297.25 250.396 297.109 250.458 296.984C250.49 296.891 250.521 296.797 250.552 296.703C250.583 296.609 250.599 296.547 250.599 296.516C251.005 295.734 251.396 294.953 251.771 294.172C252.146 293.391 252.333 292.547 252.333 291.641C252.333 291.141 252.24 290.547 252.052 289.859C251.896 289.172 251.661 288.484 251.349 287.797C251.036 287.109 250.661 286.5 250.224 285.969C249.786 285.406 249.318 285.031 248.818 284.844C248.755 284.844 248.63 284.812 248.443 284.75C248.286 284.688 248.115 284.641 247.927 284.609C247.74 284.547 247.552 284.484 247.365 284.422C247.208 284.359 247.115 284.328 247.083 284.328C247.052 284.297 246.927 284.234 246.708 284.141C246.49 284.016 246.24 283.891 245.958 283.766C245.677 283.609 245.411 283.469 245.161 283.344C244.943 283.219 244.786 283.156 244.693 283.156C244.599 283.156 244.505 283.141 244.411 283.109C244.349 283.109 244.271 283.109 244.177 283.109C244.083 283.078 244.005 283.062 243.943 283.062C243.599 283.062 243.302 283.094 243.052 283.156C242.833 283.219 242.615 283.312 242.396 283.438C242.177 283.562 241.958 283.703 241.74 283.859C241.521 283.984 241.255 284.141 240.943 284.328C239.536 285.109 238.49 286.125 237.802 287.375C237.146 288.625 236.818 290.047 236.818 291.641ZM234.333 339.219C234.365 339.188 234.521 339.25 234.802 339.406C235.083 339.531 235.396 339.688 235.74 339.875C236.115 340.031 236.458 340.188 236.771 340.344C237.083 340.5 237.286 340.594 237.38 340.625C237.505 340.688 237.724 340.844 238.036 341.094C238.349 341.344 238.521 341.5 238.552 341.562H246.521C246.865 341.281 247.255 341.141 247.693 341.141C248.161 341.141 248.536 341.078 248.818 340.953C249.443 340.734 250.099 340.469 250.786 340.156C251.505 339.844 252.13 339.531 252.661 339.219C253.099 338.969 253.49 338.656 253.833 338.281C254.208 337.906 254.568 337.516 254.911 337.109C255.255 336.703 255.599 336.312 255.943 335.938C256.286 335.531 256.646 335.156 257.021 334.812C257.677 334.25 258.318 333.688 258.943 333.125C259.568 332.531 260.099 331.828 260.536 331.016C260.286 330.234 259.927 329.562 259.458 329C258.99 328.406 258.458 327.875 257.865 327.406C257.302 326.906 256.708 326.422 256.083 325.953C255.49 325.453 254.927 324.906 254.396 324.312C254.365 324.281 254.255 324.156 254.068 323.938C253.911 323.688 253.74 323.438 253.552 323.188C253.365 322.906 253.177 322.656 252.99 322.438C252.802 322.219 252.693 322.078 252.661 322.016C252.505 321.828 252.302 321.656 252.052 321.5C251.833 321.344 251.646 321.203 251.49 321.078C251.427 321.047 251.224 320.969 250.88 320.844C250.536 320.688 250.349 320.594 250.318 320.562C250.255 320.5 250.13 320.391 249.943 320.234C249.786 320.078 249.615 319.922 249.427 319.766C249.24 319.578 249.068 319.406 248.911 319.25C248.755 319.062 248.646 318.922 248.583 318.828C248.021 318.203 247.443 317.484 246.849 316.672C246.255 315.828 245.646 315.172 245.021 314.703C245.021 314.672 244.943 314.609 244.786 314.516C244.661 314.422 244.505 314.328 244.318 314.234C244.161 314.141 244.005 314.047 243.849 313.953C243.693 313.859 243.583 313.797 243.521 313.766L243.286 313.531C243.255 313.5 243.193 313.422 243.099 313.297C243.005 313.172 242.911 313.047 242.818 312.922C242.724 312.766 242.63 312.641 242.536 312.547C242.443 312.422 242.38 312.359 242.349 312.359C242.349 312.297 242.224 312.203 241.974 312.078C241.724 311.922 241.568 311.797 241.505 311.703C241.443 311.672 241.318 311.562 241.13 311.375C240.943 311.188 240.74 310.984 240.521 310.766C240.302 310.516 240.083 310.297 239.865 310.109C239.677 309.891 239.536 309.75 239.443 309.688C239.38 309.656 239.24 309.609 239.021 309.547C238.833 309.453 238.615 309.391 238.365 309.359C238.146 309.297 237.911 309.25 237.661 309.219C237.443 309.156 237.271 309.125 237.146 309.125C236.646 309.125 236.115 309.297 235.552 309.641C234.99 309.984 234.443 310.406 233.911 310.906C233.38 311.375 232.865 311.859 232.365 312.359C231.865 312.859 231.443 313.25 231.099 313.531C230.974 313.594 230.896 313.641 230.865 313.672L230.771 313.766C230.521 314.359 230.302 314.922 230.115 315.453C229.958 315.953 229.677 316.469 229.271 317C229.021 317.312 228.708 317.562 228.333 317.75C227.958 317.906 227.693 318.156 227.536 318.5C227.536 318.531 227.505 318.641 227.443 318.828C227.38 318.984 227.302 319.156 227.208 319.344C227.146 319.531 227.083 319.719 227.021 319.906C226.99 320.094 226.974 320.203 226.974 320.234C226.911 320.266 226.849 320.359 226.786 320.516C226.724 320.672 226.693 320.781 226.693 320.844V322.578C226.693 323.609 226.708 324.609 226.74 325.578C226.771 326.516 226.849 327.453 226.974 328.391C227.13 329.297 227.365 330.188 227.677 331.062C227.99 331.906 228.443 332.75 229.036 333.594C229.286 334.031 229.599 334.438 229.974 334.812C230.38 335.188 230.755 335.578 231.099 335.984C231.286 336.266 231.349 336.5 231.286 336.688C231.255 336.844 231.38 337 231.661 337.156C231.693 337.219 231.88 337.328 232.224 337.484C232.568 337.641 232.771 337.719 232.833 337.719C232.865 337.781 232.943 337.891 233.068 338.047C233.224 338.172 233.38 338.312 233.536 338.469C233.693 338.625 233.849 338.781 234.005 338.938C234.161 339.062 234.271 339.156 234.333 339.219ZM217.318 329.375C217.318 329.312 217.349 329.188 217.411 329C217.474 328.812 217.536 328.625 217.599 328.438C217.661 328.219 217.724 328.031 217.786 327.875C217.849 327.688 217.88 327.578 217.88 327.547C217.88 327.359 217.911 327.016 217.974 326.516C218.068 326.016 218.146 325.484 218.208 324.922C218.271 324.359 218.333 323.828 218.396 323.328C218.458 322.797 218.49 322.438 218.49 322.25C218.958 321.625 219.302 320.953 219.521 320.234C219.771 319.484 220.115 318.797 220.552 318.172C220.583 318.078 220.677 317.922 220.833 317.703C220.99 317.484 221.161 317.25 221.349 317C221.536 316.75 221.708 316.516 221.865 316.297C222.052 316.078 222.193 315.922 222.286 315.828C222.63 315.359 223.021 315 223.458 314.75C223.896 314.469 224.286 314.062 224.63 313.531C224.849 313.125 225.068 312.844 225.286 312.688C225.505 312.5 225.724 312.375 225.943 312.312C226.193 312.219 226.443 312.141 226.693 312.078C226.943 312.016 227.224 311.891 227.536 311.703C227.568 311.703 227.63 311.656 227.724 311.562C227.818 311.438 227.927 311.312 228.052 311.188C228.177 311.031 228.302 310.906 228.427 310.812C228.552 310.688 228.646 310.594 228.708 310.531C229.083 310.219 229.49 309.891 229.927 309.547C230.396 309.172 230.88 308.844 231.38 308.562C231.88 308.25 232.396 308 232.927 307.812C233.458 307.625 234.005 307.531 234.568 307.531C234.724 307.531 234.865 307.531 234.99 307.531C235.115 307.531 235.255 307.562 235.411 307.625C235.568 307.562 235.661 307.5 235.693 307.438C235.724 307.344 235.74 307.219 235.74 307.062V306.922C235.74 306.891 235.708 306.844 235.646 306.781C235.271 306.438 234.802 305.984 234.24 305.422C233.708 304.859 233.177 304.25 232.646 303.594C232.115 302.938 231.646 302.281 231.24 301.625C230.833 300.938 230.568 300.312 230.443 299.75C230.443 299.719 230.427 299.609 230.396 299.422C230.365 299.234 230.333 299.016 230.302 298.766C230.271 298.516 230.24 298.266 230.208 298.016C230.177 297.766 230.161 297.562 230.161 297.406C230.068 296.531 229.88 295.688 229.599 294.875C229.349 294.031 229.224 293.141 229.224 292.203C229.224 291.609 229.318 291.062 229.505 290.562C229.693 290.031 229.911 289.5 230.161 288.969C230.599 288.031 231.005 287.203 231.38 286.484C231.755 285.766 232.161 285.141 232.599 284.609C233.068 284.047 233.615 283.562 234.24 283.156C234.865 282.719 235.63 282.312 236.536 281.938C237.786 281.469 238.943 281.016 240.005 280.578C241.099 280.141 242.333 279.922 243.708 279.922H244.177C244.396 279.922 244.771 279.938 245.302 279.969C245.833 280 246.38 280.031 246.943 280.062C247.536 280.094 248.083 280.125 248.583 280.156C249.115 280.188 249.474 280.203 249.661 280.203C250.755 280.516 251.693 280.875 252.474 281.281C253.255 281.688 253.958 282.172 254.583 282.734C255.24 283.266 255.849 283.875 256.411 284.562C256.974 285.25 257.568 286.031 258.193 286.906C258.474 287.719 258.599 288.453 258.568 289.109C258.568 289.766 258.646 290.609 258.802 291.641C258.802 291.703 258.849 291.859 258.943 292.109C259.068 292.328 259.13 292.453 259.13 292.484V293.281C259.13 294.938 258.833 296.375 258.24 297.594C257.646 298.812 256.849 299.875 255.849 300.781C254.849 301.656 253.693 302.391 252.38 302.984C251.068 303.547 249.693 304.016 248.255 304.391C248.255 304.484 248.193 304.562 248.068 304.625C248.005 304.656 247.958 304.688 247.927 304.719V304.953V305.047C248.021 305.172 248.208 305.422 248.49 305.797C248.771 306.141 249.068 306.516 249.38 306.922C249.693 307.297 249.99 307.672 250.271 308.047C250.552 308.422 250.755 308.672 250.88 308.797C251.224 309.234 251.599 309.562 252.005 309.781C252.411 309.969 252.818 310.219 253.224 310.531C253.255 310.594 253.318 310.688 253.411 310.812C253.536 310.906 253.661 311.031 253.786 311.188C253.943 311.312 254.068 311.438 254.161 311.562C254.286 311.656 254.365 311.703 254.396 311.703L254.771 311.984C254.865 312.047 254.958 312.125 255.052 312.219C255.146 312.281 255.224 312.328 255.286 312.359C255.568 312.516 255.802 312.641 255.99 312.734C256.177 312.828 256.333 312.922 256.458 313.016C256.615 313.078 256.755 313.172 256.88 313.297C257.005 313.422 257.146 313.578 257.302 313.766C257.365 313.859 257.505 314.047 257.724 314.328C257.943 314.609 258.177 314.922 258.427 315.266C258.708 315.609 258.958 315.922 259.177 316.203C259.427 316.484 259.599 316.672 259.693 316.766C259.693 316.922 259.786 317 259.974 317C260.88 317.625 261.677 318.203 262.365 318.734C263.083 319.266 263.849 319.969 264.661 320.844H265.271C265.583 320.844 265.927 320.781 266.302 320.656C266.708 320.5 267.052 320.281 267.333 320C267.333 319.938 267.38 319.828 267.474 319.672C267.568 319.484 267.661 319.297 267.755 319.109C267.849 318.891 267.927 318.703 267.99 318.547C268.083 318.359 268.146 318.234 268.177 318.172C268.177 318.141 268.208 318.078 268.271 317.984C268.365 317.859 268.458 317.734 268.552 317.609C268.677 317.484 268.786 317.359 268.88 317.234C268.974 317.109 269.036 317.031 269.068 317C269.099 316.906 269.177 316.766 269.302 316.578C269.427 316.391 269.552 316.203 269.677 316.016C269.802 315.828 269.911 315.672 270.005 315.547C270.13 315.391 270.208 315.297 270.24 315.266C270.271 315.141 270.349 314.875 270.474 314.469C270.599 314.062 270.724 313.625 270.849 313.156C271.005 312.688 271.13 312.25 271.224 311.844C271.349 311.438 271.411 311.188 271.411 311.094C271.411 309.906 271.052 308.938 270.333 308.188C269.646 307.438 268.88 306.812 268.036 306.312C267.193 305.781 266.411 305.344 265.693 305C265.005 304.625 264.661 304.234 264.661 303.828C264.661 303.641 264.755 303.469 264.943 303.312C265.13 303.156 265.318 303.047 265.505 302.984H267.099C268.286 302.984 269.427 303.062 270.521 303.219C271.646 303.375 272.786 303.484 273.943 303.547H275.958C276.083 303.547 276.302 303.594 276.615 303.688C276.927 303.781 277.115 303.828 277.177 303.828H277.318C277.911 303.828 278.521 303.766 279.146 303.641C279.802 303.516 280.396 303.375 280.927 303.219H281.161H281.255C281.474 303.25 281.849 303.297 282.38 303.359C282.911 303.391 283.474 303.422 284.068 303.453C284.661 303.484 285.224 303.516 285.755 303.547C286.286 303.547 286.646 303.547 286.833 303.547C287.052 303.609 287.302 303.703 287.583 303.828C287.896 303.953 288.193 304.109 288.474 304.297C288.755 304.453 288.99 304.641 289.177 304.859C289.365 305.078 289.458 305.312 289.458 305.562C289.458 305.719 289.38 305.891 289.224 306.078C289.068 306.266 288.958 306.391 288.896 306.453C288.771 306.484 288.552 306.531 288.24 306.594C287.958 306.656 287.63 306.719 287.255 306.781C286.911 306.844 286.583 306.906 286.271 306.969C285.99 307.031 285.786 307.062 285.661 307.062C284.943 307.188 284.193 307.312 283.411 307.438C282.63 307.562 281.849 307.75 281.068 308C280.318 308.25 279.599 308.578 278.911 308.984C278.255 309.359 277.677 309.875 277.177 310.531C277.146 310.594 277.068 310.719 276.943 310.906C276.849 311.062 276.74 311.25 276.615 311.469C276.49 311.656 276.365 311.844 276.24 312.031C276.115 312.188 276.021 312.297 275.958 312.359C275.583 312.828 275.083 313.328 274.458 313.859C273.865 314.391 273.396 314.969 273.052 315.594C273.052 315.656 272.974 315.828 272.818 316.109C272.693 316.391 272.536 316.703 272.349 317.047C272.193 317.359 272.036 317.656 271.88 317.938C271.755 318.219 271.677 318.406 271.646 318.5C271.49 318.781 271.224 319.125 270.849 319.531C270.505 319.906 270.146 320.312 269.771 320.75C269.396 321.156 269.052 321.578 268.74 322.016C268.458 322.422 268.318 322.766 268.318 323.047C268.318 323.641 268.396 324.172 268.552 324.641C268.74 325.078 269.005 325.578 269.349 326.141C269.474 326.359 269.693 326.75 270.005 327.312C270.318 327.844 270.661 328.422 271.036 329.047C271.411 329.641 271.755 330.203 272.068 330.734C272.411 331.266 272.646 331.641 272.771 331.859C272.802 331.953 272.896 332.078 273.052 332.234C273.208 332.359 273.318 332.422 273.38 332.422C273.443 332.484 273.63 332.609 273.943 332.797C274.255 332.984 274.443 333.078 274.505 333.078C274.568 333.109 274.677 333.297 274.833 333.641C275.021 333.953 275.115 334.156 275.115 334.25C275.146 334.312 275.255 334.438 275.443 334.625C275.661 334.812 275.88 335.031 276.099 335.281C276.349 335.5 276.568 335.719 276.755 335.938C276.974 336.125 277.115 336.25 277.177 336.312C277.208 336.344 277.286 336.469 277.411 336.688C277.568 336.875 277.661 337.031 277.693 337.156C278.443 338.344 279.396 339.219 280.552 339.781C281.708 340.344 282.99 340.625 284.396 340.625C284.865 340.625 285.302 340.531 285.708 340.344C286.146 340.156 286.599 340.062 287.068 340.062C287.161 340.062 287.302 340.094 287.49 340.156C287.708 340.219 287.911 340.297 288.099 340.391C288.286 340.484 288.458 340.578 288.615 340.672C288.771 340.766 288.865 340.859 288.896 340.953C288.896 340.953 288.88 341.031 288.849 341.188C288.818 341.312 288.786 341.453 288.755 341.609C288.724 341.766 288.693 341.922 288.661 342.078C288.63 342.234 288.599 342.359 288.568 342.453C288.38 342.953 288.161 343.344 287.911 343.625C287.693 343.906 287.427 344.141 287.115 344.328C286.833 344.516 286.505 344.688 286.13 344.844C285.786 344.969 285.427 345.141 285.052 345.359C284.99 345.391 284.896 345.484 284.771 345.641C284.646 345.797 284.552 345.875 284.49 345.875C284.365 346.031 284.068 346.219 283.599 346.438C283.161 346.625 282.88 346.766 282.755 346.859H280.693H278.677C278.583 346.859 278.411 346.812 278.161 346.719C277.943 346.594 277.786 346.531 277.693 346.531C277.661 346.531 277.536 346.516 277.318 346.484C277.099 346.453 276.849 346.422 276.568 346.391C276.318 346.359 276.083 346.328 275.865 346.297C275.646 346.266 275.505 346.234 275.443 346.203C275.38 346.203 275.24 346.125 275.021 345.969C274.802 345.781 274.552 345.594 274.271 345.406C274.021 345.188 273.771 345 273.521 344.844C273.302 344.656 273.146 344.531 273.052 344.469C272.99 344.469 272.849 344.422 272.63 344.328C272.411 344.203 272.177 344.078 271.927 343.953C271.677 343.797 271.443 343.656 271.224 343.531C271.005 343.406 270.865 343.328 270.802 343.297C270.708 343.234 270.505 343.047 270.193 342.734C269.88 342.391 269.677 342.188 269.583 342.125C269.552 342.062 269.396 341.969 269.115 341.844C268.865 341.719 268.74 341.625 268.74 341.562C268.677 341.5 268.615 341.344 268.552 341.094C268.521 340.844 268.505 340.688 268.505 340.625C268.318 340.25 268.13 339.984 267.943 339.828C267.786 339.641 267.615 339.484 267.427 339.359C267.271 339.234 267.099 339.109 266.911 338.984C266.755 338.828 266.599 338.609 266.443 338.328C266.193 338.016 265.927 337.641 265.646 337.203C265.396 336.734 265.13 336.25 264.849 335.75C264.568 335.25 264.302 334.766 264.052 334.297C263.802 333.828 263.599 333.422 263.443 333.078H262.974H262.599C262.13 333.328 261.74 333.688 261.427 334.156C261.115 334.594 260.818 335.078 260.536 335.609C260.255 336.141 259.974 336.672 259.693 337.203C259.443 337.734 259.146 338.188 258.802 338.562C256.802 340.781 254.708 342.672 252.521 344.234C250.365 345.797 247.865 347.031 245.021 347.938C244.958 348 244.88 348.062 244.786 348.125C244.63 348.219 244.521 348.266 244.458 348.266C244.365 348.328 244.224 348.391 244.036 348.453C243.849 348.516 243.646 348.578 243.427 348.641C243.24 348.703 243.068 348.75 242.911 348.781C242.755 348.844 242.677 348.875 242.677 348.875H239.771C239.74 348.875 239.63 348.891 239.443 348.922C239.286 348.953 239.099 348.969 238.88 348.969C238.693 349 238.505 349.031 238.318 349.062C238.161 349.094 238.068 349.109 238.036 349.109H237.146C236.677 349.109 236.271 349.031 235.927 348.875C235.615 348.719 235.255 348.625 234.849 348.594H232.833C232.552 348.562 232.146 348.453 231.615 348.266C231.083 348.078 230.521 347.844 229.927 347.562C229.365 347.281 228.833 347 228.333 346.719C227.833 346.406 227.474 346.125 227.255 345.875C227.193 345.844 227.083 345.75 226.927 345.594C226.802 345.438 226.646 345.266 226.458 345.078C226.302 344.891 226.161 344.719 226.036 344.562C225.911 344.375 225.833 344.25 225.802 344.188C225.552 343.906 225.255 343.719 224.911 343.625C224.568 343.531 224.271 343.312 224.021 342.969C223.99 342.969 223.943 342.922 223.88 342.828C223.849 342.703 223.802 342.578 223.74 342.453C223.677 342.297 223.615 342.156 223.552 342.031C223.521 341.906 223.49 341.828 223.458 341.797C223.302 341.609 223.115 341.469 222.896 341.375C222.708 341.25 222.521 341.156 222.333 341.094C222.146 341.031 221.974 340.953 221.818 340.859C221.661 340.734 221.521 340.578 221.396 340.391C220.74 339.422 220.193 338.562 219.755 337.812C219.349 337.031 219.021 336.266 218.771 335.516C218.521 334.766 218.318 333.984 218.161 333.172C218.005 332.328 217.833 331.344 217.646 330.219C217.646 330.156 217.583 330 217.458 329.75C217.396 329.625 217.349 329.5 217.318 329.375Z" fill="#91BCD3"/>
<path d="M276.193 304H272.396C272.349 304 271.974 304.047 271.271 304.141C270.615 304.281 270.122 304.398 269.794 304.492C269.747 304.492 269.536 304.562 269.161 304.703C268.786 304.844 268.576 304.914 268.529 304.914C268.388 304.867 268.247 304.797 268.107 304.703C268.013 304.656 267.896 304.609 267.755 304.562C267.661 304.516 267.591 304.492 267.544 304.492H266.138C265.529 304.492 264.966 304.492 264.451 304.492C263.982 304.539 263.443 304.68 262.833 304.914H253.13C252.943 304.914 252.732 304.797 252.497 304.562C252.31 304.375 252.122 304.141 251.935 303.859C251.794 303.578 251.654 303.297 251.513 303.016C251.419 302.688 251.372 302.43 251.372 302.242C251.372 301.398 251.654 300.672 252.216 300.062C252.826 299.453 253.576 299.148 254.466 299.148H264.169C264.966 299.148 265.833 298.961 266.771 298.586C267.708 298.211 268.294 297.578 268.529 296.688C268.529 296.406 268.552 295.984 268.599 295.422C268.646 294.812 268.693 294.18 268.74 293.523C268.786 292.867 268.81 292.258 268.81 291.695C268.857 291.086 268.88 290.664 268.88 290.43V289.094V287.828C268.88 287.547 268.857 286.891 268.81 285.859C268.81 284.828 268.786 283.727 268.74 282.555C268.693 281.383 268.646 280.281 268.599 279.25C268.552 278.219 268.529 277.562 268.529 277.281V257.102C268.529 257.008 268.505 256.867 268.458 256.68C268.411 256.445 268.365 256.211 268.318 255.977C268.271 255.695 268.224 255.461 268.177 255.273C268.13 255.039 268.083 254.898 268.036 254.852V249.438V247.328C267.849 241.141 267.615 235.023 267.333 228.977C267.099 222.883 267.029 216.695 267.122 210.414L266.419 208.797C266.372 208.75 266.232 208.703 265.997 208.656C265.763 208.609 265.482 208.562 265.154 208.516C264.826 208.469 264.474 208.422 264.099 208.375C263.771 208.328 263.513 208.305 263.326 208.305C263.044 208.305 262.576 208.281 261.919 208.234C261.263 208.141 260.536 208.07 259.74 208.023C258.99 207.977 258.286 207.93 257.63 207.883C256.974 207.836 256.505 207.812 256.224 207.812C256.13 207.953 255.919 208.07 255.591 208.164C255.263 208.258 255.052 208.305 254.958 208.305C254.865 208.305 254.654 208.281 254.326 208.234C254.044 208.188 253.716 208.141 253.341 208.094C252.966 208 252.615 207.93 252.286 207.883C252.005 207.836 251.818 207.812 251.724 207.812C251.677 207.812 251.396 207.883 250.88 208.023C250.365 208.164 249.99 208.258 249.755 208.305C248.021 208.68 246.286 208.914 244.552 209.008C242.865 209.055 241.201 209.383 239.56 209.992C239.466 210.039 239.302 210.18 239.068 210.414C238.833 210.648 238.693 210.766 238.646 210.766C238.552 210.906 238.247 211.023 237.732 211.117C237.216 211.211 236.935 211.258 236.888 211.258C235.951 211.633 235.247 212.195 234.779 212.945C234.31 213.695 233.818 214.469 233.302 215.266C233.302 215.312 233.232 215.43 233.091 215.617C232.997 215.805 232.857 216.016 232.669 216.25C232.529 216.438 232.388 216.625 232.247 216.812C232.154 216.953 232.107 217.047 232.107 217.094C231.732 217.656 231.31 218.383 230.841 219.273C230.419 220.164 229.927 221.031 229.365 221.875C228.802 222.719 228.193 223.445 227.536 224.055C226.927 224.664 226.247 224.969 225.497 224.969C225.076 224.969 224.747 224.852 224.513 224.617C224.279 224.336 224.091 224.008 223.951 223.633C223.857 223.258 223.786 222.883 223.74 222.508C223.74 222.086 223.74 221.734 223.74 221.453C223.74 220.141 223.997 218.969 224.513 217.938C225.076 216.859 225.568 215.664 225.99 214.352C226.036 214.211 226.107 213.836 226.201 213.227C226.341 212.617 226.482 211.984 226.622 211.328C226.763 210.672 226.904 210.039 227.044 209.43C227.185 208.82 227.255 208.445 227.255 208.305C227.255 208.258 227.326 208.047 227.466 207.672C227.654 207.297 227.747 207.086 227.747 207.039C227.747 206.898 227.771 206.547 227.818 205.984C227.911 205.375 228.005 204.766 228.099 204.156C228.193 203.5 228.286 202.891 228.38 202.328C228.474 201.719 228.544 201.344 228.591 201.203C228.685 200.734 228.779 200.148 228.872 199.445C229.013 198.742 229.201 198.062 229.435 197.406C229.669 196.75 229.997 196.211 230.419 195.789C230.888 195.32 231.497 195.086 232.247 195.086H232.458L232.81 195.438C232.904 195.578 233.068 195.836 233.302 196.211C233.536 196.539 233.771 196.914 234.005 197.336C234.286 197.711 234.521 198.062 234.708 198.391C234.943 198.719 235.06 198.906 235.06 198.953C235.247 199.188 235.599 199.562 236.115 200.078C236.677 200.594 237.076 200.969 237.31 201.203C237.732 201.578 238.224 201.859 238.786 202.047C239.396 202.234 240.005 202.352 240.615 202.398C241.271 202.445 241.927 202.469 242.583 202.469C243.24 202.469 243.849 202.492 244.411 202.539C244.599 202.539 244.951 202.562 245.466 202.609C246.029 202.656 246.615 202.703 247.224 202.75C247.833 202.797 248.396 202.844 248.911 202.891C249.427 202.938 249.779 202.984 249.966 203.031H293.068C294.427 203.219 295.927 203.359 297.568 203.453C299.255 203.547 300.872 203.594 302.419 203.594C303.122 203.594 303.802 203.57 304.458 203.523C305.115 203.477 305.724 203.453 306.286 203.453C306.38 203.453 306.521 203.547 306.708 203.734C306.896 203.875 307.036 203.945 307.13 203.945H307.482H307.622C307.716 203.945 307.997 203.875 308.466 203.734C308.982 203.547 309.286 203.453 309.38 203.453H310.224C310.74 203.453 311.232 203.477 311.701 203.523C312.169 203.57 312.661 203.594 313.177 203.594C313.646 203.594 314.115 203.57 314.583 203.523C315.052 203.43 315.521 203.266 315.99 203.031C316.177 202.938 316.411 202.797 316.693 202.609C317.021 202.422 317.232 202.281 317.326 202.188C317.466 201.906 317.63 201.461 317.818 200.852C318.005 200.195 318.24 199.562 318.521 198.953C318.849 198.344 319.224 197.828 319.646 197.406C320.068 196.938 320.583 196.75 321.193 196.844C321.24 196.891 321.357 196.961 321.544 197.055C321.732 197.102 321.919 197.172 322.107 197.266C322.341 197.359 322.529 197.453 322.669 197.547C322.857 197.594 322.951 197.641 322.951 197.688C323.091 200.312 323.396 202.914 323.865 205.492C324.333 208.023 324.779 210.531 325.201 213.016C325.294 213.859 325.458 214.633 325.693 215.336C325.974 215.992 326.255 216.672 326.536 217.375C326.818 218.031 327.052 218.734 327.24 219.484C327.474 220.188 327.591 220.984 327.591 221.875C327.591 221.969 327.568 222.156 327.521 222.438C327.521 222.672 327.497 222.93 327.451 223.211C327.404 223.492 327.357 223.773 327.31 224.055C327.31 224.289 327.31 224.477 327.31 224.617C327.216 225.508 326.63 225.953 325.552 225.953C325.318 225.953 325.083 225.859 324.849 225.672C324.661 225.484 324.451 225.273 324.216 225.039C324.029 224.758 323.865 224.5 323.724 224.266C323.583 223.984 323.49 223.797 323.443 223.703C323.396 223.656 323.326 223.516 323.232 223.281C323.138 223.047 323.044 222.812 322.951 222.578C322.857 222.297 322.763 222.062 322.669 221.875C322.576 221.641 322.529 221.5 322.529 221.453C322.529 221.359 322.458 221.195 322.318 220.961C322.224 220.727 322.13 220.609 322.036 220.609C321.521 219.766 320.982 218.898 320.419 218.008C319.904 217.117 319.341 216.227 318.732 215.336C318.169 214.445 317.56 213.625 316.904 212.875C316.247 212.078 315.521 211.375 314.724 210.766C313.693 210.109 312.591 209.617 311.419 209.289C310.247 208.961 309.052 208.727 307.833 208.586C306.615 208.445 305.396 208.375 304.177 208.375C302.958 208.375 301.786 208.352 300.661 208.305C300.521 208.305 300.263 208.281 299.888 208.234C299.56 208.141 299.185 208.07 298.763 208.023C298.388 207.977 298.036 207.93 297.708 207.883C297.38 207.836 297.169 207.812 297.076 207.812C297.029 207.812 296.654 207.812 295.951 207.812C295.247 207.766 294.685 207.742 294.263 207.742H291.169C290.419 207.742 289.622 207.766 288.779 207.812C287.982 207.859 287.208 207.953 286.458 208.094C285.755 208.234 285.122 208.469 284.56 208.797C284.044 209.078 283.693 209.477 283.505 209.992V210.695V212.594C283.411 212.781 283.247 213.109 283.013 213.578C282.779 214 282.661 214.258 282.661 214.352L282.521 214.633C282.474 214.68 282.451 214.75 282.451 214.844V214.914C282.451 215.008 282.451 215.102 282.451 215.195C282.451 215.289 282.474 215.383 282.521 215.477C282.568 215.617 282.615 215.711 282.661 215.758C282.661 215.945 282.661 216.273 282.661 216.742C282.708 217.164 282.755 217.656 282.802 218.219C282.849 218.734 282.896 219.227 282.943 219.695C282.99 220.117 283.013 220.422 283.013 220.609V250C283.247 250.656 283.388 251.289 283.435 251.898C283.482 252.508 283.505 253.094 283.505 253.656V255.062C283.505 256.094 283.411 257.031 283.224 257.875C283.036 258.672 282.943 259.516 282.943 260.406C282.943 260.594 282.943 260.805 282.943 261.039C282.99 261.273 283.013 261.414 283.013 261.461C283.013 261.555 283.036 261.766 283.083 262.094C283.13 262.422 283.177 262.797 283.224 263.219C283.271 263.594 283.318 263.945 283.365 264.273C283.411 264.602 283.458 264.812 283.505 264.906V279.109C283.505 279.203 283.576 279.531 283.716 280.094C283.904 280.656 283.997 280.984 283.997 281.078C283.997 281.172 283.904 281.406 283.716 281.781C283.576 282.156 283.505 282.391 283.505 282.484V283.68V286.844C283.411 287.031 283.294 287.406 283.154 287.969C283.06 288.531 283.013 288.906 283.013 289.094V289.234V289.586C283.013 290.008 283.036 290.594 283.083 291.344C283.13 292.047 283.177 292.75 283.224 293.453C283.271 294.109 283.318 294.719 283.365 295.281C283.411 295.797 283.458 296.102 283.505 296.195C283.552 296.57 283.576 296.969 283.576 297.391C283.622 297.766 283.693 298.117 283.786 298.445C283.927 298.773 284.138 299.055 284.419 299.289C284.701 299.523 285.099 299.641 285.615 299.641H295.318C296.208 299.641 296.935 299.945 297.497 300.555C298.107 301.117 298.411 301.797 298.411 302.594C298.411 303.578 298.083 304.258 297.427 304.633C296.818 305.055 296.044 305.266 295.107 305.266H293.068C292.927 305.266 292.576 305.219 292.013 305.125C291.451 305.078 290.841 304.984 290.185 304.844C289.576 304.75 288.99 304.656 288.427 304.562C287.911 304.516 287.583 304.492 287.443 304.492H283.013C282.966 304.492 282.802 304.469 282.521 304.422C282.24 304.375 281.911 304.305 281.536 304.211C281.208 304.164 280.88 304.117 280.552 304.07C280.271 304.023 280.083 304 279.99 304H276.193Z" fill="#91BCD3"/>
<path d="M327 443C160.081 443 0 383 0 383V446C0 446 84.5 481.5 274.5 472.5C464.5 463.5 514 428 748 409C982 390 1024 477 1024 477V446C1024 446 1003.39 398 781 398C561.607 398 494.918 443 327 443Z" fill="#40677D"/>
<path d="M697 60C863.919 60 1024 0 1024 0V63C1024 63 939.5 98.5 749.5 89.5C559.5 80.5 510 45 276 26C42 7 0 94 0 94V63C0 63 20.6086 15 243 15C462.393 15 529.082 60 697 60Z" fill="#40677D"/>
</svg>
