<svg width="1024" height="170" viewBox="0 0 1024 170" fill="none" xmlns="http://www.w3.org/2000/svg">
<path d="M731.143 83.4051C898.062 83.4051 1024 23.4999 1024 23.4999V170H0V72C0 72 121.441 23.4999 343.832 23.4999C563.225 23.4999 563.225 83.4051 731.143 83.4051Z" fill="#B5E5FF"/>
<path d="M698.5 72.5C865.419 72.5 1024 0 1024 0V46.5C1024 46.5 918.5 81 768 90C617.5 99 408 35 268 36C128 37 6.10352e-05 90 6.10352e-05 90V59C6.10352e-05 59 80.1085 6 302.5 6C521.893 6 530.582 72.5 698.5 72.5Z" fill="#40677D"/>
</svg>
