<svg width="1024" height="382" viewBox="0 0 1024 382" fill="none" xmlns="http://www.w3.org/2000/svg">
<path d="M487 82L504.705 177.509L575.168 110.647L533.353 198.323L629.658 185.647L544.295 232L629.658 278.353L533.353 265.677L575.168 353.353L504.705 286.491L487 382L469.295 286.491L398.832 353.353L440.647 265.677L344.342 278.353L429.705 232L344.342 185.647L440.647 198.323L398.832 110.647L469.295 177.509L487 82Z" fill="#3E717E"/>
<circle cx="487" cy="232" r="59.5" fill="#3E717E" stroke="#40677D"/>
<path d="M455.902 241.648C455.293 241.508 454.613 241.344 453.863 241.156C453.137 240.969 452.48 240.781 451.895 240.594C451.848 240.594 451.73 240.523 451.543 240.383C451.379 240.242 451.297 240.148 451.297 240.102C450.734 239.82 450.207 239.598 449.715 239.434C449.246 239.27 448.824 239.082 448.449 238.871C448.098 238.637 447.816 238.32 447.605 237.922C447.418 237.523 447.324 236.938 447.324 236.164V235.988C447.324 235.941 447.395 235.789 447.535 235.531C447.676 235.273 447.746 235.121 447.746 235.074C447.863 234.582 447.91 234.055 447.887 233.492C447.887 232.906 447.922 232.332 447.992 231.77C447.992 231.746 448.027 231.652 448.098 231.488C448.191 231.301 448.238 231.184 448.238 231.137C448.238 231.113 448.238 231.043 448.238 230.926C448.262 230.809 448.285 230.68 448.309 230.539C448.332 230.398 448.355 230.27 448.379 230.152C448.402 230.012 448.426 229.906 448.449 229.836C448.449 229.789 448.449 229.684 448.449 229.52C448.473 229.332 448.496 229.145 448.52 228.957C448.543 228.77 448.566 228.594 448.59 228.43C448.613 228.242 448.625 228.125 448.625 228.078C448.625 228.055 448.637 227.973 448.66 227.832C448.684 227.691 448.707 227.551 448.73 227.41C448.777 227.27 448.812 227.141 448.836 227.023C448.859 226.883 448.871 226.801 448.871 226.777C448.871 226.73 448.883 226.625 448.906 226.461C448.93 226.297 448.953 226.121 448.977 225.934C449 225.723 449.023 225.535 449.047 225.371C449.07 225.184 449.094 225.055 449.117 224.984C449.117 224.914 449.129 224.809 449.152 224.668C449.199 224.504 449.246 224.352 449.293 224.211C449.363 224.07 449.434 223.941 449.504 223.824C449.598 223.707 449.703 223.648 449.82 223.648C450.008 223.648 450.172 223.824 450.312 224.176C450.453 224.527 450.57 224.949 450.664 225.441C450.781 225.91 450.875 226.379 450.945 226.848C451.016 227.316 451.074 227.656 451.121 227.867C451.145 228.008 451.168 228.266 451.191 228.641C451.238 229.016 451.273 229.414 451.297 229.836C451.344 230.258 451.379 230.656 451.402 231.031C451.449 231.383 451.473 231.629 451.473 231.77C451.52 231.816 451.566 231.887 451.613 231.98C451.684 232.074 451.719 232.145 451.719 232.191C451.906 232.59 452.047 232.965 452.141 233.316C452.234 233.668 452.387 234.043 452.598 234.441C452.621 234.512 452.668 234.629 452.738 234.793C452.832 234.934 452.926 235.086 453.02 235.25C453.113 235.391 453.195 235.531 453.266 235.672C453.359 235.812 453.43 235.918 453.477 235.988C453.523 236.012 453.605 236.082 453.723 236.199C453.84 236.316 453.898 236.398 453.898 236.445C453.922 236.469 453.957 236.551 454.004 236.691C454.074 236.809 454.145 236.949 454.215 237.113C454.285 237.254 454.355 237.395 454.426 237.535C454.496 237.652 454.531 237.723 454.531 237.746C454.742 238.051 455.023 238.32 455.375 238.555C455.727 238.789 456.102 239 456.5 239.188C456.898 239.352 457.297 239.516 457.695 239.68C458.094 239.82 458.457 239.961 458.785 240.102C458.832 240.148 458.926 240.242 459.066 240.383C459.23 240.523 459.336 240.594 459.383 240.594H459.734H460.684C460.777 240.594 461 240.629 461.352 240.699C461.727 240.746 461.961 240.77 462.055 240.77H463.039C463.906 240.77 464.668 240.664 465.324 240.453C466.004 240.242 466.719 239.984 467.469 239.68C467.633 239.633 467.855 239.586 468.137 239.539C468.441 239.469 468.676 239.363 468.84 239.223C468.887 239.199 468.992 239.117 469.156 238.977C469.32 238.812 469.496 238.637 469.684 238.449C469.871 238.262 470.047 238.074 470.211 237.887C470.398 237.699 470.527 237.57 470.598 237.5C470.691 237.406 470.82 237.266 470.984 237.078C471.148 236.891 471.312 236.703 471.477 236.516C471.641 236.328 471.781 236.164 471.898 236.023C472.039 235.859 472.121 235.766 472.145 235.742C472.168 235.719 472.191 235.648 472.215 235.531C472.262 235.391 472.309 235.25 472.355 235.109C472.402 234.945 472.438 234.805 472.461 234.688C472.508 234.547 472.543 234.465 472.566 234.441C472.684 234.137 472.789 233.902 472.883 233.738C473 233.551 473.094 233.375 473.164 233.211C473.258 233.023 473.328 232.824 473.375 232.613C473.422 232.402 473.445 232.121 473.445 231.77C473.445 231.02 473.422 230.293 473.375 229.59C473.352 228.887 473.316 228.16 473.27 227.41C473.176 226.941 472.988 226.543 472.707 226.215C472.426 225.887 472.156 225.559 471.898 225.23C471.875 225.184 471.781 225.066 471.617 224.879C471.477 224.691 471.312 224.48 471.125 224.246C470.961 224.012 470.797 223.801 470.633 223.613C470.492 223.402 470.41 223.273 470.387 223.227C470.223 223.016 470.07 222.875 469.93 222.805C469.812 222.711 469.684 222.641 469.543 222.594C469.426 222.547 469.285 222.5 469.121 222.453C468.98 222.406 468.805 222.312 468.594 222.172C468.359 221.984 468.125 221.75 467.891 221.469C467.68 221.188 467.422 220.988 467.117 220.871C467.07 220.848 466.977 220.824 466.836 220.801C466.719 220.777 466.578 220.754 466.414 220.73C466.273 220.707 466.133 220.684 465.992 220.66C465.875 220.637 465.805 220.625 465.781 220.625C465.664 220.578 465.465 220.508 465.184 220.414C464.926 220.32 464.762 220.25 464.691 220.203C464.645 220.156 464.504 220.062 464.27 219.922C464.059 219.781 463.824 219.641 463.566 219.5C463.332 219.336 463.098 219.195 462.863 219.078C462.652 218.938 462.512 218.855 462.441 218.832C461.832 218.574 461.141 218.387 460.367 218.27C459.617 218.152 458.938 217.977 458.328 217.742C457.719 217.555 457.133 217.297 456.57 216.969C456.031 216.641 455.516 216.301 455.023 215.949C454.461 215.621 453.91 215.27 453.371 214.895C452.855 214.52 452.305 214.168 451.719 213.84C451.719 213.793 451.684 213.746 451.613 213.699C451.566 213.629 451.52 213.594 451.473 213.594C450.395 211.953 449.504 210.277 448.801 208.566C448.098 206.832 447.746 204.945 447.746 202.906V202.238C447.746 202.004 447.758 201.781 447.781 201.57C447.805 201.336 447.875 201.09 447.992 200.832C448.016 200.809 448.051 200.738 448.098 200.621C448.168 200.48 448.238 200.34 448.309 200.199C448.379 200.035 448.449 199.895 448.52 199.777C448.59 199.637 448.625 199.555 448.625 199.531C448.625 199.508 448.637 199.438 448.66 199.32C448.684 199.18 448.707 199.039 448.73 198.898C448.754 198.734 448.777 198.594 448.801 198.477C448.824 198.336 448.848 198.254 448.871 198.23C448.918 198.113 448.977 197.961 449.047 197.773C449.117 197.586 449.199 197.387 449.293 197.176C449.387 196.965 449.492 196.766 449.609 196.578C449.727 196.367 449.855 196.191 449.996 196.051C450.02 196.004 450.102 195.91 450.242 195.77C450.406 195.605 450.57 195.441 450.734 195.277C450.922 195.09 451.086 194.926 451.227 194.785C451.367 194.645 451.449 194.551 451.473 194.504C451.52 194.504 451.566 194.457 451.613 194.363C451.684 194.246 451.719 194.141 451.719 194.047C452 193.391 452.375 192.887 452.844 192.535C453.312 192.16 453.875 191.773 454.531 191.375C454.578 191.422 454.637 191.445 454.707 191.445C454.754 191.445 454.777 191.422 454.777 191.375C454.801 191.375 454.848 191.352 454.918 191.305C455.012 191.234 455.105 191.164 455.199 191.094C455.316 191 455.422 190.93 455.516 190.883C455.609 190.812 455.656 190.777 455.656 190.777H455.832H456.324C456.371 190.777 456.523 190.742 456.781 190.672C457.039 190.602 457.309 190.531 457.59 190.461C457.895 190.367 458.176 190.297 458.434 190.25C458.715 190.18 458.891 190.145 458.961 190.145H459.453H460.684C460.754 190.121 460.918 190.098 461.176 190.074C461.434 190.051 461.703 190.027 461.984 190.004C462.289 189.98 462.57 189.957 462.828 189.934C463.109 189.91 463.285 189.898 463.355 189.898H463.531H463.566C463.613 189.898 463.684 189.945 463.777 190.039C463.871 190.109 463.941 190.145 463.988 190.145H464.938H465.359C465.664 190.168 466.027 190.285 466.449 190.496C466.895 190.684 467.34 190.906 467.785 191.164C468.23 191.398 468.664 191.645 469.086 191.902C469.508 192.16 469.859 192.359 470.141 192.5C470.188 192.547 470.293 192.605 470.457 192.676C470.645 192.723 470.75 192.746 470.773 192.746C470.984 192.863 471.184 193.027 471.371 193.238C471.559 193.426 471.746 193.613 471.934 193.801C472.145 193.988 472.355 194.152 472.566 194.293C472.801 194.434 473.059 194.504 473.34 194.504C473.668 194.504 473.902 194.398 474.043 194.188C474.207 193.977 474.324 193.73 474.395 193.449C474.488 193.168 474.559 192.887 474.605 192.605C474.652 192.301 474.723 192.055 474.816 191.867C474.816 191.797 474.863 191.703 474.957 191.586C475.051 191.469 475.156 191.34 475.273 191.199C475.391 191.059 475.496 190.93 475.59 190.812C475.707 190.695 475.777 190.613 475.801 190.566C475.848 190.52 475.906 190.496 475.977 190.496H476.047C476.375 190.496 476.598 190.66 476.715 190.988C476.855 191.316 476.926 191.609 476.926 191.867V192.254C476.926 192.324 476.902 192.453 476.855 192.641C476.832 192.805 476.797 192.992 476.75 193.203C476.703 193.391 476.656 193.578 476.609 193.766C476.562 193.93 476.527 194.023 476.504 194.047C476.152 196.695 475.977 199.391 475.977 202.133C475.977 202.555 475.988 202.977 476.012 203.398C476.035 203.797 476.047 204.207 476.047 204.629C476 204.77 475.941 204.945 475.871 205.156C475.824 205.344 475.742 205.531 475.625 205.719C475.531 205.906 475.414 206.07 475.273 206.211C475.133 206.328 474.98 206.387 474.816 206.387C474.535 206.387 474.312 206.328 474.148 206.211C474.008 206.094 473.891 205.953 473.797 205.789C473.727 205.602 473.668 205.414 473.621 205.227C473.574 205.016 473.516 204.816 473.445 204.629C473.188 203.879 472.93 203.047 472.672 202.133C472.414 201.219 472.156 200.41 471.898 199.707C471.781 199.426 471.582 199.098 471.301 198.723C471.043 198.348 470.738 197.973 470.387 197.598C470.059 197.199 469.73 196.836 469.402 196.508C469.074 196.156 468.805 195.852 468.594 195.594C468.359 195.289 468.137 194.938 467.926 194.539C467.715 194.117 467.445 193.812 467.117 193.625C466.859 193.484 466.555 193.344 466.203 193.203C465.852 193.039 465.488 192.887 465.113 192.746C464.738 192.605 464.363 192.488 463.988 192.395C463.637 192.301 463.32 192.254 463.039 192.254C462.453 192.254 461.879 192.371 461.316 192.605C460.754 192.816 460.168 193.004 459.559 193.168C459.535 193.168 459.465 193.18 459.348 193.203C459.254 193.227 459.137 193.25 458.996 193.273C458.855 193.297 458.727 193.32 458.609 193.344C458.492 193.367 458.398 193.379 458.328 193.379H457.449C457.426 193.402 457.367 193.449 457.273 193.52C457.18 193.59 457.062 193.672 456.922 193.766C456.805 193.859 456.688 193.953 456.57 194.047C456.453 194.141 456.371 194.223 456.324 194.293C455.691 194.855 455.176 195.383 454.777 195.875C454.379 196.367 454.062 196.883 453.828 197.422C453.617 197.938 453.465 198.512 453.371 199.145C453.277 199.777 453.23 200.516 453.23 201.359C453.23 201.547 453.242 201.805 453.266 202.133C453.289 202.461 453.324 202.812 453.371 203.188C453.418 203.539 453.477 203.867 453.547 204.172C453.641 204.477 453.758 204.699 453.898 204.84L456.781 207.617C456.852 207.664 456.945 207.723 457.062 207.793C457.18 207.863 457.309 207.934 457.449 208.004C457.59 208.074 457.719 208.133 457.836 208.18C457.953 208.227 458.035 208.262 458.082 208.285C458.105 208.309 458.176 208.367 458.293 208.461C458.434 208.555 458.574 208.648 458.715 208.742C458.879 208.836 459.02 208.93 459.137 209.023C459.277 209.094 459.359 209.141 459.383 209.164C459.852 209.469 460.355 209.715 460.895 209.902C461.434 210.066 461.949 210.277 462.441 210.535C462.512 210.559 462.641 210.617 462.828 210.711C463.039 210.781 463.25 210.863 463.461 210.957C463.672 211.051 463.871 211.145 464.059 211.238C464.27 211.309 464.41 211.367 464.48 211.414C464.504 211.414 464.598 211.461 464.762 211.555C464.926 211.648 465.102 211.754 465.289 211.871C465.5 211.965 465.688 212.059 465.852 212.152C466.039 212.223 466.168 212.27 466.238 212.293C466.262 212.293 466.344 212.305 466.484 212.328C466.625 212.328 466.777 212.34 466.941 212.363C467.105 212.387 467.258 212.422 467.398 212.469C467.562 212.492 467.668 212.516 467.715 212.539C467.762 212.539 467.867 212.598 468.031 212.715C468.219 212.832 468.324 212.902 468.348 212.926C468.441 212.973 468.594 213.055 468.805 213.172C469.039 213.266 469.273 213.371 469.508 213.488C469.742 213.605 469.965 213.723 470.176 213.84C470.387 213.934 470.527 214.004 470.598 214.051C471.793 214.613 472.895 215.375 473.902 216.336C474.934 217.297 475.812 218.387 476.539 219.605C477.289 220.824 477.875 222.113 478.297 223.473C478.719 224.809 478.93 226.145 478.93 227.48V227.867C478.906 228.102 478.871 228.43 478.824 228.852C478.801 229.25 478.766 229.66 478.719 230.082C478.672 230.504 478.625 230.879 478.578 231.207C478.531 231.535 478.496 231.723 478.473 231.77C478.379 232.285 478.238 232.766 478.051 233.211C477.863 233.633 477.629 234.043 477.348 234.441C477.09 234.84 476.809 235.238 476.504 235.637C476.223 236.035 475.93 236.445 475.625 236.867C475.625 236.891 475.602 236.949 475.555 237.043C475.508 237.113 475.461 237.195 475.414 237.289C475.367 237.383 475.309 237.477 475.238 237.57C475.191 237.664 475.168 237.723 475.168 237.746C475.004 238.051 474.734 238.285 474.359 238.449C474.008 238.613 473.703 238.789 473.445 238.977C473.422 239.023 473.352 239.105 473.234 239.223C473.141 239.34 473.035 239.469 472.918 239.609C472.801 239.727 472.684 239.844 472.566 239.961C472.473 240.055 472.414 240.102 472.391 240.102C471.969 240.383 471.559 240.605 471.16 240.77C470.762 240.934 470.352 241.074 469.93 241.191C469.508 241.309 469.074 241.426 468.629 241.543C468.207 241.637 467.75 241.754 467.258 241.895C466.789 242.035 466.367 242.176 465.992 242.316C465.641 242.457 465.207 242.527 464.691 242.527H463.988C463.684 242.504 463.145 242.445 462.371 242.352C461.598 242.281 460.777 242.199 459.91 242.105C459.066 242.012 458.258 241.93 457.484 241.859C456.734 241.766 456.207 241.695 455.902 241.648Z" fill="#40677D"/>
<path d="M475.613 239.48V240.359C475.637 240.43 475.672 240.57 475.719 240.781C475.789 240.992 475.859 241.215 475.93 241.449C476.023 241.66 476.094 241.871 476.141 242.082C476.211 242.293 476.258 242.434 476.281 242.504C476.328 242.551 476.445 242.656 476.633 242.82C476.82 242.984 476.914 243.09 476.914 243.137C476.938 243.16 476.973 243.219 477.02 243.312C477.066 243.406 477.113 243.512 477.16 243.629C477.23 243.723 477.289 243.816 477.336 243.91C477.383 243.98 477.406 244.016 477.406 244.016C477.875 244.625 478.414 245.188 479.023 245.703C479.656 246.219 480.277 246.688 480.887 247.109C481.074 247.25 481.215 247.332 481.309 247.355C481.402 247.379 481.543 247.391 481.73 247.391C482.035 247.391 482.398 247.262 482.82 247.004C483.242 246.723 483.641 246.395 484.016 246.02C484.414 245.645 484.766 245.258 485.07 244.859C485.398 244.438 485.621 244.086 485.738 243.805C485.762 243.688 485.797 243.582 485.844 243.488C485.867 243.418 485.891 243.348 485.914 243.277C485.938 243.207 485.949 243.16 485.949 243.137C486.254 242.551 486.547 241.965 486.828 241.379C487.109 240.793 487.25 240.16 487.25 239.48C487.25 239.105 487.18 238.66 487.039 238.145C486.922 237.629 486.746 237.113 486.512 236.598C486.277 236.082 485.996 235.625 485.668 235.227C485.34 234.805 484.988 234.523 484.613 234.383C484.566 234.383 484.473 234.359 484.332 234.312C484.215 234.266 484.086 234.23 483.945 234.207C483.805 234.16 483.664 234.113 483.523 234.066C483.406 234.02 483.336 233.996 483.312 233.996C483.289 233.973 483.195 233.926 483.031 233.855C482.867 233.762 482.68 233.668 482.469 233.574C482.258 233.457 482.059 233.352 481.871 233.258C481.707 233.164 481.59 233.117 481.52 233.117C481.449 233.117 481.379 233.105 481.309 233.082C481.262 233.082 481.203 233.082 481.133 233.082C481.062 233.059 481.004 233.047 480.957 233.047C480.699 233.047 480.477 233.07 480.289 233.117C480.125 233.164 479.961 233.234 479.797 233.328C479.633 233.422 479.469 233.527 479.305 233.645C479.141 233.738 478.941 233.855 478.707 233.996C477.652 234.582 476.867 235.344 476.352 236.281C475.859 237.219 475.613 238.285 475.613 239.48ZM473.75 275.164C473.773 275.141 473.891 275.188 474.102 275.305C474.312 275.398 474.547 275.516 474.805 275.656C475.086 275.773 475.344 275.891 475.578 276.008C475.812 276.125 475.965 276.195 476.035 276.219C476.129 276.266 476.293 276.383 476.527 276.57C476.762 276.758 476.891 276.875 476.914 276.922H482.891C483.148 276.711 483.441 276.605 483.77 276.605C484.121 276.605 484.402 276.559 484.613 276.465C485.082 276.301 485.574 276.102 486.09 275.867C486.629 275.633 487.098 275.398 487.496 275.164C487.824 274.977 488.117 274.742 488.375 274.461C488.656 274.18 488.926 273.887 489.184 273.582C489.441 273.277 489.699 272.984 489.957 272.703C490.215 272.398 490.484 272.117 490.766 271.859C491.258 271.438 491.738 271.016 492.207 270.594C492.676 270.148 493.074 269.621 493.402 269.012C493.215 268.426 492.945 267.922 492.594 267.5C492.242 267.055 491.844 266.656 491.398 266.305C490.977 265.93 490.531 265.566 490.062 265.215C489.617 264.84 489.195 264.43 488.797 263.984C488.773 263.961 488.691 263.867 488.551 263.703C488.434 263.516 488.305 263.328 488.164 263.141C488.023 262.93 487.883 262.742 487.742 262.578C487.602 262.414 487.52 262.309 487.496 262.262C487.379 262.121 487.227 261.992 487.039 261.875C486.875 261.758 486.734 261.652 486.617 261.559C486.57 261.535 486.418 261.477 486.16 261.383C485.902 261.266 485.762 261.195 485.738 261.172C485.691 261.125 485.598 261.043 485.457 260.926C485.34 260.809 485.211 260.691 485.07 260.574C484.93 260.434 484.801 260.305 484.684 260.188C484.566 260.047 484.484 259.941 484.438 259.871C484.016 259.402 483.582 258.863 483.137 258.254C482.691 257.621 482.234 257.129 481.766 256.777C481.766 256.754 481.707 256.707 481.59 256.637C481.496 256.566 481.379 256.496 481.238 256.426C481.121 256.355 481.004 256.285 480.887 256.215C480.77 256.145 480.688 256.098 480.641 256.074L480.465 255.898C480.441 255.875 480.395 255.816 480.324 255.723C480.254 255.629 480.184 255.535 480.113 255.441C480.043 255.324 479.973 255.23 479.902 255.16C479.832 255.066 479.785 255.02 479.762 255.02C479.762 254.973 479.668 254.902 479.48 254.809C479.293 254.691 479.176 254.598 479.129 254.527C479.082 254.504 478.988 254.422 478.848 254.281C478.707 254.141 478.555 253.988 478.391 253.824C478.227 253.637 478.062 253.473 477.898 253.332C477.758 253.168 477.652 253.062 477.582 253.016C477.535 252.992 477.43 252.957 477.266 252.91C477.125 252.84 476.961 252.793 476.773 252.77C476.609 252.723 476.434 252.688 476.246 252.664C476.082 252.617 475.953 252.594 475.859 252.594C475.484 252.594 475.086 252.723 474.664 252.98C474.242 253.238 473.832 253.555 473.434 253.93C473.035 254.281 472.648 254.645 472.273 255.02C471.898 255.395 471.582 255.688 471.324 255.898C471.23 255.945 471.172 255.98 471.148 256.004L471.078 256.074C470.891 256.52 470.727 256.941 470.586 257.34C470.469 257.715 470.258 258.102 469.953 258.5C469.766 258.734 469.531 258.922 469.25 259.062C468.969 259.18 468.77 259.367 468.652 259.625C468.652 259.648 468.629 259.73 468.582 259.871C468.535 259.988 468.477 260.117 468.406 260.258C468.359 260.398 468.312 260.539 468.266 260.68C468.242 260.82 468.23 260.902 468.23 260.926C468.184 260.949 468.137 261.02 468.09 261.137C468.043 261.254 468.02 261.336 468.02 261.383V262.684C468.02 263.457 468.031 264.207 468.055 264.934C468.078 265.637 468.137 266.34 468.23 267.043C468.348 267.723 468.523 268.391 468.758 269.047C468.992 269.68 469.332 270.312 469.777 270.945C469.965 271.273 470.199 271.578 470.48 271.859C470.785 272.141 471.066 272.434 471.324 272.738C471.465 272.949 471.512 273.125 471.465 273.266C471.441 273.383 471.535 273.5 471.746 273.617C471.77 273.664 471.91 273.746 472.168 273.863C472.426 273.98 472.578 274.039 472.625 274.039C472.648 274.086 472.707 274.168 472.801 274.285C472.918 274.379 473.035 274.484 473.152 274.602C473.27 274.719 473.387 274.836 473.504 274.953C473.621 275.047 473.703 275.117 473.75 275.164ZM460.988 267.781C460.988 267.734 461.012 267.641 461.059 267.5C461.105 267.359 461.152 267.219 461.199 267.078C461.246 266.914 461.293 266.773 461.34 266.656C461.387 266.516 461.41 266.434 461.41 266.41C461.41 266.27 461.434 266.012 461.48 265.637C461.551 265.262 461.609 264.863 461.656 264.441C461.703 264.02 461.75 263.621 461.797 263.246C461.844 262.848 461.867 262.578 461.867 262.438C462.219 261.969 462.477 261.465 462.641 260.926C462.828 260.363 463.086 259.848 463.414 259.379C463.438 259.309 463.508 259.191 463.625 259.027C463.742 258.863 463.871 258.688 464.012 258.5C464.152 258.312 464.281 258.137 464.398 257.973C464.539 257.809 464.645 257.691 464.715 257.621C464.973 257.27 465.266 257 465.594 256.812C465.922 256.602 466.215 256.297 466.473 255.898C466.637 255.594 466.801 255.383 466.965 255.266C467.129 255.125 467.293 255.031 467.457 254.984C467.645 254.914 467.832 254.855 468.02 254.809C468.207 254.762 468.418 254.668 468.652 254.527C468.676 254.527 468.723 254.492 468.793 254.422C468.863 254.328 468.945 254.234 469.039 254.141C469.133 254.023 469.227 253.93 469.32 253.859C469.414 253.766 469.484 253.695 469.531 253.648C469.812 253.414 470.117 253.168 470.445 252.91C470.797 252.629 471.16 252.383 471.535 252.172C471.91 251.938 472.297 251.75 472.695 251.609C473.094 251.469 473.504 251.398 473.926 251.398C474.043 251.398 474.148 251.398 474.242 251.398C474.336 251.398 474.441 251.422 474.559 251.469C474.676 251.422 474.746 251.375 474.77 251.328C474.793 251.258 474.805 251.164 474.805 251.047V250.941C474.805 250.918 474.781 250.883 474.734 250.836C474.453 250.578 474.102 250.238 473.68 249.816C473.281 249.395 472.883 248.938 472.484 248.445C472.086 247.953 471.734 247.461 471.43 246.969C471.125 246.453 470.926 245.984 470.832 245.562C470.832 245.539 470.82 245.457 470.797 245.316C470.773 245.176 470.75 245.012 470.727 244.824C470.703 244.637 470.68 244.449 470.656 244.262C470.633 244.074 470.621 243.922 470.621 243.805C470.551 243.148 470.41 242.516 470.199 241.906C470.012 241.273 469.918 240.605 469.918 239.902C469.918 239.457 469.988 239.047 470.129 238.672C470.27 238.273 470.434 237.875 470.621 237.477C470.949 236.773 471.254 236.152 471.535 235.613C471.816 235.074 472.121 234.605 472.449 234.207C472.801 233.785 473.211 233.422 473.68 233.117C474.148 232.789 474.723 232.484 475.402 232.203C476.34 231.852 477.207 231.512 478.004 231.184C478.824 230.855 479.75 230.691 480.781 230.691H481.133C481.297 230.691 481.578 230.703 481.977 230.727C482.375 230.75 482.785 230.773 483.207 230.797C483.652 230.82 484.062 230.844 484.438 230.867C484.836 230.891 485.105 230.902 485.246 230.902C486.066 231.137 486.77 231.406 487.355 231.711C487.941 232.016 488.469 232.379 488.938 232.801C489.43 233.199 489.887 233.656 490.309 234.172C490.73 234.688 491.176 235.273 491.645 235.93C491.855 236.539 491.949 237.09 491.926 237.582C491.926 238.074 491.984 238.707 492.102 239.48C492.102 239.527 492.137 239.645 492.207 239.832C492.301 239.996 492.348 240.09 492.348 240.113V240.711C492.348 241.953 492.125 243.031 491.68 243.945C491.234 244.859 490.637 245.656 489.887 246.336C489.137 246.992 488.27 247.543 487.285 247.988C486.301 248.41 485.27 248.762 484.191 249.043C484.191 249.113 484.145 249.172 484.051 249.219C484.004 249.242 483.969 249.266 483.945 249.289V249.465V249.535C484.016 249.629 484.156 249.816 484.367 250.098C484.578 250.355 484.801 250.637 485.035 250.941C485.27 251.223 485.492 251.504 485.703 251.785C485.914 252.066 486.066 252.254 486.16 252.348C486.418 252.676 486.699 252.922 487.004 253.086C487.309 253.227 487.613 253.414 487.918 253.648C487.941 253.695 487.988 253.766 488.059 253.859C488.152 253.93 488.246 254.023 488.34 254.141C488.457 254.234 488.551 254.328 488.621 254.422C488.715 254.492 488.773 254.527 488.797 254.527L489.078 254.738C489.148 254.785 489.219 254.844 489.289 254.914C489.359 254.961 489.418 254.996 489.465 255.02C489.676 255.137 489.852 255.23 489.992 255.301C490.133 255.371 490.25 255.441 490.344 255.512C490.461 255.559 490.566 255.629 490.66 255.723C490.754 255.816 490.859 255.934 490.977 256.074C491.023 256.145 491.129 256.285 491.293 256.496C491.457 256.707 491.633 256.941 491.82 257.199C492.031 257.457 492.219 257.691 492.383 257.902C492.57 258.113 492.699 258.254 492.77 258.324C492.77 258.441 492.84 258.5 492.98 258.5C493.66 258.969 494.258 259.402 494.773 259.801C495.312 260.199 495.887 260.727 496.496 261.383H496.953C497.188 261.383 497.445 261.336 497.727 261.242C498.031 261.125 498.289 260.961 498.5 260.75C498.5 260.703 498.535 260.621 498.605 260.504C498.676 260.363 498.746 260.223 498.816 260.082C498.887 259.918 498.945 259.777 498.992 259.66C499.062 259.52 499.109 259.426 499.133 259.379C499.133 259.355 499.156 259.309 499.203 259.238C499.273 259.145 499.344 259.051 499.414 258.957C499.508 258.863 499.59 258.77 499.66 258.676C499.73 258.582 499.777 258.523 499.801 258.5C499.824 258.43 499.883 258.324 499.977 258.184C500.07 258.043 500.164 257.902 500.258 257.762C500.352 257.621 500.434 257.504 500.504 257.41C500.598 257.293 500.656 257.223 500.68 257.199C500.703 257.105 500.762 256.906 500.855 256.602C500.949 256.297 501.043 255.969 501.137 255.617C501.254 255.266 501.348 254.938 501.418 254.633C501.512 254.328 501.559 254.141 501.559 254.07C501.559 253.18 501.289 252.453 500.75 251.891C500.234 251.328 499.66 250.859 499.027 250.484C498.395 250.086 497.809 249.758 497.27 249.5C496.754 249.219 496.496 248.926 496.496 248.621C496.496 248.48 496.566 248.352 496.707 248.234C496.848 248.117 496.988 248.035 497.129 247.988H498.324C499.215 247.988 500.07 248.047 500.891 248.164C501.734 248.281 502.59 248.363 503.457 248.41H504.969C505.062 248.41 505.227 248.445 505.461 248.516C505.695 248.586 505.836 248.621 505.883 248.621H505.988C506.434 248.621 506.891 248.574 507.359 248.48C507.852 248.387 508.297 248.281 508.695 248.164H508.871H508.941C509.105 248.188 509.387 248.223 509.785 248.27C510.184 248.293 510.605 248.316 511.051 248.34C511.496 248.363 511.918 248.387 512.316 248.41C512.715 248.41 512.984 248.41 513.125 248.41C513.289 248.457 513.477 248.527 513.688 248.621C513.922 248.715 514.145 248.832 514.355 248.973C514.566 249.09 514.742 249.23 514.883 249.395C515.023 249.559 515.094 249.734 515.094 249.922C515.094 250.039 515.035 250.168 514.918 250.309C514.801 250.449 514.719 250.543 514.672 250.59C514.578 250.613 514.414 250.648 514.18 250.695C513.969 250.742 513.723 250.789 513.441 250.836C513.184 250.883 512.938 250.93 512.703 250.977C512.492 251.023 512.34 251.047 512.246 251.047C511.707 251.141 511.145 251.234 510.559 251.328C509.973 251.422 509.387 251.562 508.801 251.75C508.238 251.938 507.699 252.184 507.184 252.488C506.691 252.77 506.258 253.156 505.883 253.648C505.859 253.695 505.801 253.789 505.707 253.93C505.637 254.047 505.555 254.188 505.461 254.352C505.367 254.492 505.273 254.633 505.18 254.773C505.086 254.891 505.016 254.973 504.969 255.02C504.688 255.371 504.312 255.746 503.844 256.145C503.398 256.543 503.047 256.977 502.789 257.445C502.789 257.492 502.73 257.621 502.613 257.832C502.52 258.043 502.402 258.277 502.262 258.535C502.145 258.77 502.027 258.992 501.91 259.203C501.816 259.414 501.758 259.555 501.734 259.625C501.617 259.836 501.418 260.094 501.137 260.398C500.879 260.68 500.609 260.984 500.328 261.312C500.047 261.617 499.789 261.934 499.555 262.262C499.344 262.566 499.238 262.824 499.238 263.035C499.238 263.48 499.297 263.879 499.414 264.23C499.555 264.559 499.754 264.934 500.012 265.355C500.105 265.52 500.27 265.812 500.504 266.234C500.738 266.633 500.996 267.066 501.277 267.535C501.559 267.98 501.816 268.402 502.051 268.801C502.309 269.199 502.484 269.48 502.578 269.645C502.602 269.715 502.672 269.809 502.789 269.926C502.906 270.02 502.988 270.066 503.035 270.066C503.082 270.113 503.223 270.207 503.457 270.348C503.691 270.488 503.832 270.559 503.879 270.559C503.926 270.582 504.008 270.723 504.125 270.98C504.266 271.215 504.336 271.367 504.336 271.438C504.359 271.484 504.441 271.578 504.582 271.719C504.746 271.859 504.91 272.023 505.074 272.211C505.262 272.375 505.426 272.539 505.566 272.703C505.73 272.844 505.836 272.938 505.883 272.984C505.906 273.008 505.965 273.102 506.059 273.266C506.176 273.406 506.246 273.523 506.27 273.617C506.832 274.508 507.547 275.164 508.414 275.586C509.281 276.008 510.242 276.219 511.297 276.219C511.648 276.219 511.977 276.148 512.281 276.008C512.609 275.867 512.949 275.797 513.301 275.797C513.371 275.797 513.477 275.82 513.617 275.867C513.781 275.914 513.934 275.973 514.074 276.043C514.215 276.113 514.344 276.184 514.461 276.254C514.578 276.324 514.648 276.395 514.672 276.465C514.672 276.465 514.66 276.523 514.637 276.641C514.613 276.734 514.59 276.84 514.566 276.957C514.543 277.074 514.52 277.191 514.496 277.309C514.473 277.426 514.449 277.52 514.426 277.59C514.285 277.965 514.121 278.258 513.934 278.469C513.77 278.68 513.57 278.855 513.336 278.996C513.125 279.137 512.879 279.266 512.598 279.383C512.34 279.477 512.07 279.605 511.789 279.77C511.742 279.793 511.672 279.863 511.578 279.98C511.484 280.098 511.414 280.156 511.367 280.156C511.273 280.273 511.051 280.414 510.699 280.578C510.371 280.719 510.16 280.824 510.066 280.895H508.52H507.008C506.938 280.895 506.809 280.859 506.621 280.789C506.457 280.695 506.34 280.648 506.27 280.648C506.246 280.648 506.152 280.637 505.988 280.613C505.824 280.59 505.637 280.566 505.426 280.543C505.238 280.52 505.062 280.496 504.898 280.473C504.734 280.449 504.629 280.426 504.582 280.402C504.535 280.402 504.43 280.344 504.266 280.227C504.102 280.086 503.914 279.945 503.703 279.805C503.516 279.641 503.328 279.5 503.141 279.383C502.977 279.242 502.859 279.148 502.789 279.102C502.742 279.102 502.637 279.066 502.473 278.996C502.309 278.902 502.133 278.809 501.945 278.715C501.758 278.598 501.582 278.492 501.418 278.398C501.254 278.305 501.148 278.246 501.102 278.223C501.031 278.176 500.879 278.035 500.645 277.801C500.41 277.543 500.258 277.391 500.188 277.344C500.164 277.297 500.047 277.227 499.836 277.133C499.648 277.039 499.555 276.969 499.555 276.922C499.508 276.875 499.461 276.758 499.414 276.57C499.391 276.383 499.379 276.266 499.379 276.219C499.238 275.938 499.098 275.738 498.957 275.621C498.84 275.48 498.711 275.363 498.57 275.27C498.453 275.176 498.324 275.082 498.184 274.988C498.066 274.871 497.949 274.707 497.832 274.496C497.645 274.262 497.445 273.98 497.234 273.652C497.047 273.301 496.848 272.938 496.637 272.562C496.426 272.188 496.227 271.824 496.039 271.473C495.852 271.121 495.699 270.816 495.582 270.559H495.23H494.949C494.598 270.746 494.305 271.016 494.07 271.367C493.836 271.695 493.613 272.059 493.402 272.457C493.191 272.855 492.98 273.254 492.77 273.652C492.582 274.051 492.359 274.391 492.102 274.672C490.602 276.336 489.031 277.754 487.391 278.926C485.773 280.098 483.898 281.023 481.766 281.703C481.719 281.75 481.66 281.797 481.59 281.844C481.473 281.914 481.391 281.949 481.344 281.949C481.273 281.996 481.168 282.043 481.027 282.09C480.887 282.137 480.734 282.184 480.57 282.23C480.43 282.277 480.301 282.312 480.184 282.336C480.066 282.383 480.008 282.406 480.008 282.406H477.828C477.805 282.406 477.723 282.418 477.582 282.441C477.465 282.465 477.324 282.477 477.16 282.477C477.02 282.5 476.879 282.523 476.738 282.547C476.621 282.57 476.551 282.582 476.527 282.582H475.859C475.508 282.582 475.203 282.523 474.945 282.406C474.711 282.289 474.441 282.219 474.137 282.195H472.625C472.414 282.172 472.109 282.09 471.711 281.949C471.312 281.809 470.891 281.633 470.445 281.422C470.023 281.211 469.625 281 469.25 280.789C468.875 280.555 468.605 280.344 468.441 280.156C468.395 280.133 468.312 280.062 468.195 279.945C468.102 279.828 467.984 279.699 467.844 279.559C467.727 279.418 467.621 279.289 467.527 279.172C467.434 279.031 467.375 278.938 467.352 278.891C467.164 278.68 466.941 278.539 466.684 278.469C466.426 278.398 466.203 278.234 466.016 277.977C465.992 277.977 465.957 277.941 465.91 277.871C465.887 277.777 465.852 277.684 465.805 277.59C465.758 277.473 465.711 277.367 465.664 277.273C465.641 277.18 465.617 277.121 465.594 277.098C465.477 276.957 465.336 276.852 465.172 276.781C465.031 276.688 464.891 276.617 464.75 276.57C464.609 276.523 464.48 276.465 464.363 276.395C464.246 276.301 464.141 276.184 464.047 276.043C463.555 275.316 463.145 274.672 462.816 274.109C462.512 273.523 462.266 272.949 462.078 272.387C461.891 271.824 461.738 271.238 461.621 270.629C461.504 269.996 461.375 269.258 461.234 268.414C461.234 268.367 461.188 268.25 461.094 268.062C461.047 267.969 461.012 267.875 460.988 267.781Z" fill="#40677D"/>
<path d="M499.93 249H498.031C498.008 249 497.82 249.023 497.469 249.07C497.141 249.141 496.895 249.199 496.73 249.246C496.707 249.246 496.602 249.281 496.414 249.352C496.227 249.422 496.121 249.457 496.098 249.457C496.027 249.434 495.957 249.398 495.887 249.352C495.84 249.328 495.781 249.305 495.711 249.281C495.664 249.258 495.629 249.246 495.605 249.246H494.902C494.598 249.246 494.316 249.246 494.059 249.246C493.824 249.27 493.555 249.34 493.25 249.457H488.398C488.305 249.457 488.199 249.398 488.082 249.281C487.988 249.188 487.895 249.07 487.801 248.93C487.73 248.789 487.66 248.648 487.59 248.508C487.543 248.344 487.52 248.215 487.52 248.121C487.52 247.699 487.66 247.336 487.941 247.031C488.246 246.727 488.621 246.574 489.066 246.574H493.918C494.316 246.574 494.75 246.48 495.219 246.293C495.688 246.105 495.98 245.789 496.098 245.344C496.098 245.203 496.109 244.992 496.133 244.711C496.156 244.406 496.18 244.09 496.203 243.762C496.227 243.434 496.238 243.129 496.238 242.848C496.262 242.543 496.273 242.332 496.273 242.215V241.547V240.914C496.273 240.773 496.262 240.445 496.238 239.93C496.238 239.414 496.227 238.863 496.203 238.277C496.18 237.691 496.156 237.141 496.133 236.625C496.109 236.109 496.098 235.781 496.098 235.641V225.551C496.098 225.504 496.086 225.434 496.062 225.34C496.039 225.223 496.016 225.105 495.992 224.988C495.969 224.848 495.945 224.73 495.922 224.637C495.898 224.52 495.875 224.449 495.852 224.426V221.719V220.664C495.758 217.57 495.641 214.512 495.5 211.488C495.383 208.441 495.348 205.348 495.395 202.207L495.043 201.398C495.02 201.375 494.949 201.352 494.832 201.328C494.715 201.305 494.574 201.281 494.41 201.258C494.246 201.234 494.07 201.211 493.883 201.188C493.719 201.164 493.59 201.152 493.496 201.152C493.355 201.152 493.121 201.141 492.793 201.117C492.465 201.07 492.102 201.035 491.703 201.012C491.328 200.988 490.977 200.965 490.648 200.941C490.32 200.918 490.086 200.906 489.945 200.906C489.898 200.977 489.793 201.035 489.629 201.082C489.465 201.129 489.359 201.152 489.312 201.152C489.266 201.152 489.16 201.141 488.996 201.117C488.855 201.094 488.691 201.07 488.504 201.047C488.316 201 488.141 200.965 487.977 200.941C487.836 200.918 487.742 200.906 487.695 200.906C487.672 200.906 487.531 200.941 487.273 201.012C487.016 201.082 486.828 201.129 486.711 201.152C485.844 201.34 484.977 201.457 484.109 201.504C483.266 201.527 482.434 201.691 481.613 201.996C481.566 202.02 481.484 202.09 481.367 202.207C481.25 202.324 481.18 202.383 481.156 202.383C481.109 202.453 480.957 202.512 480.699 202.559C480.441 202.605 480.301 202.629 480.277 202.629C479.809 202.816 479.457 203.098 479.223 203.473C478.988 203.848 478.742 204.234 478.484 204.633C478.484 204.656 478.449 204.715 478.379 204.809C478.332 204.902 478.262 205.008 478.168 205.125C478.098 205.219 478.027 205.312 477.957 205.406C477.91 205.477 477.887 205.523 477.887 205.547C477.699 205.828 477.488 206.191 477.254 206.637C477.043 207.082 476.797 207.516 476.516 207.938C476.234 208.359 475.93 208.723 475.602 209.027C475.297 209.332 474.957 209.484 474.582 209.484C474.371 209.484 474.207 209.426 474.09 209.309C473.973 209.168 473.879 209.004 473.809 208.816C473.762 208.629 473.727 208.441 473.703 208.254C473.703 208.043 473.703 207.867 473.703 207.727C473.703 207.07 473.832 206.484 474.09 205.969C474.371 205.43 474.617 204.832 474.828 204.176C474.852 204.105 474.887 203.918 474.934 203.613C475.004 203.309 475.074 202.992 475.145 202.664C475.215 202.336 475.285 202.02 475.355 201.715C475.426 201.41 475.461 201.223 475.461 201.152C475.461 201.129 475.496 201.023 475.566 200.836C475.66 200.648 475.707 200.543 475.707 200.52C475.707 200.449 475.719 200.273 475.742 199.992C475.789 199.688 475.836 199.383 475.883 199.078C475.93 198.75 475.977 198.445 476.023 198.164C476.07 197.859 476.105 197.672 476.129 197.602C476.176 197.367 476.223 197.074 476.27 196.723C476.34 196.371 476.434 196.031 476.551 195.703C476.668 195.375 476.832 195.105 477.043 194.895C477.277 194.66 477.582 194.543 477.957 194.543H478.062L478.238 194.719C478.285 194.789 478.367 194.918 478.484 195.105C478.602 195.27 478.719 195.457 478.836 195.668C478.977 195.855 479.094 196.031 479.188 196.195C479.305 196.359 479.363 196.453 479.363 196.477C479.457 196.594 479.633 196.781 479.891 197.039C480.172 197.297 480.371 197.484 480.488 197.602C480.699 197.789 480.945 197.93 481.227 198.023C481.531 198.117 481.836 198.176 482.141 198.199C482.469 198.223 482.797 198.234 483.125 198.234C483.453 198.234 483.758 198.246 484.039 198.27C484.133 198.27 484.309 198.281 484.566 198.305C484.848 198.328 485.141 198.352 485.445 198.375C485.75 198.398 486.031 198.422 486.289 198.445C486.547 198.469 486.723 198.492 486.816 198.516H508.367C509.047 198.609 509.797 198.68 510.617 198.727C511.461 198.773 512.27 198.797 513.043 198.797C513.395 198.797 513.734 198.785 514.062 198.762C514.391 198.738 514.695 198.727 514.977 198.727C515.023 198.727 515.094 198.773 515.188 198.867C515.281 198.938 515.352 198.973 515.398 198.973H515.574H515.645C515.691 198.973 515.832 198.938 516.066 198.867C516.324 198.773 516.477 198.727 516.523 198.727H516.945C517.203 198.727 517.449 198.738 517.684 198.762C517.918 198.785 518.164 198.797 518.422 198.797C518.656 198.797 518.891 198.785 519.125 198.762C519.359 198.715 519.594 198.633 519.828 198.516C519.922 198.469 520.039 198.398 520.18 198.305C520.344 198.211 520.449 198.141 520.496 198.094C520.566 197.953 520.648 197.73 520.742 197.426C520.836 197.098 520.953 196.781 521.094 196.477C521.258 196.172 521.445 195.914 521.656 195.703C521.867 195.469 522.125 195.375 522.43 195.422C522.453 195.445 522.512 195.48 522.605 195.527C522.699 195.551 522.793 195.586 522.887 195.633C523.004 195.68 523.098 195.727 523.168 195.773C523.262 195.797 523.309 195.82 523.309 195.844C523.379 197.156 523.531 198.457 523.766 199.746C524 201.012 524.223 202.266 524.434 203.508C524.48 203.93 524.562 204.316 524.68 204.668C524.82 204.996 524.961 205.336 525.102 205.688C525.242 206.016 525.359 206.367 525.453 206.742C525.57 207.094 525.629 207.492 525.629 207.938C525.629 207.984 525.617 208.078 525.594 208.219C525.594 208.336 525.582 208.465 525.559 208.605C525.535 208.746 525.512 208.887 525.488 209.027C525.488 209.145 525.488 209.238 525.488 209.309C525.441 209.754 525.148 209.977 524.609 209.977C524.492 209.977 524.375 209.93 524.258 209.836C524.164 209.742 524.059 209.637 523.941 209.52C523.848 209.379 523.766 209.25 523.695 209.133C523.625 208.992 523.578 208.898 523.555 208.852C523.531 208.828 523.496 208.758 523.449 208.641C523.402 208.523 523.355 208.406 523.309 208.289C523.262 208.148 523.215 208.031 523.168 207.938C523.121 207.82 523.098 207.75 523.098 207.727C523.098 207.68 523.062 207.598 522.992 207.48C522.945 207.363 522.898 207.305 522.852 207.305C522.594 206.883 522.324 206.449 522.043 206.004C521.785 205.559 521.504 205.113 521.199 204.668C520.918 204.223 520.613 203.812 520.285 203.438C519.957 203.039 519.594 202.688 519.195 202.383C518.68 202.055 518.129 201.809 517.543 201.645C516.957 201.48 516.359 201.363 515.75 201.293C515.141 201.223 514.531 201.188 513.922 201.188C513.312 201.188 512.727 201.176 512.164 201.152C512.094 201.152 511.965 201.141 511.777 201.117C511.613 201.07 511.426 201.035 511.215 201.012C511.027 200.988 510.852 200.965 510.688 200.941C510.523 200.918 510.418 200.906 510.371 200.906C510.348 200.906 510.16 200.906 509.809 200.906C509.457 200.883 509.176 200.871 508.965 200.871H507.418C507.043 200.871 506.645 200.883 506.223 200.906C505.824 200.93 505.438 200.977 505.062 201.047C504.711 201.117 504.395 201.234 504.113 201.398C503.855 201.539 503.68 201.738 503.586 201.996V202.348V203.297C503.539 203.391 503.457 203.555 503.34 203.789C503.223 204 503.164 204.129 503.164 204.176L503.094 204.316C503.07 204.34 503.059 204.375 503.059 204.422V204.457C503.059 204.504 503.059 204.551 503.059 204.598C503.059 204.645 503.07 204.691 503.094 204.738C503.117 204.809 503.141 204.855 503.164 204.879C503.164 204.973 503.164 205.137 503.164 205.371C503.188 205.582 503.211 205.828 503.234 206.109C503.258 206.367 503.281 206.613 503.305 206.848C503.328 207.059 503.34 207.211 503.34 207.305V222C503.457 222.328 503.527 222.645 503.551 222.949C503.574 223.254 503.586 223.547 503.586 223.828V224.531C503.586 225.047 503.539 225.516 503.445 225.938C503.352 226.336 503.305 226.758 503.305 227.203C503.305 227.297 503.305 227.402 503.305 227.52C503.328 227.637 503.34 227.707 503.34 227.73C503.34 227.777 503.352 227.883 503.375 228.047C503.398 228.211 503.422 228.398 503.445 228.609C503.469 228.797 503.492 228.973 503.516 229.137C503.539 229.301 503.562 229.406 503.586 229.453V236.555C503.586 236.602 503.621 236.766 503.691 237.047C503.785 237.328 503.832 237.492 503.832 237.539C503.832 237.586 503.785 237.703 503.691 237.891C503.621 238.078 503.586 238.195 503.586 238.242V238.84V240.422C503.539 240.516 503.48 240.703 503.41 240.984C503.363 241.266 503.34 241.453 503.34 241.547V241.617V241.793C503.34 242.004 503.352 242.297 503.375 242.672C503.398 243.023 503.422 243.375 503.445 243.727C503.469 244.055 503.492 244.359 503.516 244.641C503.539 244.898 503.562 245.051 503.586 245.098C503.609 245.285 503.621 245.484 503.621 245.695C503.645 245.883 503.68 246.059 503.727 246.223C503.797 246.387 503.902 246.527 504.043 246.645C504.184 246.762 504.383 246.82 504.641 246.82H509.492C509.938 246.82 510.301 246.973 510.582 247.277C510.887 247.559 511.039 247.898 511.039 248.297C511.039 248.789 510.875 249.129 510.547 249.316C510.242 249.527 509.855 249.633 509.387 249.633H508.367C508.297 249.633 508.121 249.609 507.84 249.562C507.559 249.539 507.254 249.492 506.926 249.422C506.621 249.375 506.328 249.328 506.047 249.281C505.789 249.258 505.625 249.246 505.555 249.246H503.34C503.316 249.246 503.234 249.234 503.094 249.211C502.953 249.188 502.789 249.152 502.602 249.105C502.438 249.082 502.273 249.059 502.109 249.035C501.969 249.012 501.875 249 501.828 249H499.93Z" fill="#40677D"/>
<path d="M697 60C863.919 60 1024 0 1024 0V63C1024 63 939.5 98.5 749.5 89.5C559.5 80.5 510 45 276 26C42 7 0 94 0 94V63C0 63 20.6086 15 243 15C462.393 15 529.082 60 697 60Z" fill="#3E717E"/>
</svg>
