<svg width="100" height="100" viewBox="0 0 100 100" fill="none" xmlns="http://www.w3.org/2000/svg">
<path d="M50 0L55.9017 31.8364L79.3893 9.54915L65.4509 38.7743L97.5528 34.5491L69.0983 50L97.5528 65.4509L65.4509 61.2257L79.3893 90.4509L55.9017 68.1636L50 100L44.0983 68.1636L20.6107 90.4509L34.5491 61.2257L2.44717 65.4509L30.9017 50L2.44717 34.5491L34.5491 38.7743L20.6107 9.54915L44.0983 31.8364L50 0Z" fill="#FF9256"/>
<circle cx="50" cy="50" r="19.5" fill="#FFD7C2" stroke="#3E717E"/>
<path d="M37.3008 55.8828C37.0977 55.8359 36.8711 55.7812 36.6211 55.7188C36.3789 55.6562 36.1602 55.5938 35.9648 55.5312C35.9492 55.5312 35.9102 55.5078 35.8477 55.4609C35.793 55.4141 35.7656 55.3828 35.7656 55.3672C35.5781 55.2734 35.4023 55.1992 35.2383 55.1445C35.082 55.0898 34.9414 55.0273 34.8164 54.957C34.6992 54.8789 34.6055 54.7734 34.5352 54.6406C34.4727 54.5078 34.4414 54.3125 34.4414 54.0547V53.9961C34.4414 53.9805 34.4648 53.9297 34.5117 53.8438C34.5586 53.7578 34.582 53.707 34.582 53.6914C34.6211 53.5273 34.6367 53.3516 34.6289 53.1641C34.6289 52.9688 34.6406 52.7773 34.6641 52.5898C34.6641 52.582 34.6758 52.5508 34.6992 52.4961C34.7305 52.4336 34.7461 52.3945 34.7461 52.3789C34.7461 52.3711 34.7461 52.3477 34.7461 52.3086C34.7539 52.2695 34.7617 52.2266 34.7695 52.1797C34.7773 52.1328 34.7852 52.0898 34.793 52.0508C34.8008 52.0039 34.8086 51.9688 34.8164 51.9453C34.8164 51.9297 34.8164 51.8945 34.8164 51.8398C34.8242 51.7773 34.832 51.7148 34.8398 51.6523C34.8477 51.5898 34.8555 51.5312 34.8633 51.4766C34.8711 51.4141 34.875 51.375 34.875 51.3594C34.875 51.3516 34.8789 51.3242 34.8867 51.2773C34.8945 51.2305 34.9023 51.1836 34.9102 51.1367C34.9258 51.0898 34.9375 51.0469 34.9453 51.0078C34.9531 50.9609 34.957 50.9336 34.957 50.9258C34.957 50.9102 34.9609 50.875 34.9688 50.8203C34.9766 50.7656 34.9844 50.707 34.9922 50.6445C35 50.5742 35.0078 50.5117 35.0156 50.457C35.0234 50.3945 35.0312 50.3516 35.0391 50.3281C35.0391 50.3047 35.043 50.2695 35.0508 50.2227C35.0664 50.168 35.082 50.1172 35.0977 50.0703C35.1211 50.0234 35.1445 49.9805 35.168 49.9414C35.1992 49.9023 35.2344 49.8828 35.2734 49.8828C35.3359 49.8828 35.3906 49.9414 35.4375 50.0586C35.4844 50.1758 35.5234 50.3164 35.5547 50.4805C35.5938 50.6367 35.625 50.793 35.6484 50.9492C35.6719 51.1055 35.6914 51.2188 35.707 51.2891C35.7148 51.3359 35.7227 51.4219 35.7305 51.5469C35.7461 51.6719 35.7578 51.8047 35.7656 51.9453C35.7812 52.0859 35.793 52.2188 35.8008 52.3438C35.8164 52.4609 35.8242 52.543 35.8242 52.5898C35.8398 52.6055 35.8555 52.6289 35.8711 52.6602C35.8945 52.6914 35.9062 52.7148 35.9062 52.7305C35.9688 52.8633 36.0156 52.9883 36.0469 53.1055C36.0781 53.2227 36.1289 53.3477 36.1992 53.4805C36.207 53.5039 36.2227 53.543 36.2461 53.5977C36.2773 53.6445 36.3086 53.6953 36.3398 53.75C36.3711 53.7969 36.3984 53.8438 36.4219 53.8906C36.4531 53.9375 36.4766 53.9727 36.4922 53.9961C36.5078 54.0039 36.5352 54.0273 36.5742 54.0664C36.6133 54.1055 36.6328 54.1328 36.6328 54.1484C36.6406 54.1562 36.6523 54.1836 36.668 54.2305C36.6914 54.2695 36.7148 54.3164 36.7383 54.3711C36.7617 54.418 36.7852 54.4648 36.8086 54.5117C36.832 54.5508 36.8438 54.5742 36.8438 54.582C36.9141 54.6836 37.0078 54.7734 37.125 54.8516C37.2422 54.9297 37.3672 55 37.5 55.0625C37.6328 55.1172 37.7656 55.1719 37.8984 55.2266C38.0312 55.2734 38.1523 55.3203 38.2617 55.3672C38.2773 55.3828 38.3086 55.4141 38.3555 55.4609C38.4102 55.5078 38.4453 55.5312 38.4609 55.5312H38.5781H38.8945C38.9258 55.5312 39 55.543 39.1172 55.5664C39.2422 55.582 39.3203 55.5898 39.3516 55.5898H39.6797C39.9688 55.5898 40.2227 55.5547 40.4414 55.4844C40.668 55.4141 40.9062 55.3281 41.1562 55.2266C41.2109 55.2109 41.2852 55.1953 41.3789 55.1797C41.4805 55.1562 41.5586 55.1211 41.6133 55.0742C41.6289 55.0664 41.6641 55.0391 41.7188 54.9922C41.7734 54.9375 41.832 54.8789 41.8945 54.8164C41.957 54.7539 42.0156 54.6914 42.0703 54.6289C42.1328 54.5664 42.1758 54.5234 42.1992 54.5C42.2305 54.4688 42.2734 54.4219 42.3281 54.3594C42.3828 54.2969 42.4375 54.2344 42.4922 54.1719C42.5469 54.1094 42.5938 54.0547 42.6328 54.0078C42.6797 53.9531 42.707 53.9219 42.7148 53.9141C42.7227 53.9062 42.7305 53.8828 42.7383 53.8438C42.7539 53.7969 42.7695 53.75 42.7852 53.7031C42.8008 53.6484 42.8125 53.6016 42.8203 53.5625C42.8359 53.5156 42.8477 53.4883 42.8555 53.4805C42.8945 53.3789 42.9297 53.3008 42.9609 53.2461C43 53.1836 43.0312 53.125 43.0547 53.0703C43.0859 53.0078 43.1094 52.9414 43.125 52.8711C43.1406 52.8008 43.1484 52.707 43.1484 52.5898C43.1484 52.3398 43.1406 52.0977 43.125 51.8633C43.1172 51.6289 43.1055 51.3867 43.0898 51.1367C43.0586 50.9805 42.9961 50.8477 42.9023 50.7383C42.8086 50.6289 42.7188 50.5195 42.6328 50.4102C42.625 50.3945 42.5938 50.3555 42.5391 50.293C42.4922 50.2305 42.4375 50.1602 42.375 50.082C42.3203 50.0039 42.2656 49.9336 42.2109 49.8711C42.1641 49.8008 42.1367 49.7578 42.1289 49.7422C42.0742 49.6719 42.0234 49.625 41.9766 49.6016C41.9375 49.5703 41.8945 49.5469 41.8477 49.5312C41.8086 49.5156 41.7617 49.5 41.707 49.4844C41.6602 49.4688 41.6016 49.4375 41.5312 49.3906C41.4531 49.3281 41.375 49.25 41.2969 49.1562C41.2266 49.0625 41.1406 48.9961 41.0391 48.957C41.0234 48.9492 40.9922 48.9414 40.9453 48.9336C40.9062 48.9258 40.8594 48.918 40.8047 48.9102C40.7578 48.9023 40.7109 48.8945 40.6641 48.8867C40.625 48.8789 40.6016 48.875 40.5938 48.875C40.5547 48.8594 40.4883 48.8359 40.3945 48.8047C40.3086 48.7734 40.2539 48.75 40.2305 48.7344C40.2148 48.7188 40.168 48.6875 40.0898 48.6406C40.0195 48.5938 39.9414 48.5469 39.8555 48.5C39.7773 48.4453 39.6992 48.3984 39.6211 48.3594C39.5508 48.3125 39.5039 48.2852 39.4805 48.2773C39.2773 48.1914 39.0469 48.1289 38.7891 48.0898C38.5391 48.0508 38.3125 47.9922 38.1094 47.9141C37.9062 47.8516 37.7109 47.7656 37.5234 47.6562C37.3438 47.5469 37.1719 47.4336 37.0078 47.3164C36.8203 47.207 36.6367 47.0898 36.457 46.9648C36.2852 46.8398 36.1016 46.7227 35.9062 46.6133C35.9062 46.5977 35.8945 46.582 35.8711 46.5664C35.8555 46.543 35.8398 46.5312 35.8242 46.5312C35.4648 45.9844 35.168 45.4258 34.9336 44.8555C34.6992 44.2773 34.582 43.6484 34.582 42.9688V42.7461C34.582 42.668 34.5859 42.5938 34.5938 42.5234C34.6016 42.4453 34.625 42.3633 34.6641 42.2773C34.6719 42.2695 34.6836 42.2461 34.6992 42.207C34.7227 42.1602 34.7461 42.1133 34.7695 42.0664C34.793 42.0117 34.8164 41.9648 34.8398 41.9258C34.8633 41.8789 34.875 41.8516 34.875 41.8438C34.875 41.8359 34.8789 41.8125 34.8867 41.7734C34.8945 41.7266 34.9023 41.6797 34.9102 41.6328C34.918 41.5781 34.9258 41.5312 34.9336 41.4922C34.9414 41.4453 34.9492 41.418 34.957 41.4102C34.9727 41.3711 34.9922 41.3203 35.0156 41.2578C35.0391 41.1953 35.0664 41.1289 35.0977 41.0586C35.1289 40.9883 35.1641 40.9219 35.2031 40.8594C35.2422 40.7891 35.2852 40.7305 35.332 40.6836C35.3398 40.668 35.3672 40.6367 35.4141 40.5898C35.4688 40.5352 35.5234 40.4805 35.5781 40.4258C35.6406 40.3633 35.6953 40.3086 35.7422 40.2617C35.7891 40.2148 35.8164 40.1836 35.8242 40.168C35.8398 40.168 35.8555 40.1523 35.8711 40.1211C35.8945 40.082 35.9062 40.0469 35.9062 40.0156C36 39.7969 36.125 39.6289 36.2812 39.5117C36.4375 39.3867 36.625 39.2578 36.8438 39.125C36.8594 39.1406 36.8789 39.1484 36.9023 39.1484C36.918 39.1484 36.9258 39.1406 36.9258 39.125C36.9336 39.125 36.9492 39.1172 36.9727 39.1016C37.0039 39.0781 37.0352 39.0547 37.0664 39.0312C37.1055 39 37.1406 38.9766 37.1719 38.9609C37.2031 38.9375 37.2188 38.9258 37.2188 38.9258H37.2773H37.4414C37.457 38.9258 37.5078 38.9141 37.5938 38.8906C37.6797 38.8672 37.7695 38.8438 37.8633 38.8203C37.9648 38.7891 38.0586 38.7656 38.1445 38.75C38.2383 38.7266 38.2969 38.7148 38.3203 38.7148H38.4844H38.8945C38.918 38.707 38.9727 38.6992 39.0586 38.6914C39.1445 38.6836 39.2344 38.6758 39.3281 38.668C39.4297 38.6602 39.5234 38.6523 39.6094 38.6445C39.7031 38.6367 39.7617 38.6328 39.7852 38.6328H39.8438H39.8555C39.8711 38.6328 39.8945 38.6484 39.9258 38.6797C39.957 38.7031 39.9805 38.7148 39.9961 38.7148H40.3125H40.4531C40.5547 38.7227 40.6758 38.7617 40.8164 38.832C40.9648 38.8945 41.1133 38.9688 41.2617 39.0547C41.4102 39.1328 41.5547 39.2148 41.6953 39.3008C41.8359 39.3867 41.9531 39.4531 42.0469 39.5C42.0625 39.5156 42.0977 39.5352 42.1523 39.5586C42.2148 39.5742 42.25 39.582 42.2578 39.582C42.3281 39.6211 42.3945 39.6758 42.457 39.7461C42.5195 39.8086 42.582 39.8711 42.6445 39.9336C42.7148 39.9961 42.7852 40.0508 42.8555 40.0977C42.9336 40.1445 43.0195 40.168 43.1133 40.168C43.2227 40.168 43.3008 40.1328 43.3477 40.0625C43.4023 39.9922 43.4414 39.9102 43.4648 39.8164C43.4961 39.7227 43.5195 39.6289 43.5352 39.5352C43.5508 39.4336 43.5742 39.3516 43.6055 39.2891C43.6055 39.2656 43.6211 39.2344 43.6523 39.1953C43.6836 39.1562 43.7188 39.1133 43.7578 39.0664C43.7969 39.0195 43.832 38.9766 43.8633 38.9375C43.9023 38.8984 43.9258 38.8711 43.9336 38.8555C43.9492 38.8398 43.9688 38.832 43.9922 38.832H44.0156C44.125 38.832 44.1992 38.8867 44.2383 38.9961C44.2852 39.1055 44.3086 39.2031 44.3086 39.2891V39.418C44.3086 39.4414 44.3008 39.4844 44.2852 39.5469C44.2773 39.6016 44.2656 39.6641 44.25 39.7344C44.2344 39.7969 44.2188 39.8594 44.2031 39.9219C44.1875 39.9766 44.1758 40.0078 44.168 40.0156C44.0508 40.8984 43.9922 41.7969 43.9922 42.7109C43.9922 42.8516 43.9961 42.9922 44.0039 43.1328C44.0117 43.2656 44.0156 43.4023 44.0156 43.543C44 43.5898 43.9805 43.6484 43.957 43.7188C43.9414 43.7812 43.9141 43.8438 43.875 43.9062C43.8438 43.9688 43.8047 44.0234 43.7578 44.0703C43.7109 44.1094 43.6602 44.1289 43.6055 44.1289C43.5117 44.1289 43.4375 44.1094 43.3828 44.0703C43.3359 44.0312 43.2969 43.9844 43.2656 43.9297C43.2422 43.8672 43.2227 43.8047 43.207 43.7422C43.1914 43.6719 43.1719 43.6055 43.1484 43.543C43.0625 43.293 42.9766 43.0156 42.8906 42.7109C42.8047 42.4062 42.7188 42.1367 42.6328 41.9023C42.5938 41.8086 42.5273 41.6992 42.4336 41.5742C42.3477 41.4492 42.2461 41.3242 42.1289 41.1992C42.0195 41.0664 41.9102 40.9453 41.8008 40.8359C41.6914 40.7188 41.6016 40.6172 41.5312 40.5312C41.4531 40.4297 41.3789 40.3125 41.3086 40.1797C41.2383 40.0391 41.1484 39.9375 41.0391 39.875C40.9531 39.8281 40.8516 39.7812 40.7344 39.7344C40.6172 39.6797 40.4961 39.6289 40.3711 39.582C40.2461 39.5352 40.1211 39.4961 39.9961 39.4648C39.8789 39.4336 39.7734 39.418 39.6797 39.418C39.4844 39.418 39.293 39.457 39.1055 39.5352C38.918 39.6055 38.7227 39.668 38.5195 39.7227C38.5117 39.7227 38.4883 39.7266 38.4492 39.7344C38.418 39.7422 38.3789 39.75 38.332 39.7578C38.2852 39.7656 38.2422 39.7734 38.2031 39.7812C38.1641 39.7891 38.1328 39.793 38.1094 39.793H37.8164C37.8086 39.8008 37.7891 39.8164 37.7578 39.8398C37.7266 39.8633 37.6875 39.8906 37.6406 39.9219C37.6016 39.9531 37.5625 39.9844 37.5234 40.0156C37.4844 40.0469 37.457 40.0742 37.4414 40.0977C37.2305 40.2852 37.0586 40.4609 36.9258 40.625C36.793 40.7891 36.6875 40.9609 36.6094 41.1406C36.5391 41.3125 36.4883 41.5039 36.457 41.7148C36.4258 41.9258 36.4102 42.1719 36.4102 42.4531C36.4102 42.5156 36.4141 42.6016 36.4219 42.7109C36.4297 42.8203 36.4414 42.9375 36.457 43.0625C36.4727 43.1797 36.4922 43.2891 36.5156 43.3906C36.5469 43.4922 36.5859 43.5664 36.6328 43.6133L37.5938 44.5391C37.6172 44.5547 37.6484 44.5742 37.6875 44.5977C37.7266 44.6211 37.7695 44.6445 37.8164 44.668C37.8633 44.6914 37.9062 44.7109 37.9453 44.7266C37.9844 44.7422 38.0117 44.7539 38.0273 44.7617C38.0352 44.7695 38.0586 44.7891 38.0977 44.8203C38.1445 44.8516 38.1914 44.8828 38.2383 44.9141C38.293 44.9453 38.3398 44.9766 38.3789 45.0078C38.4258 45.0312 38.4531 45.0469 38.4609 45.0547C38.6172 45.1562 38.7852 45.2383 38.9648 45.3008C39.1445 45.3555 39.3164 45.4258 39.4805 45.5117C39.5039 45.5195 39.5469 45.5391 39.6094 45.5703C39.6797 45.5938 39.75 45.6211 39.8203 45.6523C39.8906 45.6836 39.957 45.7148 40.0195 45.7461C40.0898 45.7695 40.1367 45.7891 40.1602 45.8047C40.168 45.8047 40.1992 45.8203 40.2539 45.8516C40.3086 45.8828 40.3672 45.918 40.4297 45.957C40.5 45.9883 40.5625 46.0195 40.6172 46.0508C40.6797 46.0742 40.7227 46.0898 40.7461 46.0977C40.7539 46.0977 40.7812 46.1016 40.8281 46.1094C40.875 46.1094 40.9258 46.1133 40.9805 46.1211C41.0352 46.1289 41.0859 46.1406 41.1328 46.1562C41.1875 46.1641 41.2227 46.1719 41.2383 46.1797C41.2539 46.1797 41.2891 46.1992 41.3438 46.2383C41.4062 46.2773 41.4414 46.3008 41.4492 46.3086C41.4805 46.3242 41.5312 46.3516 41.6016 46.3906C41.6797 46.4219 41.7578 46.457 41.8359 46.4961C41.9141 46.5352 41.9883 46.5742 42.0586 46.6133C42.1289 46.6445 42.1758 46.668 42.1992 46.6836C42.5977 46.8711 42.9648 47.125 43.3008 47.4453C43.6445 47.7656 43.9375 48.1289 44.1797 48.5352C44.4297 48.9414 44.625 49.3711 44.7656 49.8242C44.9062 50.2695 44.9766 50.7148 44.9766 51.1602V51.2891C44.9688 51.3672 44.957 51.4766 44.9414 51.6172C44.9336 51.75 44.9219 51.8867 44.9062 52.0273C44.8906 52.168 44.875 52.293 44.8594 52.4023C44.8438 52.5117 44.832 52.5742 44.8242 52.5898C44.793 52.7617 44.7461 52.9219 44.6836 53.0703C44.6211 53.2109 44.543 53.3477 44.4492 53.4805C44.3633 53.6133 44.2695 53.7461 44.168 53.8789C44.0742 54.0117 43.9766 54.1484 43.875 54.2891C43.875 54.2969 43.8672 54.3164 43.8516 54.3477C43.8359 54.3711 43.8203 54.3984 43.8047 54.4297C43.7891 54.4609 43.7695 54.4922 43.7461 54.5234C43.7305 54.5547 43.7227 54.5742 43.7227 54.582C43.668 54.6836 43.5781 54.7617 43.4531 54.8164C43.3359 54.8711 43.2344 54.9297 43.1484 54.9922C43.1406 55.0078 43.1172 55.0352 43.0781 55.0742C43.0469 55.1133 43.0117 55.1562 42.9727 55.2031C42.9336 55.2422 42.8945 55.2812 42.8555 55.3203C42.8242 55.3516 42.8047 55.3672 42.7969 55.3672C42.6562 55.4609 42.5195 55.5352 42.3867 55.5898C42.2539 55.6445 42.1172 55.6914 41.9766 55.7305C41.8359 55.7695 41.6914 55.8086 41.543 55.8477C41.4023 55.8789 41.25 55.918 41.0859 55.9648C40.9297 56.0117 40.7891 56.0586 40.6641 56.1055C40.5469 56.1523 40.4023 56.1758 40.2305 56.1758H39.9961C39.8945 56.168 39.7148 56.1484 39.457 56.1172C39.1992 56.0938 38.9258 56.0664 38.6367 56.0352C38.3555 56.0039 38.0859 55.9766 37.8281 55.9531C37.5781 55.9219 37.4023 55.8984 37.3008 55.8828Z" fill="black"/>
<path d="M45.8711 52.1602V52.4531C45.8789 52.4766 45.8906 52.5234 45.9062 52.5938C45.9297 52.6641 45.9531 52.7383 45.9766 52.8164C46.0078 52.8867 46.0312 52.957 46.0469 53.0273C46.0703 53.0977 46.0859 53.1445 46.0938 53.168C46.1094 53.1836 46.1484 53.2188 46.2109 53.2734C46.2734 53.3281 46.3047 53.3633 46.3047 53.3789C46.3125 53.3867 46.3242 53.4062 46.3398 53.4375C46.3555 53.4688 46.3711 53.5039 46.3867 53.543C46.4102 53.5742 46.4297 53.6055 46.4453 53.6367C46.4609 53.6602 46.4688 53.6719 46.4688 53.6719C46.625 53.875 46.8047 54.0625 47.0078 54.2344C47.2188 54.4062 47.4258 54.5625 47.6289 54.7031C47.6914 54.75 47.7383 54.7773 47.7695 54.7852C47.8008 54.793 47.8477 54.7969 47.9102 54.7969C48.0117 54.7969 48.1328 54.7539 48.2734 54.668C48.4141 54.5742 48.5469 54.4648 48.6719 54.3398C48.8047 54.2148 48.9219 54.0859 49.0234 53.9531C49.1328 53.8125 49.207 53.6953 49.2461 53.6016C49.2539 53.5625 49.2656 53.5273 49.2812 53.4961C49.2891 53.4727 49.2969 53.4492 49.3047 53.4258C49.3125 53.4023 49.3164 53.3867 49.3164 53.3789C49.418 53.1836 49.5156 52.9883 49.6094 52.793C49.7031 52.5977 49.75 52.3867 49.75 52.1602C49.75 52.0352 49.7266 51.8867 49.6797 51.7148C49.6406 51.543 49.582 51.3711 49.5039 51.1992C49.4258 51.0273 49.332 50.875 49.2227 50.7422C49.1133 50.6016 48.9961 50.5078 48.8711 50.4609C48.8555 50.4609 48.8242 50.4531 48.7773 50.4375C48.7383 50.4219 48.6953 50.4102 48.6484 50.4023C48.6016 50.3867 48.5547 50.3711 48.5078 50.3555C48.4688 50.3398 48.4453 50.332 48.4375 50.332C48.4297 50.3242 48.3984 50.3086 48.3438 50.2852C48.2891 50.2539 48.2266 50.2227 48.1562 50.1914C48.0859 50.1523 48.0195 50.1172 47.957 50.0859C47.9023 50.0547 47.8633 50.0391 47.8398 50.0391C47.8164 50.0391 47.793 50.0352 47.7695 50.0273C47.7539 50.0273 47.7344 50.0273 47.7109 50.0273C47.6875 50.0195 47.668 50.0156 47.6523 50.0156C47.5664 50.0156 47.4922 50.0234 47.4297 50.0391C47.375 50.0547 47.3203 50.0781 47.2656 50.1094C47.2109 50.1406 47.1562 50.1758 47.1016 50.2148C47.0469 50.2461 46.9805 50.2852 46.9023 50.332C46.5508 50.5273 46.2891 50.7812 46.1172 51.0938C45.9531 51.4062 45.8711 51.7617 45.8711 52.1602ZM45.25 64.0547C45.2578 64.0469 45.2969 64.0625 45.3672 64.1016C45.4375 64.1328 45.5156 64.1719 45.6016 64.2188C45.6953 64.2578 45.7812 64.2969 45.8594 64.3359C45.9375 64.375 45.9883 64.3984 46.0117 64.4062C46.043 64.4219 46.0977 64.4609 46.1758 64.5234C46.2539 64.5859 46.2969 64.625 46.3047 64.6406H48.2969C48.3828 64.5703 48.4805 64.5352 48.5898 64.5352C48.707 64.5352 48.8008 64.5195 48.8711 64.4883C49.0273 64.4336 49.1914 64.3672 49.3633 64.2891C49.543 64.2109 49.6992 64.1328 49.832 64.0547C49.9414 63.9922 50.0391 63.9141 50.125 63.8203C50.2188 63.7266 50.3086 63.6289 50.3945 63.5273C50.4805 63.4258 50.5664 63.3281 50.6523 63.2344C50.7383 63.1328 50.8281 63.0391 50.9219 62.9531C51.0859 62.8125 51.2461 62.6719 51.4023 62.5312C51.5586 62.3828 51.6914 62.207 51.8008 62.0039C51.7383 61.8086 51.6484 61.6406 51.5312 61.5C51.4141 61.3516 51.2812 61.2188 51.1328 61.1016C50.9922 60.9766 50.8438 60.8555 50.6875 60.7383C50.5391 60.6133 50.3984 60.4766 50.2656 60.3281C50.2578 60.3203 50.2305 60.2891 50.1836 60.2344C50.1445 60.1719 50.1016 60.1094 50.0547 60.0469C50.0078 59.9766 49.9609 59.9141 49.9141 59.8594C49.8672 59.8047 49.8398 59.7695 49.832 59.7539C49.793 59.707 49.7422 59.6641 49.6797 59.625C49.625 59.5859 49.5781 59.5508 49.5391 59.5195C49.5234 59.5117 49.4727 59.4922 49.3867 59.4609C49.3008 59.4219 49.2539 59.3984 49.2461 59.3906C49.2305 59.375 49.1992 59.3477 49.1523 59.3086C49.1133 59.2695 49.0703 59.2305 49.0234 59.1914C48.9766 59.1445 48.9336 59.1016 48.8945 59.0625C48.8555 59.0156 48.8281 58.9805 48.8125 58.957C48.6719 58.8008 48.5273 58.6211 48.3789 58.418C48.2305 58.207 48.0781 58.043 47.9219 57.9258C47.9219 57.918 47.9023 57.9023 47.8633 57.8789C47.832 57.8555 47.793 57.832 47.7461 57.8086C47.707 57.7852 47.668 57.7617 47.6289 57.7383C47.5898 57.7148 47.5625 57.6992 47.5469 57.6914L47.4883 57.6328C47.4805 57.625 47.4648 57.6055 47.4414 57.5742C47.418 57.543 47.3945 57.5117 47.3711 57.4805C47.3477 57.4414 47.3242 57.4102 47.3008 57.3867C47.2773 57.3555 47.2617 57.3398 47.2539 57.3398C47.2539 57.3242 47.2227 57.3008 47.1602 57.2695C47.0977 57.2305 47.0586 57.1992 47.043 57.1758C47.0273 57.168 46.9961 57.1406 46.9492 57.0938C46.9023 57.0469 46.8516 56.9961 46.7969 56.9414C46.7422 56.8789 46.6875 56.8242 46.6328 56.7773C46.5859 56.7227 46.5508 56.6875 46.5273 56.6719C46.5117 56.6641 46.4766 56.6523 46.4219 56.6367C46.375 56.6133 46.3203 56.5977 46.2578 56.5898C46.2031 56.5742 46.1445 56.5625 46.082 56.5547C46.0273 56.5391 45.9844 56.5312 45.9531 56.5312C45.8281 56.5312 45.6953 56.5742 45.5547 56.6602C45.4141 56.7461 45.2773 56.8516 45.1445 56.9766C45.0117 57.0938 44.8828 57.2148 44.7578 57.3398C44.6328 57.4648 44.5273 57.5625 44.4414 57.6328C44.4102 57.6484 44.3906 57.6602 44.3828 57.668L44.3594 57.6914C44.2969 57.8398 44.2422 57.9805 44.1953 58.1133C44.1562 58.2383 44.0859 58.3672 43.9844 58.5C43.9219 58.5781 43.8438 58.6406 43.75 58.6875C43.6562 58.7266 43.5898 58.7891 43.5508 58.875C43.5508 58.8828 43.543 58.9102 43.5273 58.957C43.5117 58.9961 43.4922 59.0391 43.4688 59.0859C43.4531 59.1328 43.4375 59.1797 43.4219 59.2266C43.4141 59.2734 43.4102 59.3008 43.4102 59.3086C43.3945 59.3164 43.3789 59.3398 43.3633 59.3789C43.3477 59.418 43.3398 59.4453 43.3398 59.4609V59.8945C43.3398 60.1523 43.3438 60.4023 43.3516 60.6445C43.3594 60.8789 43.3789 61.1133 43.4102 61.3477C43.4492 61.5742 43.5078 61.7969 43.5859 62.0156C43.6641 62.2266 43.7773 62.4375 43.9258 62.6484C43.9883 62.7578 44.0664 62.8594 44.1602 62.9531C44.2617 63.0469 44.3555 63.1445 44.4414 63.2461C44.4883 63.3164 44.5039 63.375 44.4883 63.4219C44.4805 63.4609 44.5117 63.5 44.582 63.5391C44.5898 63.5547 44.6367 63.582 44.7227 63.6211C44.8086 63.6602 44.8594 63.6797 44.875 63.6797C44.8828 63.6953 44.9023 63.7227 44.9336 63.7617C44.9727 63.793 45.0117 63.8281 45.0508 63.8672C45.0898 63.9062 45.1289 63.9453 45.168 63.9844C45.207 64.0156 45.2344 64.0391 45.25 64.0547ZM40.9961 61.5938C40.9961 61.5781 41.0039 61.5469 41.0195 61.5C41.0352 61.4531 41.0508 61.4062 41.0664 61.3594C41.082 61.3047 41.0977 61.2578 41.1133 61.2188C41.1289 61.1719 41.1367 61.1445 41.1367 61.1367C41.1367 61.0898 41.1445 61.0039 41.1602 60.8789C41.1836 60.7539 41.2031 60.6211 41.2188 60.4805C41.2344 60.3398 41.25 60.207 41.2656 60.082C41.2812 59.9492 41.2891 59.8594 41.2891 59.8125C41.4062 59.6562 41.4922 59.4883 41.5469 59.3086C41.6094 59.1211 41.6953 58.9492 41.8047 58.793C41.8125 58.7695 41.8359 58.7305 41.875 58.6758C41.9141 58.6211 41.957 58.5625 42.0039 58.5C42.0508 58.4375 42.0938 58.3789 42.1328 58.3242C42.1797 58.2695 42.2148 58.2305 42.2383 58.207C42.3242 58.0898 42.4219 58 42.5312 57.9375C42.6406 57.8672 42.7383 57.7656 42.8242 57.6328C42.8789 57.5312 42.9336 57.4609 42.9883 57.4219C43.043 57.375 43.0977 57.3438 43.1523 57.3281C43.2148 57.3047 43.2773 57.2852 43.3398 57.2695C43.4023 57.2539 43.4727 57.2227 43.5508 57.1758C43.5586 57.1758 43.5742 57.1641 43.5977 57.1406C43.6211 57.1094 43.6484 57.0781 43.6797 57.0469C43.7109 57.0078 43.7422 56.9766 43.7734 56.9531C43.8047 56.9219 43.8281 56.8984 43.8438 56.8828C43.9375 56.8047 44.0391 56.7227 44.1484 56.6367C44.2656 56.543 44.3867 56.4609 44.5117 56.3906C44.6367 56.3125 44.7656 56.25 44.8984 56.2031C45.0312 56.1562 45.168 56.1328 45.3086 56.1328C45.3477 56.1328 45.3828 56.1328 45.4141 56.1328C45.4453 56.1328 45.4805 56.1406 45.5195 56.1562C45.5586 56.1406 45.582 56.125 45.5898 56.1094C45.5977 56.0859 45.6016 56.0547 45.6016 56.0156V55.9805C45.6016 55.9727 45.5938 55.9609 45.5781 55.9453C45.4844 55.8594 45.3672 55.7461 45.2266 55.6055C45.0938 55.4648 44.9609 55.3125 44.8281 55.1484C44.6953 54.9844 44.5781 54.8203 44.4766 54.6562C44.375 54.4844 44.3086 54.3281 44.2773 54.1875C44.2773 54.1797 44.2734 54.1523 44.2656 54.1055C44.2578 54.0586 44.25 54.0039 44.2422 53.9414C44.2344 53.8789 44.2266 53.8164 44.2188 53.7539C44.2109 53.6914 44.207 53.6406 44.207 53.6016C44.1836 53.3828 44.1367 53.1719 44.0664 52.9688C44.0039 52.7578 43.9727 52.5352 43.9727 52.3008C43.9727 52.1523 43.9961 52.0156 44.043 51.8906C44.0898 51.7578 44.1445 51.625 44.207 51.4922C44.3164 51.2578 44.418 51.0508 44.5117 50.8711C44.6055 50.6914 44.707 50.5352 44.8164 50.4023C44.9336 50.2617 45.0703 50.1406 45.2266 50.0391C45.3828 49.9297 45.5742 49.8281 45.8008 49.7344C46.1133 49.6172 46.4023 49.5039 46.668 49.3945C46.9414 49.2852 47.25 49.2305 47.5938 49.2305H47.7109C47.7656 49.2305 47.8594 49.2344 47.9922 49.2422C48.125 49.25 48.2617 49.2578 48.4023 49.2656C48.5508 49.2734 48.6875 49.2812 48.8125 49.2891C48.9453 49.2969 49.0352 49.3008 49.082 49.3008C49.3555 49.3789 49.5898 49.4688 49.7852 49.5703C49.9805 49.6719 50.1562 49.793 50.3125 49.9336C50.4766 50.0664 50.6289 50.2188 50.7695 50.3906C50.9102 50.5625 51.0586 50.7578 51.2148 50.9766C51.2852 51.1797 51.3164 51.3633 51.3086 51.5273C51.3086 51.6914 51.3281 51.9023 51.3672 52.1602C51.3672 52.1758 51.3789 52.2148 51.4023 52.2773C51.4336 52.332 51.4492 52.3633 51.4492 52.3711V52.5703C51.4492 52.9844 51.375 53.3438 51.2266 53.6484C51.0781 53.9531 50.8789 54.2188 50.6289 54.4453C50.3789 54.6641 50.0898 54.8477 49.7617 54.9961C49.4336 55.1367 49.0898 55.2539 48.7305 55.3477C48.7305 55.3711 48.7148 55.3906 48.6836 55.4062C48.668 55.4141 48.6562 55.4219 48.6484 55.4297V55.4883V55.5117C48.6719 55.543 48.7188 55.6055 48.7891 55.6992C48.8594 55.7852 48.9336 55.8789 49.0117 55.9805C49.0898 56.0742 49.1641 56.168 49.2344 56.2617C49.3047 56.3555 49.3555 56.418 49.3867 56.4492C49.4727 56.5586 49.5664 56.6406 49.668 56.6953C49.7695 56.7422 49.8711 56.8047 49.9727 56.8828C49.9805 56.8984 49.9961 56.9219 50.0195 56.9531C50.0508 56.9766 50.082 57.0078 50.1133 57.0469C50.1523 57.0781 50.1836 57.1094 50.207 57.1406C50.2383 57.1641 50.2578 57.1758 50.2656 57.1758L50.3594 57.2461C50.3828 57.2617 50.4062 57.2812 50.4297 57.3047C50.4531 57.3203 50.4727 57.332 50.4883 57.3398C50.5586 57.3789 50.6172 57.4102 50.6641 57.4336C50.7109 57.457 50.75 57.4805 50.7812 57.5039C50.8203 57.5195 50.8555 57.543 50.8867 57.5742C50.918 57.6055 50.9531 57.6445 50.9922 57.6914C51.0078 57.7148 51.043 57.7617 51.0977 57.832C51.1523 57.9023 51.2109 57.9805 51.2734 58.0664C51.3438 58.1523 51.4062 58.2305 51.4609 58.3008C51.5234 58.3711 51.5664 58.418 51.5898 58.4414C51.5898 58.4805 51.6133 58.5 51.6602 58.5C51.8867 58.6562 52.0859 58.8008 52.2578 58.9336C52.4375 59.0664 52.6289 59.2422 52.832 59.4609H52.9844C53.0625 59.4609 53.1484 59.4453 53.2422 59.4141C53.3438 59.375 53.4297 59.3203 53.5 59.25C53.5 59.2344 53.5117 59.207 53.5352 59.168C53.5586 59.1211 53.582 59.0742 53.6055 59.0273C53.6289 58.9727 53.6484 58.9258 53.6641 58.8867C53.6875 58.8398 53.7031 58.8086 53.7109 58.793C53.7109 58.7852 53.7188 58.7695 53.7344 58.7461C53.7578 58.7148 53.7812 58.6836 53.8047 58.6523C53.8359 58.6211 53.8633 58.5898 53.8867 58.5586C53.9102 58.5273 53.9258 58.5078 53.9336 58.5C53.9414 58.4766 53.9609 58.4414 53.9922 58.3945C54.0234 58.3477 54.0547 58.3008 54.0859 58.2539C54.1172 58.207 54.1445 58.168 54.168 58.1367C54.1992 58.0977 54.2188 58.0742 54.2266 58.0664C54.2344 58.0352 54.2539 57.9688 54.2852 57.8672C54.3164 57.7656 54.3477 57.6562 54.3789 57.5391C54.418 57.4219 54.4492 57.3125 54.4727 57.2109C54.5039 57.1094 54.5195 57.0469 54.5195 57.0234C54.5195 56.7266 54.4297 56.4844 54.25 56.2969C54.0781 56.1094 53.8867 55.9531 53.6758 55.8281C53.4648 55.6953 53.2695 55.5859 53.0898 55.5C52.918 55.4062 52.832 55.3086 52.832 55.207C52.832 55.1602 52.8555 55.1172 52.9023 55.0781C52.9492 55.0391 52.9961 55.0117 53.043 54.9961H53.4414C53.7383 54.9961 54.0234 55.0156 54.2969 55.0547C54.5781 55.0938 54.8633 55.1211 55.1523 55.1367H55.6562C55.6875 55.1367 55.7422 55.1484 55.8203 55.1719C55.8984 55.1953 55.9453 55.207 55.9609 55.207H55.9961C56.1445 55.207 56.2969 55.1914 56.4531 55.1602C56.6172 55.1289 56.7656 55.0938 56.8984 55.0547H56.957H56.9805C57.0352 55.0625 57.1289 55.0742 57.2617 55.0898C57.3945 55.0977 57.5352 55.1055 57.6836 55.1133C57.832 55.1211 57.9727 55.1289 58.1055 55.1367C58.2383 55.1367 58.3281 55.1367 58.375 55.1367C58.4297 55.1523 58.4922 55.1758 58.5625 55.207C58.6406 55.2383 58.7148 55.2773 58.7852 55.3242C58.8555 55.3633 58.9141 55.4102 58.9609 55.4648C59.0078 55.5195 59.0312 55.5781 59.0312 55.6406C59.0312 55.6797 59.0117 55.7227 58.9727 55.7695C58.9336 55.8164 58.9062 55.8477 58.8906 55.8633C58.8594 55.8711 58.8047 55.8828 58.7266 55.8984C58.6562 55.9141 58.5742 55.9297 58.4805 55.9453C58.3945 55.9609 58.3125 55.9766 58.2344 55.9922C58.1641 56.0078 58.1133 56.0156 58.082 56.0156C57.9023 56.0469 57.7148 56.0781 57.5195 56.1094C57.3242 56.1406 57.1289 56.1875 56.9336 56.25C56.7461 56.3125 56.5664 56.3945 56.3945 56.4961C56.2305 56.5898 56.0859 56.7188 55.9609 56.8828C55.9531 56.8984 55.9336 56.9297 55.9023 56.9766C55.8789 57.0156 55.8516 57.0625 55.8203 57.1172C55.7891 57.1641 55.7578 57.2109 55.7266 57.2578C55.6953 57.2969 55.6719 57.3242 55.6562 57.3398C55.5625 57.457 55.4375 57.582 55.2812 57.7148C55.1328 57.8477 55.0156 57.9922 54.9297 58.1484C54.9297 58.1641 54.9102 58.207 54.8711 58.2773C54.8398 58.3477 54.8008 58.4258 54.7539 58.5117C54.7148 58.5898 54.6758 58.6641 54.6367 58.7344C54.6055 58.8047 54.5859 58.8516 54.5781 58.875C54.5391 58.9453 54.4727 59.0312 54.3789 59.1328C54.293 59.2266 54.2031 59.3281 54.1094 59.4375C54.0156 59.5391 53.9297 59.6445 53.8516 59.7539C53.7812 59.8555 53.7461 59.9414 53.7461 60.0117C53.7461 60.1602 53.7656 60.293 53.8047 60.4102C53.8516 60.5195 53.918 60.6445 54.0039 60.7852C54.0352 60.8398 54.0898 60.9375 54.168 61.0781C54.2461 61.2109 54.332 61.3555 54.4258 61.5117C54.5195 61.6602 54.6055 61.8008 54.6836 61.9336C54.7695 62.0664 54.8281 62.1602 54.8594 62.2148C54.8672 62.2383 54.8906 62.2695 54.9297 62.3086C54.9688 62.3398 54.9961 62.3555 55.0117 62.3555C55.0273 62.3711 55.0742 62.4023 55.1523 62.4492C55.2305 62.4961 55.2773 62.5195 55.293 62.5195C55.3086 62.5273 55.3359 62.5742 55.375 62.6602C55.4219 62.7383 55.4453 62.7891 55.4453 62.8125C55.4531 62.8281 55.4805 62.8594 55.5273 62.9062C55.582 62.9531 55.6367 63.0078 55.6914 63.0703C55.7539 63.125 55.8086 63.1797 55.8555 63.2344C55.9102 63.2812 55.9453 63.3125 55.9609 63.3281C55.9688 63.3359 55.9883 63.3672 56.0195 63.4219C56.0586 63.4688 56.082 63.5078 56.0898 63.5391C56.2773 63.8359 56.5156 64.0547 56.8047 64.1953C57.0938 64.3359 57.4141 64.4062 57.7656 64.4062C57.8828 64.4062 57.9922 64.3828 58.0938 64.3359C58.2031 64.2891 58.3164 64.2656 58.4336 64.2656C58.457 64.2656 58.4922 64.2734 58.5391 64.2891C58.5938 64.3047 58.6445 64.3242 58.6914 64.3477C58.7383 64.3711 58.7812 64.3945 58.8203 64.418C58.8594 64.4414 58.8828 64.4648 58.8906 64.4883C58.8906 64.4883 58.8867 64.5078 58.8789 64.5469C58.8711 64.5781 58.8633 64.6133 58.8555 64.6523C58.8477 64.6914 58.8398 64.7305 58.832 64.7695C58.8242 64.8086 58.8164 64.8398 58.8086 64.8633C58.7617 64.9883 58.707 65.0859 58.6445 65.1562C58.5898 65.2266 58.5234 65.2852 58.4453 65.332C58.375 65.3789 58.293 65.4219 58.1992 65.4609C58.1133 65.4922 58.0234 65.5352 57.9297 65.5898C57.9141 65.5977 57.8906 65.6211 57.8594 65.6602C57.8281 65.6992 57.8047 65.7188 57.7891 65.7188C57.7578 65.7578 57.6836 65.8047 57.5664 65.8594C57.457 65.9062 57.3867 65.9414 57.3555 65.9648H56.8398H56.3359C56.3125 65.9648 56.2695 65.9531 56.207 65.9297C56.1523 65.8984 56.1133 65.8828 56.0898 65.8828C56.082 65.8828 56.0508 65.8789 55.9961 65.8711C55.9414 65.8633 55.8789 65.8555 55.8086 65.8477C55.7461 65.8398 55.6875 65.832 55.6328 65.8242C55.5781 65.8164 55.543 65.8086 55.5273 65.8008C55.5117 65.8008 55.4766 65.7812 55.4219 65.7422C55.3672 65.6953 55.3047 65.6484 55.2344 65.6016C55.1719 65.5469 55.1094 65.5 55.0469 65.4609C54.9922 65.4141 54.9531 65.3828 54.9297 65.3672C54.9141 65.3672 54.8789 65.3555 54.8242 65.332C54.7695 65.3008 54.7109 65.2695 54.6484 65.2383C54.5859 65.1992 54.5273 65.1641 54.4727 65.1328C54.418 65.1016 54.3828 65.082 54.3672 65.0742C54.3438 65.0586 54.293 65.0117 54.2148 64.9336C54.1367 64.8477 54.0859 64.7969 54.0625 64.7812C54.0547 64.7656 54.0156 64.7422 53.9453 64.7109C53.8828 64.6797 53.8516 64.6562 53.8516 64.6406C53.8359 64.625 53.8203 64.5859 53.8047 64.5234C53.7969 64.4609 53.793 64.4219 53.793 64.4062C53.7461 64.3125 53.6992 64.2461 53.6523 64.207C53.6133 64.1602 53.5703 64.1211 53.5234 64.0898C53.4844 64.0586 53.4414 64.0273 53.3945 63.9961C53.3555 63.957 53.3164 63.9023 53.2773 63.832C53.2148 63.7539 53.1484 63.6602 53.0781 63.5508C53.0156 63.4336 52.9492 63.3125 52.8789 63.1875C52.8086 63.0625 52.7422 62.9414 52.6797 62.8242C52.6172 62.707 52.5664 62.6055 52.5273 62.5195H52.4102H52.3164C52.1992 62.582 52.1016 62.6719 52.0234 62.7891C51.9453 62.8984 51.8711 63.0195 51.8008 63.1523C51.7305 63.2852 51.6602 63.418 51.5898 63.5508C51.5273 63.6836 51.4531 63.7969 51.3672 63.8906C50.8672 64.4453 50.3438 64.918 49.7969 65.3086C49.2578 65.6992 48.6328 66.0078 47.9219 66.2344C47.9062 66.25 47.8867 66.2656 47.8633 66.2812C47.8242 66.3047 47.7969 66.3164 47.7812 66.3164C47.7578 66.332 47.7227 66.3477 47.6758 66.3633C47.6289 66.3789 47.5781 66.3945 47.5234 66.4102C47.4766 66.4258 47.4336 66.4375 47.3945 66.4453C47.3555 66.4609 47.3359 66.4688 47.3359 66.4688H46.6094C46.6016 66.4688 46.5742 66.4727 46.5273 66.4805C46.4883 66.4883 46.4414 66.4922 46.3867 66.4922C46.3398 66.5 46.293 66.5078 46.2461 66.5156C46.207 66.5234 46.1836 66.5273 46.1758 66.5273H45.9531C45.8359 66.5273 45.7344 66.5078 45.6484 66.4688C45.5703 66.4297 45.4805 66.4062 45.3789 66.3984H44.875C44.8047 66.3906 44.7031 66.3633 44.5703 66.3164C44.4375 66.2695 44.2969 66.2109 44.1484 66.1406C44.0078 66.0703 43.875 66 43.75 65.9297C43.625 65.8516 43.5352 65.7812 43.4805 65.7188C43.4648 65.7109 43.4375 65.6875 43.3984 65.6484C43.3672 65.6094 43.3281 65.5664 43.2812 65.5195C43.2422 65.4727 43.207 65.4297 43.1758 65.3906C43.1445 65.3438 43.125 65.3125 43.1172 65.2969C43.0547 65.2266 42.9805 65.1797 42.8945 65.1562C42.8086 65.1328 42.7344 65.0781 42.6719 64.9922C42.6641 64.9922 42.6523 64.9805 42.6367 64.957C42.6289 64.9258 42.6172 64.8945 42.6016 64.8633C42.5859 64.8242 42.5703 64.7891 42.5547 64.7578C42.5469 64.7266 42.5391 64.707 42.5312 64.6992C42.4922 64.6523 42.4453 64.6172 42.3906 64.5938C42.3438 64.5625 42.2969 64.5391 42.25 64.5234C42.2031 64.5078 42.1602 64.4883 42.1211 64.4648C42.082 64.4336 42.0469 64.3945 42.0156 64.3477C41.8516 64.1055 41.7148 63.8906 41.6055 63.7031C41.5039 63.5078 41.4219 63.3164 41.3594 63.1289C41.2969 62.9414 41.2461 62.7461 41.207 62.543C41.168 62.332 41.125 62.0859 41.0781 61.8047C41.0781 61.7891 41.0625 61.75 41.0312 61.6875C41.0156 61.6562 41.0039 61.625 40.9961 61.5938Z" fill="black"/>
<path d="M55.9766 56H55.3438C55.3359 56 55.2734 56.0078 55.1562 56.0234C55.0469 56.0469 54.9648 56.0664 54.9102 56.082C54.9023 56.082 54.8672 56.0938 54.8047 56.1172C54.7422 56.1406 54.707 56.1523 54.6992 56.1523C54.6758 56.1445 54.6523 56.1328 54.6289 56.1172C54.6133 56.1094 54.5938 56.1016 54.5703 56.0938C54.5547 56.0859 54.543 56.082 54.5352 56.082H54.3008C54.1992 56.082 54.1055 56.082 54.0195 56.082C53.9414 56.0898 53.8516 56.1133 53.75 56.1523H52.1328C52.1016 56.1523 52.0664 56.1328 52.0273 56.0938C51.9961 56.0625 51.9648 56.0234 51.9336 55.9766C51.9102 55.9297 51.8867 55.8828 51.8633 55.8359C51.8477 55.7812 51.8398 55.7383 51.8398 55.707C51.8398 55.5664 51.8867 55.4453 51.9805 55.3438C52.082 55.2422 52.207 55.1914 52.3555 55.1914H53.9727C54.1055 55.1914 54.25 55.1602 54.4062 55.0977C54.5625 55.0352 54.6602 54.9297 54.6992 54.7812C54.6992 54.7344 54.7031 54.6641 54.7109 54.5703C54.7188 54.4688 54.7266 54.3633 54.7344 54.2539C54.7422 54.1445 54.7461 54.043 54.7461 53.9492C54.7539 53.8477 54.7578 53.7773 54.7578 53.7383V53.5156V53.3047C54.7578 53.2578 54.7539 53.1484 54.7461 52.9766C54.7461 52.8047 54.7422 52.6211 54.7344 52.4258C54.7266 52.2305 54.7188 52.0469 54.7109 51.875C54.7031 51.7031 54.6992 51.5938 54.6992 51.5469V48.1836C54.6992 48.168 54.6953 48.1445 54.6875 48.1133C54.6797 48.0742 54.6719 48.0352 54.6641 47.9961C54.6562 47.9492 54.6484 47.9102 54.6406 47.8789C54.6328 47.8398 54.625 47.8164 54.6172 47.8086V46.9062V46.5547C54.5859 45.5234 54.5469 44.5039 54.5 43.4961C54.4609 42.4805 54.4492 41.4492 54.4648 40.4023L54.3477 40.1328C54.3398 40.125 54.3164 40.1172 54.2773 40.1094C54.2383 40.1016 54.1914 40.0938 54.1367 40.0859C54.082 40.0781 54.0234 40.0703 53.9609 40.0625C53.9062 40.0547 53.8633 40.0508 53.832 40.0508C53.7852 40.0508 53.707 40.0469 53.5977 40.0391C53.4883 40.0234 53.3672 40.0117 53.2344 40.0039C53.1094 39.9961 52.9922 39.9883 52.8828 39.9805C52.7734 39.9727 52.6953 39.9688 52.6484 39.9688C52.6328 39.9922 52.5977 40.0117 52.543 40.0273C52.4883 40.043 52.4531 40.0508 52.4375 40.0508C52.4219 40.0508 52.3867 40.0469 52.332 40.0391C52.2852 40.0312 52.2305 40.0234 52.168 40.0156C52.1055 40 52.0469 39.9883 51.9922 39.9805C51.9453 39.9727 51.9141 39.9688 51.8984 39.9688C51.8906 39.9688 51.8438 39.9805 51.7578 40.0039C51.6719 40.0273 51.6094 40.043 51.5703 40.0508C51.2812 40.1133 50.9922 40.1523 50.7031 40.168C50.4219 40.1758 50.1445 40.2305 49.8711 40.332C49.8555 40.3398 49.8281 40.3633 49.7891 40.4023C49.75 40.4414 49.7266 40.4609 49.7188 40.4609C49.7031 40.4844 49.6523 40.5039 49.5664 40.5195C49.4805 40.5352 49.4336 40.543 49.4258 40.543C49.2695 40.6055 49.1523 40.6992 49.0742 40.8242C48.9961 40.9492 48.9141 41.0781 48.8281 41.2109C48.8281 41.2188 48.8164 41.2383 48.793 41.2695C48.7773 41.3008 48.7539 41.3359 48.7227 41.375C48.6992 41.4062 48.6758 41.4375 48.6523 41.4688C48.6367 41.4922 48.6289 41.5078 48.6289 41.5156C48.5664 41.6094 48.4961 41.7305 48.418 41.8789C48.3477 42.0273 48.2656 42.1719 48.1719 42.3125C48.0781 42.4531 47.9766 42.5742 47.8672 42.6758C47.7656 42.7773 47.6523 42.8281 47.5273 42.8281C47.457 42.8281 47.4023 42.8086 47.3633 42.7695C47.3242 42.7227 47.293 42.668 47.2695 42.6055C47.2539 42.543 47.2422 42.4805 47.2344 42.418C47.2344 42.3477 47.2344 42.2891 47.2344 42.2422C47.2344 42.0234 47.2773 41.8281 47.3633 41.6562C47.457 41.4766 47.5391 41.2773 47.6094 41.0586C47.6172 41.0352 47.6289 40.9727 47.6445 40.8711C47.668 40.7695 47.6914 40.6641 47.7148 40.5547C47.7383 40.4453 47.7617 40.3398 47.7852 40.2383C47.8086 40.1367 47.8203 40.0742 47.8203 40.0508C47.8203 40.043 47.832 40.0078 47.8555 39.9453C47.8867 39.8828 47.9023 39.8477 47.9023 39.8398C47.9023 39.8164 47.9062 39.7578 47.9141 39.6641C47.9297 39.5625 47.9453 39.4609 47.9609 39.3594C47.9766 39.25 47.9922 39.1484 48.0078 39.0547C48.0234 38.9531 48.0352 38.8906 48.043 38.8672C48.0586 38.7891 48.0742 38.6914 48.0898 38.5742C48.1133 38.457 48.1445 38.3438 48.1836 38.2344C48.2227 38.125 48.2773 38.0352 48.3477 37.9648C48.4258 37.8867 48.5273 37.8477 48.6523 37.8477H48.6875L48.7461 37.9062C48.7617 37.9297 48.7891 37.9727 48.8281 38.0352C48.8672 38.0898 48.9062 38.1523 48.9453 38.2227C48.9922 38.2852 49.0312 38.3438 49.0625 38.3984C49.1016 38.4531 49.1211 38.4844 49.1211 38.4922C49.1523 38.5312 49.2109 38.5938 49.2969 38.6797C49.3906 38.7656 49.457 38.8281 49.4961 38.8672C49.5664 38.9297 49.6484 38.9766 49.7422 39.0078C49.8438 39.0391 49.9453 39.0586 50.0469 39.0664C50.1562 39.0742 50.2656 39.0781 50.375 39.0781C50.4844 39.0781 50.5859 39.082 50.6797 39.0898C50.7109 39.0898 50.7695 39.0938 50.8555 39.1016C50.9492 39.1094 51.0469 39.1172 51.1484 39.125C51.25 39.1328 51.3438 39.1406 51.4297 39.1484C51.5156 39.1562 51.5742 39.1641 51.6055 39.1719H58.7891C59.0156 39.2031 59.2656 39.2266 59.5391 39.2422C59.8203 39.2578 60.0898 39.2656 60.3477 39.2656C60.4648 39.2656 60.5781 39.2617 60.6875 39.2539C60.7969 39.2461 60.8984 39.2422 60.9922 39.2422C61.0078 39.2422 61.0312 39.2578 61.0625 39.2891C61.0938 39.3125 61.1172 39.3242 61.1328 39.3242H61.1914H61.2148C61.2305 39.3242 61.2773 39.3125 61.3555 39.2891C61.4414 39.2578 61.4922 39.2422 61.5078 39.2422H61.6484C61.7344 39.2422 61.8164 39.2461 61.8945 39.2539C61.9727 39.2617 62.0547 39.2656 62.1406 39.2656C62.2188 39.2656 62.2969 39.2617 62.375 39.2539C62.4531 39.2383 62.5312 39.2109 62.6094 39.1719C62.6406 39.1562 62.6797 39.1328 62.7266 39.1016C62.7812 39.0703 62.8164 39.0469 62.832 39.0312C62.8555 38.9844 62.8828 38.9102 62.9141 38.8086C62.9453 38.6992 62.9844 38.5938 63.0312 38.4922C63.0859 38.3906 63.1484 38.3047 63.2188 38.2344C63.2891 38.1562 63.375 38.125 63.4766 38.1406C63.4844 38.1484 63.5039 38.1602 63.5352 38.1758C63.5664 38.1836 63.5977 38.1953 63.6289 38.2109C63.668 38.2266 63.6992 38.2422 63.7227 38.2578C63.7539 38.2656 63.7695 38.2734 63.7695 38.2812C63.793 38.7188 63.8438 39.1523 63.9219 39.582C64 40.0039 64.0742 40.4219 64.1445 40.8359C64.1602 40.9766 64.1875 41.1055 64.2266 41.2227C64.2734 41.332 64.3203 41.4453 64.3672 41.5625C64.4141 41.6719 64.4531 41.7891 64.4844 41.9141C64.5234 42.0312 64.543 42.1641 64.543 42.3125C64.543 42.3281 64.5391 42.3594 64.5312 42.4062C64.5312 42.4453 64.5273 42.4883 64.5195 42.5352C64.5117 42.582 64.5039 42.6289 64.4961 42.6758C64.4961 42.7148 64.4961 42.7461 64.4961 42.7695C64.4805 42.918 64.3828 42.9922 64.2031 42.9922C64.1641 42.9922 64.125 42.9766 64.0859 42.9453C64.0547 42.9141 64.0195 42.8789 63.9805 42.8398C63.9492 42.793 63.9219 42.75 63.8984 42.7109C63.875 42.6641 63.8594 42.6328 63.8516 42.6172C63.8438 42.6094 63.832 42.5859 63.8164 42.5469C63.8008 42.5078 63.7852 42.4688 63.7695 42.4297C63.7539 42.3828 63.7383 42.3438 63.7227 42.3125C63.707 42.2734 63.6992 42.25 63.6992 42.2422C63.6992 42.2266 63.6875 42.1992 63.6641 42.1602C63.6484 42.1211 63.6328 42.1016 63.6172 42.1016C63.5312 41.9609 63.4414 41.8164 63.3477 41.668C63.2617 41.5195 63.168 41.3711 63.0664 41.2227C62.9727 41.0742 62.8711 40.9375 62.7617 40.8125C62.6523 40.6797 62.5312 40.5625 62.3984 40.4609C62.2266 40.3516 62.043 40.2695 61.8477 40.2148C61.6523 40.1602 61.4531 40.1211 61.25 40.0977C61.0469 40.0742 60.8438 40.0625 60.6406 40.0625C60.4375 40.0625 60.2422 40.0586 60.0547 40.0508C60.0312 40.0508 59.9883 40.0469 59.9258 40.0391C59.8711 40.0234 59.8086 40.0117 59.7383 40.0039C59.6758 39.9961 59.6172 39.9883 59.5625 39.9805C59.5078 39.9727 59.4727 39.9688 59.457 39.9688C59.4492 39.9688 59.3867 39.9688 59.2695 39.9688C59.1523 39.9609 59.0586 39.957 58.9883 39.957H58.4727C58.3477 39.957 58.2148 39.9609 58.0742 39.9688C57.9414 39.9766 57.8125 39.9922 57.6875 40.0156C57.5703 40.0391 57.4648 40.0781 57.3711 40.1328C57.2852 40.1797 57.2266 40.2461 57.1953 40.332V40.4492V40.7656C57.1797 40.7969 57.1523 40.8516 57.1133 40.9297C57.0742 41 57.0547 41.043 57.0547 41.0586L57.0312 41.1055C57.0234 41.1133 57.0195 41.125 57.0195 41.1406V41.1523C57.0195 41.168 57.0195 41.1836 57.0195 41.1992C57.0195 41.2148 57.0234 41.2305 57.0312 41.2461C57.0391 41.2695 57.0469 41.2852 57.0547 41.293C57.0547 41.3242 57.0547 41.3789 57.0547 41.457C57.0625 41.5273 57.0703 41.6094 57.0781 41.7031C57.0859 41.7891 57.0938 41.8711 57.1016 41.9492C57.1094 42.0195 57.1133 42.0703 57.1133 42.1016V47C57.1523 47.1094 57.1758 47.2148 57.1836 47.3164C57.1914 47.418 57.1953 47.5156 57.1953 47.6094V47.8438C57.1953 48.0156 57.1797 48.1719 57.1484 48.3125C57.1172 48.4453 57.1016 48.5859 57.1016 48.7344C57.1016 48.7656 57.1016 48.8008 57.1016 48.8398C57.1094 48.8789 57.1133 48.9023 57.1133 48.9102C57.1133 48.9258 57.1172 48.9609 57.125 49.0156C57.1328 49.0703 57.1406 49.1328 57.1484 49.2031C57.1562 49.2656 57.1641 49.3242 57.1719 49.3789C57.1797 49.4336 57.1875 49.4688 57.1953 49.4844V51.8516C57.1953 51.8672 57.207 51.9219 57.2305 52.0156C57.2617 52.1094 57.2773 52.1641 57.2773 52.1797C57.2773 52.1953 57.2617 52.2344 57.2305 52.2969C57.207 52.3594 57.1953 52.3984 57.1953 52.4141V52.6133V53.1406C57.1797 53.1719 57.1602 53.2344 57.1367 53.3281C57.1211 53.4219 57.1133 53.4844 57.1133 53.5156V53.5391V53.5977C57.1133 53.668 57.1172 53.7656 57.125 53.8906C57.1328 54.0078 57.1406 54.125 57.1484 54.2422C57.1562 54.3516 57.1641 54.4531 57.1719 54.5469C57.1797 54.6328 57.1875 54.6836 57.1953 54.6992C57.2031 54.7617 57.207 54.8281 57.207 54.8984C57.2148 54.9609 57.2266 55.0195 57.2422 55.0742C57.2656 55.1289 57.3008 55.1758 57.3477 55.2148C57.3945 55.2539 57.4609 55.2734 57.5469 55.2734H59.1641C59.3125 55.2734 59.4336 55.3242 59.5273 55.4258C59.6289 55.5195 59.6797 55.6328 59.6797 55.7656C59.6797 55.9297 59.625 56.043 59.5156 56.1055C59.4141 56.1758 59.2852 56.2109 59.1289 56.2109H58.7891C58.7656 56.2109 58.707 56.2031 58.6133 56.1875C58.5195 56.1797 58.418 56.1641 58.3086 56.1406C58.207 56.125 58.1094 56.1094 58.0156 56.0938C57.9297 56.0859 57.875 56.082 57.8516 56.082H57.1133C57.1055 56.082 57.0781 56.0781 57.0312 56.0703C56.9844 56.0625 56.9297 56.0508 56.8672 56.0352C56.8125 56.0273 56.7578 56.0195 56.7031 56.0117C56.6562 56.0039 56.625 56 56.6094 56H55.9766Z" fill="black"/>
</svg>
